<svg id="Capa_1" enable-background="new 0 0 512.176 512.176" height="512" viewBox="0 0 512.176 512.176" width="512" xmlns="http://www.w3.org/2000/svg"><g><g><path d="m256.088 7.498c-137.295 0-248.59 111.295-248.59 248.59s111.295 248.59 248.59 248.59 248.59-111.295 248.59-248.59-111.296-248.59-248.59-248.59zm-157.759 346.54c-2.497-4.021-4.853-8.152-7.039-12.373-12.513-24.014-19.923-51.056-20.805-79.762-3.239-105.049 82.248-192.461 187.337-191.498 30.23.271 58.726 7.781 83.873 20.855 4.221 2.196 8.342 4.552 12.363 7.059 1.825 1.133 2.126 3.67.612 5.184l-251.147 251.147c-1.514 1.514-4.051 1.213-5.194-.612zm157.759 87.743c-30.872 0-59.979-7.54-85.577-20.865-4.221-2.196-8.362-4.552-12.383-7.049-1.835-1.143-2.136-3.68-.622-5.194l251.167-251.167c1.514-1.514 4.051-1.213 5.194.622 2.497 4.021 4.853 8.162 7.049 12.383 13.325 25.628 20.865 54.705 20.865 85.577 0 102.552-83.111 185.693-185.693 185.693z" fill="#e94444"/></g><g><path d="m398.275 52.156c54.615 45.591 89.357 114.183 89.357 190.897 0 137.294-111.296 248.59-248.59 248.59-52.87 0-101.901-16.514-142.188-44.658 43.125 36.026 98.652 57.693 159.233 57.693 137.294 0 248.59-111.295 248.59-248.59.001-84.414-42.071-159.002-106.402-203.932z" fill="#d83131"/></g><g><path d="m437.169 75.007c-48.368-48.369-112.678-75.007-181.081-75.007s-132.713 26.638-181.081 75.007c-48.369 48.368-75.007 112.678-75.007 181.081s26.638 132.713 75.006 181.081c48.369 48.369 112.678 75.007 181.081 75.007 26.051 0 51.753-3.899 76.393-11.591 3.954-1.234 6.159-5.439 4.925-9.394s-5.444-6.162-9.394-4.925c-23.191 7.239-47.391 10.909-71.924 10.909-64.397 0-124.939-25.077-170.475-70.613-45.534-45.535-70.612-106.078-70.612-170.474s25.078-124.94 70.613-170.475c45.536-45.536 106.078-70.613 170.475-70.613 64.396 0 124.939 25.077 170.475 70.613 45.536 45.535 70.613 106.078 70.613 170.475 0 46.441-13.231 91.527-38.264 130.385-24.386 37.854-58.713 68.073-99.271 87.395-3.739 1.781-5.327 6.257-3.545 9.996 1.781 3.739 6.257 5.326 9.996 3.545 43.076-20.52 79.532-52.614 105.43-92.813 26.596-41.284 40.653-89.179 40.653-138.508.001-68.403-26.637-132.713-75.006-181.081z"/><path d="m363.069 99.926c-.379-3.309-2.22-6.217-5.05-7.979-4.163-2.592-8.489-5.061-12.864-7.342-74.756-38.869-168.109-23.615-226.954 36.517-37.234 38.048-56.843 88.127-55.214 141.013.9 29.231 8.185 57.155 21.644 82.981 2.253 4.348 4.721 8.681 7.334 12.88 1.761 2.831 4.669 4.673 7.978 5.053.419.048.838.072 1.253.072 2.855 0 5.583-1.122 7.632-3.171l251.142-251.141c2.348-2.348 3.477-5.585 3.099-8.883zm-261.076 245.645c-1.415-2.433-2.77-4.897-4.052-7.372-12.415-23.823-19.13-49.57-19.96-76.525-1.502-48.769 16.589-94.958 50.941-130.061 16.977-17.348 37.369-31.289 59.834-40.52 11.299-4.643 23.083-8.094 35.101-10.292 38.609-7.062 79.335-1.155 114.371 17.109 2.478 1.292 4.941 2.651 7.364 4.063z"/><path d="m154.164 420.232c4.151 2.58 8.486 5.048 12.883 7.336 27.287 14.205 58.077 21.713 89.04 21.713 106.527 0 193.193-86.666 193.193-193.193 0-31.373-7.305-61.33-21.712-89.039-2.29-4.4-4.759-8.735-7.339-12.888-1.761-2.83-4.668-4.672-7.976-5.053-3.305-.387-6.538.748-8.89 3.098l-88.647 88.648c-2.929 2.93-2.929 7.678 0 10.607 2.929 2.927 7.677 2.929 10.607 0l84.874-84.875c1.406 2.421 2.766 4.891 4.063 7.384 13.284 25.549 20.02 53.177 20.02 82.117 0 98.256-79.938 178.193-178.193 178.193-28.562 0-56.957-6.922-82.115-20.019-2.494-1.298-4.964-2.657-7.386-4.063l133.776-133.775c2.929-2.93 2.929-7.678 0-10.607-2.93-2.928-7.678-2.928-10.607 0l-137.55 137.551c-2.348 2.35-3.476 5.589-3.096 8.888.38 3.308 2.222 6.216 5.055 7.977z"/></g></g></svg>