<?xml version="1.0" encoding="UTF-8" standalone="no"?>
<!-- Created with Inkscape (http://www.inkscape.org/) -->

<svg
   version="1.1"
   id="svg672"
   xml:space="preserve"
   width="682.66669"
   height="682.66669"
   viewBox="0 0 682.66669 682.66669"
   xmlns="http://www.w3.org/2000/svg"
   xmlns:svg="http://www.w3.org/2000/svg"><defs
     id="defs676"><clipPath
       clipPathUnits="userSpaceOnUse"
       id="clipPath686"><path
         d="M 0,512 H 512 V 0 H 0 Z"
         id="path684" /></clipPath></defs><g
     id="g678"
     transform="matrix(1.3333333,0,0,-1.3333333,0,682.66667)"><g
       id="g680"><g
         id="g682"
         clip-path="url(#clipPath686)"><g
           id="g688"
           transform="translate(179.5239,480.2207)"><path
             d="m 0,0 c 0,0 -54.346,8.766 -69.247,-48.209 -7.721,-29.522 -19.913,-44.453 -29.87,-51.988 -3.843,-2.908 -1.863,-9.038 2.955,-9.024 20.585,0.06 51.553,4.965 62.853,32.085 17.531,42.074 16.655,58.729 40.321,63.112 z"
             style="fill:#fac600;fill-opacity:1;fill-rule:nonzero;stroke:none"
             id="path690" /></g><g
           id="g692"
           transform="translate(97.0259,373.0239)"><path
             d="m 0,0 c 9.957,7.535 22.149,22.466 29.871,51.987 10.205,39.02 38.909,47.204 55.988,48.488 l -3.361,6.722 c 0,0 -54.346,8.765 -69.247,-48.21 C 5.53,29.466 -6.662,14.535 -16.619,7 c -3.843,-2.908 -1.863,-9.038 2.955,-9.024 3.839,0.011 8.039,0.192 12.406,0.652 C -0.941,-0.87 -0.532,-0.402 0,0"
             style="fill:#e8b801;fill-opacity:1;fill-rule:nonzero;stroke:none"
             id="path694" /></g><g
           id="g696"
           transform="translate(153.9727,422.9536)"><path
             d="m 0,0 c 10.215,27.66 13.053,39.629 32.563,43.243 l -7.012,14.025 c 0,0 -54.345,8.765 -69.247,-48.21 -7.721,-29.522 -19.913,-44.453 -29.87,-51.988 -3.843,-2.908 -1.863,-9.038 2.956,-9.024 17.118,0.051 41.406,3.464 55.603,20.204"
             style="fill:none;stroke:#000000;stroke-width:15;stroke-linecap:round;stroke-linejoin:round;stroke-miterlimit:10;stroke-dasharray:none;stroke-opacity:1"
             id="path698" /></g><g
           id="g700"
           transform="translate(197.9683,449.8447)"><path
             d="m 0,0 h -20.283 c -6.454,0 -11.685,5.231 -11.685,11.685 V 26.47 c 0,6.454 5.231,11.685 11.685,11.685 H 0 Z"
             style="fill:#fd4755;fill-opacity:1;fill-rule:nonzero;stroke:none"
             id="path702" /></g><g
           id="g704"
           transform="translate(197.9683,449.8447)"><path
             d="m 0,0 h -20.283 c -6.454,0 -11.685,5.231 -11.685,11.685 V 26.47 c 0,6.454 5.231,11.685 11.685,11.685 H 0 Z"
             style="fill:none;stroke:#000000;stroke-width:15;stroke-linecap:round;stroke-linejoin:round;stroke-miterlimit:10;stroke-dasharray:none;stroke-opacity:1"
             id="path706" /></g><g
           id="g708"
           transform="translate(360.958,359.4448)"><path
             d="m 0,0 -17.354,17.354 c -4.268,4.268 -11.187,4.268 -15.456,0 l -5.794,-5.795 c -4.098,-4.098 -4.25,-10.634 -0.478,-14.927 l -65.467,-65.466 7.181,-7.182 c 7.113,-7.113 18.645,-7.113 25.758,0 l 52.885,52.886 c 4.143,-2.245 9.428,-1.622 12.93,1.88 L 0,-15.455 C 4.268,-11.187 4.268,-4.268 0,0"
             style="fill:#fed2a4;fill-opacity:1;fill-rule:nonzero;stroke:none"
             id="path710" /></g><g
           id="g712"
           transform="translate(279.4307,279.4287)"><path
             d="m 0,0 -7.181,7.182 62.745,62.745 c 1.457,1.457 1.759,3.643 0.93,5.529 -1.762,4.002 -1.009,8.84 2.27,12.119 l 5.796,5.796 c 0.623,0.623 1.307,1.144 2.027,1.586 l -2.414,2.414 c -4.268,4.267 -11.187,4.267 -15.455,0 L 42.923,91.575 C 38.825,87.477 38.673,80.941 42.444,76.648 L -23.022,11.182 -15.841,4 C -11.274,-0.567 -4.889,-2.185 0.982,-0.888 0.65,-0.6 0.315,-0.315 0,0"
             style="fill:#ffbd86;fill-opacity:1;fill-rule:nonzero;stroke:none"
             id="path714" /></g><g
           id="g716"
           transform="translate(360.958,359.4448)"><path
             d="m 0,0 -17.354,17.354 c -4.268,4.268 -11.187,4.268 -15.456,0 l -5.794,-5.795 c -4.098,-4.098 -4.25,-10.634 -0.478,-14.927 l -65.467,-65.466 7.181,-7.182 c 7.113,-7.113 18.645,-7.113 25.758,0 l 52.885,52.886 c 4.143,-2.245 9.428,-1.622 12.93,1.88 L 0,-15.455 C 4.268,-11.187 4.268,-4.268 0,0 Z"
             style="fill:none;stroke:#000000;stroke-width:15;stroke-linecap:round;stroke-linejoin:round;stroke-miterlimit:10;stroke-dasharray:none;stroke-opacity:1"
             id="path718" /></g><g
           id="g720"
           transform="translate(163.5605,144.875)"><path
             d="m 0,0 -50.107,-86.789 33.483,-19.332 49.39,85.546 z"
             style="fill:#fed2a4;fill-opacity:1;fill-rule:nonzero;stroke:none"
             id="path722" /></g><g
           id="g724"
           transform="translate(134,58.0859)"><path
             d="M 0,0 44.641,77.32 29.561,86.789 -20.547,0 l 33.484,-19.332 5.136,8.897 z"
             style="fill:#ffbd86;fill-opacity:1;fill-rule:nonzero;stroke:none"
             id="path726" /></g><g
           id="g728"
           transform="translate(189.0747,111.7402)"><path
             d="m 0,0 7.252,12.56 -32.766,20.575 -50.108,-86.789 33.484,-19.332 24.638,42.675"
             style="fill:none;stroke:#000000;stroke-width:15;stroke-linecap:round;stroke-linejoin:round;stroke-miterlimit:10;stroke-dasharray:none;stroke-opacity:1"
             id="path730" /></g><g
           id="g732"
           transform="translate(152.46,48.3208)"><path
             d="M 0,0 13.305,23.045 -20.179,42.376 -33.483,19.332 Z"
             style="fill:#dff6fd;fill-opacity:1;fill-rule:nonzero;stroke:none"
             id="path734" /></g><g
           id="g736"
           transform="translate(132.2812,90.6973)"><path
             d="M 0,0 -13.305,-23.045 2.105,-31.942 15.41,-8.897 Z"
             style="fill:#c8effe;fill-opacity:1;fill-rule:nonzero;stroke:none"
             id="path738" /></g><g
           id="g740"
           transform="translate(116.6548,61.4526)"><path
             d="M 0,0 32.54,-18.787 49.11,9.913 15.626,29.245 -0.913,0.598 C -0.622,0.385 -0.319,0.184 0,0 Z"
             style="fill:none;stroke:#000000;stroke-width:15;stroke-linecap:round;stroke-linejoin:round;stroke-miterlimit:10;stroke-dasharray:none;stroke-opacity:1"
             id="path742" /></g><g
           id="g744"
           transform="translate(256.7539,207.7041)"><path
             d="m 0,0 -13.179,8.275 h -45.34 l -38.41,-66.528 c -0.807,-1.397 -0.363,-3.183 1.003,-4.04 l 43.818,-27.516 c 1.44,-0.904 3.343,-0.432 4.193,1.041 L 1.003,-4.041 C 1.81,-2.643 1.366,-0.858 0,0"
             style="fill:#62dbfb;fill-opacity:1;fill-rule:nonzero;stroke:none"
             id="path746" /></g><g
           id="g748"
           transform="translate(188.4053,146.9751)"><path
             d="M 0,0 C -1.367,0.858 -1.81,2.643 -1.003,4.041 L 36.504,69.004 H 9.83 L -28.58,2.476 c -0.807,-1.397 -0.364,-3.183 1.002,-4.04 L 16.241,-29.08 c 1.44,-0.904 3.343,-0.432 4.193,1.041 l 6.444,11.161 z"
             style="fill:#01d0fb;fill-opacity:1;fill-rule:nonzero;stroke:none"
             id="path750" /></g><g
           id="g752"
           transform="translate(256.7539,207.7041)"><path
             d="m 0,0 -13.179,8.275 h -45.34 l -38.41,-66.528 c -0.807,-1.397 -0.363,-3.183 1.003,-4.04 l 43.818,-27.516 c 1.44,-0.904 3.343,-0.432 4.193,1.041 L 1.003,-4.041 C 1.81,-2.643 1.366,-0.858 0,0 Z"
             style="fill:none;stroke:#000000;stroke-width:15;stroke-linecap:round;stroke-linejoin:round;stroke-miterlimit:10;stroke-dasharray:none;stroke-opacity:1"
             id="path754" /></g><g
           id="g756"
           transform="translate(107.4063,47.6128)"><path
             d="M 0,0 11.57,20.04 48.186,-1.101 C 58.05,-6.796 61.43,-19.41 55.735,-29.274 L 49.477,-40.113 3.66,-13.66 C -1.123,-10.899 -2.761,-4.783 0,0"
             style="fill:#53469c;fill-opacity:1;fill-rule:nonzero;stroke:none"
             id="path758" /></g><g
           id="g760"
           transform="translate(118.9766,67.6523)"><path
             d="m 0,0 -11.57,-20.04 c -2.762,-4.783 -1.123,-10.898 3.66,-13.66 l 7.278,-4.202 16.57,28.7 z"
             style="fill:#463a84;fill-opacity:1;fill-rule:nonzero;stroke:none"
             id="path762" /></g><g
           id="g764"
           transform="translate(107.4063,47.6128)"><path
             d="M 0,0 11.57,20.04 48.186,-1.101 C 58.05,-6.796 61.43,-19.41 55.735,-29.274 L 49.477,-40.113 3.66,-13.66 C -1.123,-10.899 -2.761,-4.783 0,0 Z"
             style="fill:none;stroke:#000000;stroke-width:15;stroke-linecap:round;stroke-linejoin:round;stroke-miterlimit:10;stroke-dasharray:none;stroke-opacity:1"
             id="path766" /></g><g
           id="g768"
           transform="translate(314.4873,142.3213)"><path
             d="m 0,0 -32.936,-20.281 55.083,-95.407 33.484,19.332 z"
             style="fill:#fed2a4;fill-opacity:1;fill-rule:nonzero;stroke:none"
             id="path770" /></g><g
           id="g772"
           transform="translate(297.3555,131.772)"><path
             d="m 0,0 -15.804,-9.731 55.083,-95.408 16.284,9.402 z"
             style="fill:#ffbd86;fill-opacity:1;fill-rule:nonzero;stroke:none"
             id="path774" /></g><g
           id="g776"
           transform="translate(314.4873,142.3213)"><path
             d="m 0,0 -32.936,-20.281 55.083,-95.407 33.484,19.332 z"
             style="fill:none;stroke:#000000;stroke-width:15;stroke-linecap:round;stroke-linejoin:round;stroke-miterlimit:10;stroke-dasharray:none;stroke-opacity:1"
             id="path778" /></g><g
           id="g780"
           transform="translate(351.4951,78.2217)"><path
             d="m 0,0 -33.483,-19.332 14.174,-24.552 33.485,19.332 z"
             style="fill:#dff6fd;fill-opacity:1;fill-rule:nonzero;stroke:none"
             id="path782" /></g><g
           id="g784"
           transform="translate(334.2227,68.2495)"><path
             d="M 0,0 -16.211,-9.359 -2.036,-33.912 14.23,-24.52 Z"
             style="fill:#c8effe;fill-opacity:1;fill-rule:nonzero;stroke:none"
             id="path786" /></g><g
           id="g788"
           transform="translate(351.4951,78.2217)"><path
             d="m 0,0 -33.483,-19.332 14.174,-24.552 33.485,19.332 z"
             style="fill:none;stroke:#000000;stroke-width:15;stroke-linecap:round;stroke-linejoin:round;stroke-miterlimit:10;stroke-dasharray:none;stroke-opacity:1"
             id="path790" /></g><g
           id="g792"
           transform="translate(318.2998,146.9175)"><path
             d="m 0,0 -39.873,69.062 h -64.559 l 56.99,-98.085 c 0.847,-1.459 2.73,-1.932 4.167,-1.048 l 42.25,26.016 C 0.357,-3.203 0.812,-1.406 0,0"
             style="fill:#62dbfb;fill-opacity:1;fill-rule:nonzero;stroke:none"
             id="path794" /></g><g
           id="g796"
           transform="translate(239,215.9795)"><path
             d="m 0,0 h -25.132 l 56.989,-98.085 c 0.848,-1.459 2.731,-1.932 4.167,-1.048 l 15.89,9.784 z"
             style="fill:#01d0fb;fill-opacity:1;fill-rule:nonzero;stroke:none"
             id="path798" /></g><g
           id="g800"
           transform="translate(289.0762,197.5342)"><path
             d="m 0,0 -10.65,18.445 h -64.558 l 56.989,-98.085 c 0.848,-1.459 2.731,-1.932 4.167,-1.048 l 42.25,26.017 c 1.383,0.851 1.837,2.648 1.026,4.054 L 17.5,-30.311"
             style="fill:none;stroke:#000000;stroke-width:15;stroke-linecap:round;stroke-linejoin:round;stroke-miterlimit:10;stroke-dasharray:none;stroke-opacity:1"
             id="path802" /></g><g
           id="g804"
           transform="translate(347.6816,7.5)"><path
             d="m 0,0 -16.57,28.7 36.616,21.14 c 9.864,5.696 22.478,2.316 28.174,-7.549 l 6.258,-10.838 z"
             style="fill:#53469c;fill-opacity:1;fill-rule:nonzero;stroke:none"
             id="path806" /></g><g
           id="g808"
           transform="translate(346.9512,45.3452)"><path
             d="m 0,0 -15.84,-9.145 16.57,-28.7 15.905,9.182 z"
             style="fill:#463a84;fill-opacity:1;fill-rule:nonzero;stroke:none"
             id="path810" /></g><g
           id="g812"
           transform="translate(347.6816,7.5)"><path
             d="m 0,0 -16.57,28.7 36.616,21.14 c 9.864,5.696 22.478,2.316 28.174,-7.549 l 6.258,-10.838 z"
             style="fill:none;stroke:#000000;stroke-width:15;stroke-linecap:round;stroke-linejoin:round;stroke-miterlimit:10;stroke-dasharray:none;stroke-opacity:1"
             id="path814" /></g><g
           id="g816"
           transform="translate(298.9629,438.6104)"><path
             d="m 0,0 -7.748,10.7 c -0.969,1.337 -1.489,2.946 -1.489,4.596 v 18.626 l -2.429,0.999 h -52.103 c -2.939,0 -5.48,-2.093 -6.043,-4.978 l -2.244,-11.521 h -5.954 c -6.983,0 -12.663,-5.681 -12.663,-12.664 v -7.609 c 0,-5.829 3.922,-10.814 9.472,-12.245 l -5.003,-17.655 0.656,-1.357 v -27.137 c 3.664,1.557 7.692,2.419 11.917,2.419 h 6.092 c 4.427,0 8.778,-0.685 12.928,-1.969 v 12.25 c 0,1.709 1.384,3.093 3.093,3.093 h 15.402 c 17.514,0 24.719,13.209 26.648,30.206 0.18,1.582 1.484,2.794 3.075,2.794 h 0.546 C 0.047,-11.452 3.456,-4.773 0,0"
             style="fill:#fed2a4;fill-opacity:1;fill-rule:nonzero;stroke:none"
             id="path818" /></g><g
           id="g820"
           transform="translate(298.9629,438.6104)"><path
             d="m 0,0 -7.748,10.7 c -0.969,1.337 -1.489,2.946 -1.489,4.596 v 18.626 l -2.429,0.999 h -52.103 c -2.939,0 -5.48,-2.093 -6.043,-4.978 l -2.244,-11.521 h -5.954 c -6.983,0 -12.663,-5.681 -12.663,-12.664 v -7.609 c 0,-5.829 3.922,-10.814 9.472,-12.245 l -5.003,-17.655 0.656,-1.357 v -27.137 c 3.664,1.557 7.692,2.419 11.917,2.419 h 6.092 c 4.427,0 8.778,-0.685 12.928,-1.969 v 12.25 c 0,1.709 1.384,3.093 3.093,3.093 h 15.402 c 17.514,0 24.719,13.209 26.648,30.206 0.18,1.582 1.484,2.794 3.075,2.794 h 0.546 C 0.047,-11.452 3.456,-4.773 0,0 Z"
             style="fill:none;stroke:#000000;stroke-width:15;stroke-linecap:round;stroke-linejoin:round;stroke-miterlimit:10;stroke-dasharray:none;stroke-opacity:1"
             id="path822" /></g><g
           id="g824"
           transform="translate(231.4238,381.7842)"><path
             d="m 0,0 h -6.092 c -17.44,0 -31.577,-14.138 -31.577,-31.577 v -130.228 c 0,-2.761 2.238,-5 5,-5 H 45.23 c 2.762,0 5,2.239 5,5 v 73.914 c 0.429,0.188 0.853,0.385 1.272,0.589 16.263,7.95 20.048,29.529 8.006,43.046 L 33.437,-14.993 C 24.939,-5.455 12.774,0 0,0"
             style="fill:#fe7701;fill-opacity:1;fill-rule:nonzero;stroke:none"
             id="path826" /></g><g
           id="g828"
           transform="translate(218.7549,219.9795)"><path
             d="m 0,0 v 130.228 c 0,14.441 9.699,26.61 22.935,30.37 -3.336,0.786 -6.777,1.207 -10.266,1.207 H 6.577 C -10.863,161.805 -25,147.667 -25,130.228 V 0 c 0,-2.761 2.238,-5 5,-5 H 5 C 2.238,-5 0,-2.761 0,0"
             style="fill:#f46700;fill-opacity:1;fill-rule:nonzero;stroke:none"
             id="path830" /></g><g
           id="g832"
           transform="translate(231.4238,381.7842)"><path
             d="m 0,0 h -6.092 c -17.44,0 -31.577,-14.138 -31.577,-31.577 v -130.228 c 0,-2.761 2.238,-5 5,-5 H 45.23 c 2.762,0 5,2.239 5,5 v 73.914 c 0.429,0.188 0.853,0.385 1.272,0.589 16.263,7.95 20.048,29.529 8.006,43.046 L 33.437,-14.993 C 24.939,-5.455 12.774,0 0,0 Z"
             style="fill:none;stroke:#000000;stroke-width:15;stroke-linecap:round;stroke-linejoin:round;stroke-miterlimit:10;stroke-dasharray:none;stroke-opacity:1"
             id="path834" /></g><g
           id="g836"
           transform="translate(263.9443,447.7827)"><path
             d="M 0,0 V -11.344"
             style="fill:none;stroke:#000000;stroke-width:15;stroke-linecap:round;stroke-linejoin:round;stroke-miterlimit:10;stroke-dasharray:none;stroke-opacity:1"
             id="path838" /></g><g
           id="g840"
           transform="translate(188.665,466.6558)"><path
             d="m 0,0 v -31.908 c 0,-11.465 6.894,-21.805 17.477,-26.215 l 7.273,-3.03 5.6,19.767 c -5.517,0.925 -9.725,5.71 -9.725,11.49 v 7.609 c 0,6.442 5.222,11.663 11.663,11.663 h 6.778 l 2.402,12.33 c 0.472,2.422 2.594,4.17 5.061,4.17 h 54.532 l 4.21,10.043 c 4.37,10.419 -3.282,21.925 -14.58,21.925 H 37.844 C 16.943,37.844 0,20.901 0,0"
             style="fill:#fac600;fill-opacity:1;fill-rule:nonzero;stroke:none"
             id="path842" /></g><g
           id="g844"
           transform="translate(215.1904,426.6309)"><path
             d="m 0,0 c -3.523,2.004 -5.901,5.785 -5.901,10.128 v 7.61 c 0,3.832 1.857,7.222 4.711,9.348 v 12.939 c 0,20.901 16.943,37.844 37.844,37.844 H 11.319 c -20.901,0 -37.844,-16.943 -37.844,-37.844 V 8.117 c 0,-11.465 6.893,-21.805 17.476,-26.215 l 7.273,-3.03 4.306,15.196 C 1.468,-4.066 0.62,-2.077 0,0"
             style="fill:#e8b801;fill-opacity:1;fill-rule:nonzero;stroke:none"
             id="path846" /></g><g
           id="g848"
           transform="translate(188.665,466.6558)"><path
             d="m 0,0 v -31.908 c 0,-11.465 6.894,-21.805 17.477,-26.215 l 7.273,-3.03 5.6,19.767 c -5.517,0.925 -9.725,5.71 -9.725,11.49 v 7.609 c 0,6.442 5.222,11.663 11.663,11.663 h 6.778 l 2.402,12.33 c 0.472,2.422 2.594,4.17 5.061,4.17 h 54.532 l 4.21,10.043 c 4.37,10.419 -3.282,21.925 -14.58,21.925 H 37.844 C 16.943,37.844 0,20.901 0,0 Z"
             style="fill:none;stroke:#000000;stroke-width:15;stroke-linecap:round;stroke-linejoin:round;stroke-miterlimit:10;stroke-dasharray:none;stroke-opacity:1"
             id="path850" /></g><g
           id="g852"
           transform="translate(272.2803,245.3267)"><path
             d="m 0,0 -5.795,5.795 c -3.806,3.806 -9.714,4.208 -13.976,1.228 l -71.605,71.604 -7.182,-7.181 c -7.112,-7.113 -7.112,-18.645 0,-25.758 l 58.726,-58.726 c -2.981,-4.262 -2.578,-10.17 1.228,-13.976 l 5.795,-5.796 c 4.268,-4.267 11.187,-4.267 15.455,0 L 0,-15.455 C 4.269,-11.187 4.269,-4.268 0,0"
             style="fill:#fed2a4;fill-opacity:1;fill-rule:nonzero;stroke:none"
             id="path854" /></g><g
           id="g856"
           transform="translate(255.9897,215.563)"><path
             d="m 0,0 -5.795,5.796 c -3.064,3.063 -3.922,7.491 -2.584,11.325 0.632,1.813 0.181,3.826 -1.177,5.184 l -56.193,56.193 c -6.221,6.222 -7.001,15.825 -2.337,22.894 l -6.999,7 -7.182,-7.182 c -7.113,-7.113 -7.113,-18.646 0,-25.758 l 58.725,-58.726 c -2.98,-4.262 -2.577,-10.171 1.228,-13.976 l 5.795,-5.795 c 4.269,-4.268 11.188,-4.268 15.456,0 L 1.062,-0.92 C 0.695,-0.637 0.337,-0.336 0,0"
             style="fill:#ffbd86;fill-opacity:1;fill-rule:nonzero;stroke:none"
             id="path858" /></g><g
           id="g860"
           transform="translate(272.2803,245.3267)"><path
             d="m 0,0 -5.795,5.795 c -3.806,3.806 -9.714,4.208 -13.976,1.228 l -71.605,71.604 -7.182,-7.181 c -7.112,-7.113 -7.112,-18.645 0,-25.758 l 58.726,-58.726 c -2.981,-4.262 -2.578,-10.17 1.228,-13.976 l 5.795,-5.796 c 4.268,-4.267 11.187,-4.267 15.455,0 L 0,-15.455 C 4.269,-11.187 4.269,-4.268 0,0 Z"
             style="fill:none;stroke:#000000;stroke-width:15;stroke-linecap:round;stroke-linejoin:round;stroke-miterlimit:10;stroke-dasharray:none;stroke-opacity:1"
             id="path862" /></g><g
           id="g864"
           transform="translate(201.75,293.2163)"><path
             d="m 0,0 38.476,38.476 c 7.122,7.122 7.122,18.67 0,25.792 -7.122,7.122 -18.67,7.122 -25.792,0 L -27.724,23.86 -3.864,0 C -2.797,-1.067 -1.067,-1.067 0,0"
             style="fill:#ffffff;fill-opacity:1;fill-rule:nonzero;stroke:none"
             id="path866" /></g><g
           id="g868"
           transform="translate(199.459,317.0767)"><path
             d="m 0,0 40.407,40.407 c 0.058,0.058 0.122,0.106 0.18,0.163 -7.135,6.95 -18.548,6.902 -25.612,-0.163 L -25.433,0 -1.573,-23.86 c 1.067,-1.067 2.797,-1.067 3.864,0 l 10.785,10.784 z"
             style="fill:#f2fbff;fill-opacity:1;fill-rule:nonzero;stroke:none"
             id="path870" /></g><g
           id="g872"
           transform="translate(201.75,293.2163)"><path
             d="m 0,0 38.476,38.476 c 7.122,7.122 7.122,18.67 0,25.792 -7.122,7.122 -18.67,7.122 -25.792,0 L -27.724,23.86 -3.864,0 C -2.797,-1.067 -1.067,-1.067 0,0 Z"
             style="fill:none;stroke:#000000;stroke-width:15;stroke-linecap:round;stroke-linejoin:round;stroke-miterlimit:10;stroke-dasharray:none;stroke-opacity:1"
             id="path874" /></g><g
           id="g876"
           transform="translate(42.8408,7.5)"><path
             d="M 0,0 H 426.318"
             style="fill:none;stroke:#000000;stroke-width:15;stroke-linecap:round;stroke-linejoin:round;stroke-miterlimit:10;stroke-dasharray:none;stroke-opacity:1"
             id="path878" /></g></g></g></g></svg>
