<?xml version="1.0" encoding="UTF-8"?>
<svg xmlns="http://www.w3.org/2000/svg" xmlns:xlink="http://www.w3.org/1999/xlink" version="1.1" id="Capa_1" x="0px" y="0px" viewBox="0 0 512 512" style="enable-background:new 0 0 512 512;" xml:space="preserve" width="512" height="512">
<g>
	<path style="fill:#5F99D7;" d="M421.744,504.5H90.256c-17.599,0-31.866-14.267-31.866-31.866V61.309&#10;&#9;&#9;c0-17.599,14.267-31.866,31.866-31.866h331.488c17.599,0,31.866,14.267,31.866,31.866v411.325&#10;&#9;&#9;C453.61,490.233,439.343,504.5,421.744,504.5z"/>
	<path style="fill:none;stroke:#000000;stroke-width:15;stroke-linecap:round;stroke-linejoin:round;stroke-miterlimit:10;" d="&#10;&#9;&#9;M137.48,29.44H90.26c-17.6,0-31.87,14.27-31.87,31.87v411.32c0,17.6,14.27,31.87,31.87,31.87h234.11"/>
	<path style="fill:none;stroke:#000000;stroke-width:15;stroke-linecap:round;stroke-linejoin:round;stroke-miterlimit:10;" d="&#10;&#9;&#9;M374.52,29.44h47.22c17.6,0,31.87,14.27,31.87,31.87v411.32c0,17.6-14.27,31.87-31.87,31.87h-62.37"/>
	<path style="fill:#E8EDF2;" d="M91.39,449.637V84.305c0-12.074,9.788-21.862,21.862-21.862h285.496&#10;&#9;&#9;c12.074,0,21.862,9.788,21.862,21.862v365.332c0,12.074-9.788,21.862-21.862,21.862H113.252&#10;&#9;&#9;C101.178,471.5,91.39,461.712,91.39,449.637z"/>
	<path style="fill:none;stroke:#000000;stroke-width:15;stroke-linecap:round;stroke-linejoin:round;stroke-miterlimit:10;" d="&#10;&#9;&#9;M91.39,176.36V84.3c0-12.07,9.79-21.86,21.86-21.86h24.05"/>
	<path style="fill:none;stroke:#000000;stroke-width:15;stroke-linecap:round;stroke-linejoin:round;stroke-miterlimit:10;" d="&#10;&#9;&#9;M374.7,62.44h24.05c12.07,0,21.86,9.79,21.86,21.86v365.34c0,12.07-9.79,21.86-21.86,21.86h-285.5c-12.07,0-21.86-9.79-21.86-21.86&#10;&#9;&#9;V211.36"/>
	<path style="fill:#FFE177;" d="M349.133,86.026H162.868c-14.17,0-25.658-11.487-25.658-25.658V33.16&#10;&#9;&#9;c0-14.17,11.487-25.658,25.658-25.658h186.265c14.17,0,25.658,11.487,25.658,25.658v27.208&#10;&#9;&#9;C374.79,74.538,363.303,86.026,349.133,86.026z"/>
	<path style="fill:#FFD15B;" d="M212.04,86.02h-49.17c-14.17,0-25.66-11.48-25.66-25.65V33.16c0-14.17,11.49-25.66,25.66-25.66&#10;&#9;&#9;h49.17c-14.17,0-25.66,11.49-25.66,25.66v27.21C186.38,74.54,197.87,86.02,212.04,86.02z"/>
	<path style="fill:none;stroke:#000000;stroke-width:15;stroke-linecap:round;stroke-linejoin:round;stroke-miterlimit:10;" d="&#10;&#9;&#9;M346.48,7.5h2.65c14.17,0,25.66,11.49,25.66,25.66v27.21c0,14.17-11.49,25.66-25.66,25.66H162.87c-14.17,0-25.66-11.49-25.66-25.66&#10;&#9;&#9;V33.16c0-14.17,11.49-25.66,25.66-25.66h148.61"/>
	<g>
		<path style="fill:#9BE69D;" d="M192.674,205.664h-55.6c-7.978,0-14.446-6.468-14.446-14.446v-55.6&#10;&#9;&#9;&#9;c0-7.978,6.468-14.446,14.446-14.446h55.6c7.978,0,14.446,6.468,14.446,14.446v55.6&#10;&#9;&#9;&#9;C207.121,199.196,200.653,205.664,192.674,205.664z"/>
		<path style="fill:none;stroke:#000000;stroke-width:15;stroke-linecap:round;stroke-linejoin:round;stroke-miterlimit:10;" d="&#10;&#9;&#9;&#9;M192.674,205.664h-55.6c-7.978,0-14.446-6.468-14.446-14.446v-55.6c0-7.978,6.468-14.446,14.446-14.446h55.6&#10;&#9;&#9;&#9;c7.978,0,14.446,6.468,14.446,14.446v55.6C207.121,199.196,200.653,205.664,192.674,205.664z"/>
		
			<polyline style="fill:none;stroke:#000000;stroke-width:15;stroke-linecap:round;stroke-linejoin:round;stroke-miterlimit:10;" points="&#10;&#9;&#9;&#9;147.354,162.119 161.875,180.346 181.426,145.367 &#9;&#9;"/>
		
			<line style="fill:none;stroke:#000000;stroke-width:15;stroke-linecap:round;stroke-linejoin:round;stroke-miterlimit:10;" x1="241.354" y1="145.367" x2="341.872" y2="145.367"/>
		
			<line style="fill:none;stroke:#000000;stroke-width:15;stroke-linecap:round;stroke-linejoin:round;stroke-miterlimit:10;" x1="241.354" y1="178.846" x2="374.79" y2="178.846"/>
	</g>
	<g>
		<path style="fill:#9BE69D;" d="M192.674,322.612h-55.6c-7.978,0-14.446-6.468-14.446-14.446v-55.6&#10;&#9;&#9;&#9;c0-7.978,6.468-14.446,14.446-14.446h55.6c7.978,0,14.446,6.468,14.446,14.446v55.6&#10;&#9;&#9;&#9;C207.121,316.144,200.653,322.612,192.674,322.612z"/>
		<path style="fill:none;stroke:#000000;stroke-width:15;stroke-linecap:round;stroke-linejoin:round;stroke-miterlimit:10;" d="&#10;&#9;&#9;&#9;M192.674,322.612h-55.6c-7.978,0-14.446-6.468-14.446-14.446v-55.6c0-7.978,6.468-14.446,14.446-14.446h55.6&#10;&#9;&#9;&#9;c7.978,0,14.446,6.468,14.446,14.446v55.6C207.121,316.144,200.653,322.612,192.674,322.612z"/>
		
			<polyline style="fill:none;stroke:#000000;stroke-width:15;stroke-linecap:round;stroke-linejoin:round;stroke-miterlimit:10;" points="&#10;&#9;&#9;&#9;147.354,279.066 161.875,297.294 181.426,262.314 &#9;&#9;"/>
		
			<line style="fill:none;stroke:#000000;stroke-width:15;stroke-linecap:round;stroke-linejoin:round;stroke-miterlimit:10;" x1="241.354" y1="262.314" x2="341.872" y2="262.314"/>
		
			<line style="fill:none;stroke:#000000;stroke-width:15;stroke-linecap:round;stroke-linejoin:round;stroke-miterlimit:10;" x1="241.354" y1="295.794" x2="374.79" y2="295.794"/>
	</g>
	<g>
		<path style="fill:#9BE69D;" d="M192.674,439.559h-55.6c-7.978,0-14.446-6.468-14.446-14.446v-55.6&#10;&#9;&#9;&#9;c0-7.978,6.468-14.446,14.446-14.446h55.6c7.978,0,14.446,6.468,14.446,14.446v55.6&#10;&#9;&#9;&#9;C207.121,433.092,200.653,439.559,192.674,439.559z"/>
		<path style="fill:none;stroke:#000000;stroke-width:15;stroke-linecap:round;stroke-linejoin:round;stroke-miterlimit:10;" d="&#10;&#9;&#9;&#9;M192.674,439.559h-55.6c-7.978,0-14.446-6.468-14.446-14.446v-55.6c0-7.978,6.468-14.446,14.446-14.446h55.6&#10;&#9;&#9;&#9;c7.978,0,14.446,6.468,14.446,14.446v55.6C207.121,433.092,200.653,439.559,192.674,439.559z"/>
		
			<polyline style="fill:none;stroke:#000000;stroke-width:15;stroke-linecap:round;stroke-linejoin:round;stroke-miterlimit:10;" points="&#10;&#9;&#9;&#9;147.354,396.014 161.875,414.242 181.426,379.262 &#9;&#9;"/>
		
			<line style="fill:none;stroke:#000000;stroke-width:15;stroke-linecap:round;stroke-linejoin:round;stroke-miterlimit:10;" x1="241.354" y1="379.262" x2="341.872" y2="379.262"/>
		
			<line style="fill:none;stroke:#000000;stroke-width:15;stroke-linecap:round;stroke-linejoin:round;stroke-miterlimit:10;" x1="241.354" y1="412.742" x2="374.79" y2="412.742"/>
	</g>
</g>















</svg>
