<svg height="512" viewBox="0 0 64 64" width="512" xmlns="http://www.w3.org/2000/svg"><g id="Blood_Refresh" data-name="Blood Refresh"><path d="m32.00032 50.50219a12.54568 12.54568 0 0 1 -12.484-13.34c0-.27752.0185-.5643.04619-.84182.462-4.92154 5.89549-13.71 11.948-22.56323a.59711.59711 0 0 1 .97956 0c6.05256 8.85322 11.486 17.64169 11.94805 22.56323a12.59278 12.59278 0 0 1 -12.4378 14.18182z" fill="#ad4545"/><path d="m30.83958 49.25c-5.35075 0-11.03427-4.406-11.32328-11.87377 0-.28.01753-.5694.04378-.84943.43786-4.96607 5.5872-13.834 11.32327-22.76735a.5563.5563 0 0 1 .543-.252c5.4383 8.58788 10.28116 17.07315 10.70149 21.86185.73565 8.67192-5.46459 13.8807-11.28826 13.8807z" fill="#f05454"/><path d="m32 51.73633a13.75079 13.75079 0 0 1 -13.60059-15.45557c.50977-5.52539 6.832-15.36719 12.28321-23.32373a1.65728 1.65728 0 0 1 2.63379-.001c5.45214 7.95752 11.77441 17.79932 12.28418 23.3252a13.75091 13.75091 0 0 1 -13.60059 15.4551zm0-37.1626c-4.8584 7.1167-11.14648 16.88232-11.6084 21.89111a11.71257 11.71257 0 1 0 23.2168.00049c-.46192-5.00928-6.74902-14.77441-11.6084-21.8916z" fill="#214252"/><path d="m30.55859 46.95752a9.01048 9.01048 0 0 1 -7.541-8.292 1.00028 1.00028 0 0 1 1.99414-.15918 7.034 7.034 0 0 0 5.88086 6.47949.99992.99992 0 0 1 -.334 1.97169z" fill="#f6f4e6"/><g fill="#214252"><path d="m56.085 35.67432a23.52708 23.52708 0 0 1 -46.63712 1.31689l2.65857 1.93164a1.00015 1.00015 0 0 0 1.17578-1.61816l-4.5293-3.29053a.99915.99915 0 0 0 -1.39648.22119l-3.29 4.52881a.99975.99975 0 0 0 1.61718 1.17578l1.79456-2.46948a25.53963 25.53963 0 0 0 50.59705-1.594 1.00029 1.00029 0 0 0 -1.99024-.20214z"/><path d="m58.31641 24.06006-1.79456 2.46948a25.53963 25.53963 0 0 0 -50.59705 1.594 1.00024 1.00024 0 0 0 1.99024.20214 23.52708 23.52708 0 0 1 46.63708-1.31689l-2.65857-1.93164a1.00015 1.00015 0 0 0 -1.17578 1.61816l4.5293 3.29053a1.00045 1.00045 0 0 0 1.39648-.22119l3.29-4.52881a.99975.99975 0 0 0 -1.61714-1.17578z"/></g></g></svg>