<svg id="Filled_Expand" enable-background="new 0 0 50 50" viewBox="0 0 50 50" xmlns="http://www.w3.org/2000/svg"><g><g><circle cx="25" cy="25" fill="#e7e7ff" r="23"/><path d="m34 15-12 10 12 10z" fill="#fb8098"/></g><g><path d="m.5 25c0 13.51 10.99 24.5 24.5 24.5s24.5-10.99 24.5-24.5-10.99-24.5-24.5-24.5-24.5 10.99-24.5 24.5zm3 0c0-11.85 9.65-21.5 21.5-21.5s21.5 9.65 21.5 21.5-9.65 21.5-21.5 21.5-21.5-9.65-21.5-21.5z"/><path d="m21.04 23.85c-.72.6-.72 1.7 0 2.3l12 10c.98.81 2.46.12 2.46-1.15v-20c0-1.27-1.48-1.97-2.46-1.15zm3.3 1.15 8.16-6.8v13.6z"/><path d="m16 13.5c.83 0 1.5.67 1.5 1.5v20c0 .83-.67 1.5-1.5 1.5s-1.5-.67-1.5-1.5v-20c0-.83.67-1.5 1.5-1.5z"/></g></g></svg>