<svg id="Layer_1" enable-background="new 0 0 512 512" height="512" viewBox="0 0 512 512" width="512" xmlns="http://www.w3.org/2000/svg"><g><g><g><g><path d="m119.712 8.356h302.85v496.144h-302.85z" fill="#fcb44d"/><path d="m211.254 8.356c-29.905 22.156-49.331 57.697-49.331 97.694v50.02h-42.21v71.89c5.478 2.973 11.333 5.339 17.471 7.006.02.005.049.012.088.019 14.212 2.721 24.651 14.873 24.651 29.343v.021c0 69.81 27.05 135.57 76.17 185.17 23.15 23.37 49.93 41.87 79.08 54.98h105.387v-496.143z" fill="#fca62f"/><g><g><g><circle cx="158.59" cy="156.069" fill="#f69583" r="58.746"/><path d="m217.332 156.07c0 32.44-26.3 58.74-58.74 58.74-15.18 0-29.01-5.75-39.43-15.2 27.02-5.27 47.41-29.08 47.41-57.64 0-17.27-7.45-32.8-19.32-43.55 3.67-.72 7.46-1.1 11.34-1.1 32.44 0 58.74 26.3 58.74 58.75z" fill="#ea806f"/></g></g><g><path d="m270.473 8.356c-48.263 6.359-85.551 47.654-85.551 97.692v158.3c0 131.799 106.162 238.784 237.637 240.152v-496.144z" fill="#fdb0a0"/><path d="m389.021 8.356c13.237 58.189 16.721 135.289 16.721 219.874 0 106.14-26.05 200.5-66.45 260.5 25.9 9.91 53.96 15.47 83.27 15.77v-496.144z" fill="#f89f8e"/></g><g><path d="m422.56 177.5c-6.825.909-12.731 5.417-15.333 11.932l-24.51 61.356c-5.051 12.645 4.262 26.395 17.879 26.395h21.964z" fill="#fb4a59"/><path d="m422.562 177.5v99.68h-18.69c1.23-15.97 1.87-32.31 1.87-48.95 0-11.67-.07-23.19-.22-34.54l1.7-4.26c2.61-6.51 8.51-11.02 15.34-11.93z" fill="#f82f40"/></g></g><g><circle cx="251.061" cy="264.976" fill="#fb8189" r="19.943"/><path d="m271.008 264.977c0 11.01-8.93 19.94-19.95 19.94-6 0-11.39-2.66-15.05-6.86 10.3-.77 18.43-9.38 18.43-19.89 0-5-1.84-9.57-4.88-13.07.5-.04 1-.06 1.5-.06 11.02 0 19.95 8.92 19.95 19.94z" fill="#fb6672"/></g><g><circle cx="373.345" cy="76.86" fill="#fb8189" r="19.943"/><path d="m393.292 76.861c0 11.01-8.93 19.94-19.95 19.94-6 0-11.39-2.66-15.05-6.86 10.3-.77 18.43-9.38 18.43-19.89 0-5-1.84-9.57-4.88-13.07.5-.04 1-.06 1.5-.06 11.02 0 19.95 8.92 19.95 19.94z" fill="#fb6672"/></g><g><circle cx="311.521" cy="327.345" fill="#fb8189" r="18.391"/><path d="m329.916 327.347c0 10.153-8.235 18.388-18.397 18.388-5.533 0-10.503-2.453-13.878-6.326 9.498-.71 16.995-8.65 16.995-18.342 0-4.611-1.697-8.825-4.5-12.053.461-.037.922-.055 1.383-.055 10.162 0 18.397 8.226 18.397 18.388z" fill="#fb6672"/></g></g></g><g><circle cx="287.709" cy="452.248" fill="#fb8189" r="18.391"/><path d="m306.104 452.249c0 10.153-8.235 18.388-18.397 18.388-5.533 0-10.503-2.453-13.878-6.326 9.498-.71 16.995-8.65 16.995-18.342 0-4.611-1.697-8.825-4.5-12.053.461-.037.922-.055 1.383-.055 10.162 0 18.397 8.226 18.397 18.388z" fill="#fb6672"/></g></g><g><path d="m364.722 155.41c1.648-3.8-.097-8.217-3.896-9.865-3.805-1.649-8.218.097-9.865 3.897-6.73 15.519-24.306 25.946-43.734 25.946-19.431 0-37.006-10.427-43.735-25.946-1.648-3.8-6.065-5.545-9.864-3.897-3.801 1.648-5.545 6.064-3.897 9.865 9.071 20.921 32.178 34.978 57.497 34.978 25.315 0 48.421-14.057 57.494-34.978z"/><path d="m422.56 269.682h-21.964c-3.962 0-7.509-1.881-9.73-5.162-2.223-3.28-2.653-7.271-1.184-10.951l6.585-16.485c1.536-3.847-.336-8.21-4.183-9.747-3.846-1.536-8.211.335-9.747 4.183l-6.585 16.485c-3.297 8.251-2.29 17.57 2.693 24.927s13.264 11.75 22.15 11.75h21.964c4.143 0 7.5-3.358 7.5-7.5s-3.356-7.5-7.499-7.5z"/><path d="m399.659 208.377c.912.365 1.854.537 2.78.537 2.978 0 5.795-1.786 6.967-4.72l4.786-11.98c1.57-3.93 5.156-6.72 9.358-7.279 4.105-.547 6.991-4.319 6.444-8.425-.548-4.106-4.321-6.988-8.425-6.444-9.565 1.274-17.73 7.629-21.308 16.584l-4.786 11.98c-1.536 3.846.337 8.21 4.184 9.747z"/><path d="m422.56 364.001c-29.759 0-57.144 13.605-75.134 37.328-2.503 3.3-1.856 8.005 1.443 10.508 1.355 1.028 2.947 1.524 4.526 1.524 2.267 0 4.507-1.023 5.981-2.969 15.13-19.949 38.158-31.391 63.183-31.391 4.143 0 7.5-3.358 7.5-7.5s-3.356-7.5-7.499-7.5z"/><path d="m168.52 425.945c-4.143 0-7.5 3.358-7.5 7.5v71.055c0 4.142 3.357 7.5 7.5 7.5s7.5-3.358 7.5-7.5v-71.055c0-4.142-3.357-7.5-7.5-7.5z"/><path d="m165.801 40.5c4.143 0 7.5-3.358 7.5-7.5v-25.5c0-4.142-3.357-7.5-7.5-7.5s-7.5 3.358-7.5 7.5v25.5c0 4.142 3.358 7.5 7.5 7.5z"/><path d="m278.504 264.976c0-15.132-12.312-27.443-27.443-27.443-15.132 0-27.443 12.311-27.443 27.443s12.312 27.443 27.443 27.443c15.132 0 27.443-12.311 27.443-27.443zm-27.443 12.443c-6.861 0-12.443-5.582-12.443-12.443s5.582-12.443 12.443-12.443 12.443 5.582 12.443 12.443-5.582 12.443-12.443 12.443z"/><path d="m400.789 76.86c0-15.132-12.312-27.443-27.443-27.443s-27.443 12.311-27.443 27.443 12.312 27.443 27.443 27.443 27.443-12.311 27.443-27.443zm-39.887 0c0-6.861 5.582-12.443 12.443-12.443s12.443 5.582 12.443 12.443-5.582 12.443-12.443 12.443-12.443-5.582-12.443-12.443z"/><path d="m311.521 301.454c-14.276 0-25.891 11.615-25.891 25.891s11.614 25.891 25.891 25.891 25.892-11.615 25.892-25.891-11.616-25.891-25.892-25.891zm0 36.782c-6.005 0-10.891-4.886-10.891-10.891s4.886-10.891 10.891-10.891c6.006 0 10.892 4.886 10.892 10.891s-4.886 10.891-10.892 10.891z"/><path d="m245.741 318.293h-.114c-.012 0-.021 0-.033 0-4.127 0-7.481 3.337-7.499 7.468-.018 4.142 3.326 7.515 7.468 7.532h.114.033c4.127 0 7.481-3.337 7.499-7.468.017-4.142-3.327-7.514-7.468-7.532z"/><path d="m303.799 243.453c4.127 0 7.481-3.337 7.499-7.468.018-4.142-3.326-7.515-7.468-7.532h-.114c-4.187-.012-7.515 3.325-7.532 7.468-.018 4.142 3.326 7.515 7.468 7.532h.114z"/><path d="m309.956 266.043h.115.033c4.127 0 7.481-3.337 7.499-7.468.018-4.142-3.326-7.514-7.468-7.532h-.115c-.012 0-.022 0-.033 0-4.127 0-7.481 3.337-7.499 7.468-.017 4.142 3.327 7.514 7.468 7.532z"/><path d="m278.064 89.374h.115.033c4.127 0 7.481-3.337 7.499-7.468.018-4.142-3.326-7.514-7.468-7.532h-.115c-.012 0-.022 0-.033 0-4.127 0-7.481 3.337-7.499 7.468-.017 4.142 3.326 7.514 7.468 7.532z"/><path d="m303.708 64.421h.033c4.127 0 7.481-3.337 7.499-7.468.018-4.142-3.326-7.515-7.468-7.532h-.114c-4.129.023-7.515 3.325-7.532 7.468-.018 4.142 3.326 7.515 7.468 7.532z"/><path d="m320.87 472.401c-3.842-1.928-7.651-3.992-11.404-6.146 2.611-4.042 4.134-8.849 4.134-14.008 0-14.276-11.615-25.891-25.892-25.891-8.004 0-15.171 3.652-19.924 9.377-47.992-44.054-75.362-106.025-75.362-171.385v-158.3c0-45.357 33.735-84.045 78.553-90.192h151.585c4.143 0 7.5-3.358 7.5-7.5s-3.357-7.5-7.5-7.5h-152.087c-.327 0-.655.021-.979.064-48.06 6.332-85.292 44.758-91.235 91.894-6.329-1.971-12.91-2.99-19.668-2.99-11.27 0-21.976 2.803-31.379 7.837v-90.161c0-4.142-3.357-7.5-7.5-7.5s-7.5 3.358-7.5 7.5v59.551c0 12.557-10.216 22.772-22.772 22.772-4.143 0-7.5 3.358-7.5 7.5s3.357 7.5 7.5 7.5c8.547 0 16.436-2.857 22.772-7.661v11.514c-7.62 7.471-13.497 16.852-16.858 27.609-1.236 3.953.967 8.16 4.921 9.396.745.232 1.498.343 2.239.343 3.193 0 6.153-2.056 7.156-5.265 6.719-21.495 26.379-35.938 48.921-35.938 6.533 0 12.853 1.205 18.832 3.575v14.33c-5.641-3.187-12.088-4.933-18.832-4.933-21.104 0-38.273 17.169-38.273 38.274 0 4.142 3.357 7.5 7.5 7.5s7.5-3.358 7.5-7.5c0-12.833 10.44-23.274 23.273-23.274 7.524 0 14.451 3.56 18.832 9.597v27.343c-4.384 6.033-11.338 9.607-18.832 9.607-4.143 0-7.5 3.358-7.5 7.5s3.357 7.5 7.5 7.5c6.724 0 13.178-1.759 18.832-4.956v13.285 1.068c-5.979 2.369-12.299 3.574-18.832 3.574-22.407 0-42.03-14.336-48.83-35.672-1.257-3.946-5.469-6.125-9.423-4.869-3.946 1.258-6.126 5.477-4.868 9.423 3.377 10.598 9.208 19.852 16.742 27.241v3.259 85.541c0 12.557-10.216 22.773-22.772 22.773-4.143 0-7.5 3.358-7.5 7.5s3.357 7.5 7.5 7.5c8.547 0 16.436-2.857 22.772-7.661v182.154c0 4.142 3.357 7.5 7.5 7.5s7.5-3.358 7.5-7.5v-290.041c9.41 5.044 20.119 7.856 31.379 7.856 6.461 0 12.76-.929 18.832-2.731v119.966c0 16.1-13.098 29.197-29.197 29.197-4.143 0-7.5 3.358-7.5 7.5s3.357 7.5 7.5 7.5c21.725 0 39.826-15.76 43.503-36.445 5.108 14.37 11.535 28.234 19.202 41.424-.026.256-.041.515-.041.778v70.515c0 4.142 3.357 7.5 7.5 7.5s7.5-3.358 7.5-7.5v-48.539c10.466 14.155 22.502 27.275 35.988 39.099-.035.552-.06 1.107-.06 1.668 0 14.276 11.614 25.891 25.891 25.891 3.308 0 6.471-.631 9.382-1.767 5.556 3.36 11.271 6.535 17.051 9.436 1.08.542 2.228.798 3.358.798 2.747 0 5.393-1.515 6.709-4.137 1.858-3.701.363-8.209-3.339-10.067zm-44.052-20.153c0-6.005 4.886-10.891 10.891-10.891 6.006 0 10.892 4.886 10.892 10.891s-4.886 10.891-10.892 10.891c-6.005 0-10.891-4.886-10.891-10.891z"/><path d="m422.638 497c-23.881-.249-47.422-4.116-69.97-11.496-3.944-1.29-8.173.859-9.461 4.795-1.288 3.937.858 8.172 4.795 9.461 24.006 7.857 49.064 11.975 74.479 12.239h.08c4.105 0 7.455-3.307 7.498-7.422.044-4.141-3.279-7.534-7.421-7.577z"/></g></g></svg>