<svg id="Layer_1" enable-background="new 0 0 512 512" viewBox="0 0 512 512" xmlns="http://www.w3.org/2000/svg"><g><g><path clip-rule="evenodd" d="m249.622 494.762h-16.612-75.97c14.259-63.979 9.156-135.895-7.654-212.631-20.636 68.572-51.08 121.325-84.926 168.58l-57.46-37.673c22.479-73.617 46.631-146.299 80.704-213.509 10.091-19.871 24.237-34.187 44.023-44.448 27.837-14.457 54.965-30.53 78.323-55.56v-34.783h91.929v34.782c23.33 25.03 50.486 41.103 78.294 55.56 19.786 10.262 33.96 24.577 44.023 44.448 34.073 67.211 58.225 139.892 80.704 213.51l-57.46 37.673c-33.846-47.254-64.262-100.008-84.899-168.579-16.81 76.735-21.94 148.652-7.682 212.631h-68.94-23.613-12.784z" fill="#ffcebf" fill-rule="evenodd"/></g><g><path clip-rule="evenodd" d="m21.06 422.25-14.06-9.212c22.479-73.617 46.631-146.299 80.704-213.509 10.091-19.871 24.237-34.187 44.023-44.448 27.837-14.457 54.965-30.53 78.323-55.56v-34.783h13.181v46.801c-23.33 25.002-50.457 41.075-78.294 55.532-19.786 10.29-33.931 24.577-44.023 44.476-33.648 66.361-57.63 138.05-79.854 210.703z" fill="#ffb09e" fill-rule="evenodd"/></g><g><path clip-rule="evenodd" d="m150.238 178.154c20.24 0 36.766-16.498 36.766-36.766s-16.526-36.794-36.766-36.794c-20.268 0-36.795 16.526-36.795 36.794s16.527 36.766 36.795 36.766z" fill="#fe5694" fill-rule="evenodd"/></g><g><path clip-rule="evenodd" d="m383.136 374.06c-10.148-17.603-32.656-23.641-50.231-13.465-17.603 10.148-23.642 32.656-13.465 50.231 10.148 17.603 32.655 23.613 50.23 13.465 17.605-10.148 23.643-32.655 13.466-50.231z" fill="#fe5694" fill-rule="evenodd"/></g><g><path clip-rule="evenodd" d="m125.746 141.388c0-18.227 13.238-33.336 30.615-36.284-1.984-.34-4.054-.51-6.123-.51-20.325 0-36.795 16.47-36.795 36.794 0 7.71 2.381 14.882 6.435 20.778 6.633 9.666 17.745 15.988 30.359 15.988 2.069 0 4.139-.17 6.123-.51-12.218-2.041-22.394-10.148-27.355-21.09-2.097-4.649-3.259-9.78-3.259-15.166z" fill="#e54d85" fill-rule="evenodd"/></g><g><path clip-rule="evenodd" d="m326.811 392.429c0-18.199 13.238-33.336 30.615-36.256-1.984-.34-4.053-.51-6.151-.51-20.297 0-36.766 16.47-36.766 36.766 0 7.739 2.381 14.882 6.435 20.807 6.633 9.638 17.745 15.988 30.332 15.988 2.098 0 4.167-.17 6.151-.51-12.218-2.069-22.394-10.148-27.355-21.118-2.099-4.622-3.261-9.752-3.261-15.167z" fill="#e54d85" fill-rule="evenodd"/></g></g><path d="m361.585 488.659c.841 3.767-1.531 7.502-5.297 8.342-.513.115-1.025.17-1.529.17-3.201 0-6.087-2.212-6.813-5.467-2.92-13.083-5.117-26.996-6.528-41.352-.378-3.841 2.43-7.261 6.27-7.638 3.854-.382 7.261 2.43 7.638 6.27 1.356 13.795 3.463 27.143 6.259 39.675zm-254.731-309.059c2.5-2.941 2.143-7.35-.796-9.851-2.939-2.499-7.35-2.144-9.851.796-5.532 6.506-10.244 13.653-14.404 21.851-32.514 64.134-55.894 132.004-80.996 214.179-1.128 3.691.951 7.597 4.641 8.725.681.208 1.368.307 2.045.307 2.992 0 5.76-1.939 6.68-4.948 24.89-81.481 48.035-148.705 80.094-211.94 3.656-7.206 7.773-13.459 12.587-19.119zm103.286-125.586c-3.86 0-6.988 3.129-6.988 6.988v31.96c-1.804 1.876-3.746 3.809-5.882 5.857-2.787 2.671-2.88 7.094-.21 9.88 1.372 1.432 3.208 2.153 5.046 2.153 1.739 0 3.48-.645 4.834-1.943 3.089-2.96 5.81-5.711 8.317-8.405 1.203-1.293 1.871-2.993 1.871-4.759v-34.743c.001-3.859-3.128-6.988-6.988-6.988zm-53.746 222.39c-.076-.323-.167-.644-.291-.961-.007-.019-.016-.038-.023-.057-.002-.005-.004-.01-.006-.015-3.877-9.866-8.427-19.908-13.528-29.847-1.764-3.435-5.976-4.786-9.408-3.026-3.433 1.762-4.788 5.975-3.026 9.408 4.515 8.795 8.569 17.663 12.083 26.399-17.667 57.773-43.338 108.412-83.039 163.842-2.247 3.137-1.525 7.503 1.612 9.75 3.138 2.248 7.502 1.524 9.75-1.612 35.304-49.29 59.788-94.933 77.491-144.951 13.221 71.205 13.988 131.378 2.406 183.327-.839 3.767 1.533 7.501 5.3 8.341.512.114 1.023.169 1.527.169 3.201 0 6.088-2.214 6.814-5.469 13.409-60.145 10.912-130.537-7.633-215.2-.006-.034-.022-.065-.029-.098zm277.728 138.36c-2.103-3.233-6.43-4.15-9.669-2.045-3.234 2.105-4.15 6.434-2.045 9.669 5.827 8.954 12.064 18.076 19.068 27.888 1.364 1.911 3.512 2.929 5.693 2.929 1.404 0 2.824-.422 4.054-1.3 3.141-2.243 3.87-6.607 1.629-9.748-6.887-9.648-13.013-18.608-18.73-27.393zm77.071-8.189c-25.102-82.175-48.483-150.045-80.992-214.172-10.628-21.018-25.984-36.534-46.948-47.436-29.326-15.246-53.299-30.01-74.375-52.003v-31.962c0-3.86-3.129-6.988-6.988-6.988s-6.988 3.129-6.988 6.988v34.742c0 1.768.671 3.471 1.876 4.764 24.24 26.008 52.789 42.698 80.028 56.859 18.53 9.636 31.534 22.773 40.927 41.349 32.06 63.238 55.205 130.462 80.095 211.943.92 3.011 3.688 4.948 6.68 4.948.676-.001 1.365-.099 2.045-.307 3.689-1.128 5.768-5.034 4.64-8.725zm-255.193-320.619c-3.86 0-6.988 3.129-6.988 6.988v383.43c0 3.86 3.129 6.988 6.988 6.988s6.988-3.129 6.988-6.988v-383.43c0-3.86-3.128-6.988-6.988-6.988zm122.862 156.542c-3.432-1.759-7.646-.408-9.407 3.027-5.021 9.786-9.563 19.828-13.499 29.848-.001.002-.002.005-.003.008-.008.02-.017.041-.025.062-.125.319-.216.641-.292.965-.007.031-.021.059-.028.091-3.661 16.691-6.753 33.15-9.19 48.921-.59 3.814 2.024 7.384 5.838 7.973.362.057.721.084 1.076.084 3.388-.001 6.364-2.47 6.898-5.922 1.126-7.285 2.395-14.722 3.797-22.264 1.145 3.228 2.312 6.412 3.497 9.55 1.365 3.609 5.394 5.43 9.008 4.066 3.61-1.365 5.43-5.398 4.066-9.008-3.811-10.084-7.415-20.706-10.749-31.584 3.563-8.868 7.594-17.742 12.041-26.41 1.761-3.434.405-7.645-3.028-9.407zm-184.734-104.996c0 24.101-19.608 43.71-43.711 43.71-24.086 0-43.681-19.608-43.681-43.71 0-24.087 19.596-43.682 43.681-43.682 24.102 0 43.711 19.596 43.711 43.682zm-13.977 0c0-16.38-13.338-29.706-29.734-29.706-16.379 0-29.705 13.326-29.705 29.706 0 16.395 13.326 29.733 29.705 29.733 16.396 0 29.734-13.338 29.734-29.733zm-144.369-24.994 24.982 16.126c1.139.735 2.456 1.117 3.789 1.117.549 0 1.101-.065 1.644-.197 1.861-.45 3.455-1.644 4.41-3.303l5.187-9.004 11.25 9.773c2.915 2.531 7.327 2.221 9.859-.693 2.53-2.914 2.22-7.327-.693-9.859l-17.654-15.334c-1.577-1.368-3.68-1.967-5.741-1.615-2.058.345-3.855 1.594-4.897 3.403l-5.752 9.983-18.806-12.139c-3.243-2.093-7.566-1.162-9.661 2.082-2.091 3.241-1.159 7.567 2.083 9.66zm57.606-38.726c.873 1.703 2.406 2.973 4.242 3.514 1.836.54 3.812.307 5.469-.65l8.996-5.191 4.871 14.07c1 2.891 3.708 4.705 6.603 4.705.757-.001 1.529-.125 2.286-.387 3.647-1.262 5.58-5.242 4.318-8.889l-7.638-22.066c-.681-1.97-2.208-3.533-4.161-4.261-1.951-.73-4.13-.548-5.935.494l-9.965 5.75-10.201-19.891c-1.761-3.434-5.974-4.79-9.407-3.029-3.434 1.761-4.79 5.973-3.029 9.407zm64.018-15.812 10.301 1.386-4.758 14.094c-1.235 3.657.729 7.622 4.385 8.857.742.25 1.495.369 2.237.369 2.915 0 5.635-1.839 6.62-4.754l7.47-22.124c.668-1.978.416-4.149-.684-5.922s-2.937-2.961-5.004-3.24l-11.415-1.536 4.11-21.997c.709-3.794-1.792-7.443-5.586-8.153-3.794-.709-7.445 1.791-8.153 5.586l-5.46 29.225c-.351 1.883.085 3.827 1.208 5.379 1.122 1.551 2.832 2.574 4.729 2.83zm235.908 341.416c-3.021 11.268-10.254 20.694-20.368 26.541-6.862 3.962-14.363 5.845-21.769 5.845-15.111 0-29.828-7.837-37.912-21.839-5.844-10.11-7.399-21.893-4.375-33.174 3.022-11.28 10.259-20.703 20.375-26.535 10.099-5.83 21.87-7.38 33.143-4.363 11.28 3.02 20.703 10.252 26.533 20.366 5.842 10.111 7.395 21.887 4.373 33.159zm-16.478-26.172-.005-.007c-3.963-6.875-10.369-11.792-18.039-13.846-2.559-.685-5.157-1.024-7.737-1.024-5.149 0-10.23 1.35-14.807 3.993-6.884 3.968-11.805 10.376-13.861 18.047-2.057 7.673-.999 15.685 2.978 22.564 8.198 14.195 26.406 19.078 40.589 10.884 6.881-3.979 11.805-10.393 13.861-18.059 2.056-7.665.997-15.675-2.979-22.552zm59.628 89.221-19.922-10.228 5.752-9.966c1.042-1.806 1.223-3.982.494-5.936-.728-1.953-2.291-3.48-4.261-4.161l-22.067-7.638c-3.642-1.26-7.627.67-8.889 4.318-1.262 3.647.671 7.627 4.318 8.889l14.071 4.87-5.192 8.995c-.956 1.657-1.191 3.634-.65 5.468.54 1.835 1.81 3.368 3.512 4.242l26.452 13.58c1.02.524 2.111.773 3.185.773 2.537 0 4.984-1.386 6.222-3.798 1.764-3.434.409-7.646-3.025-9.408zm27.329-72.255-22.343 1.107v-11.527c0-2.086-.933-4.063-2.541-5.39-1.61-1.327-3.724-1.867-5.776-1.471l-22.944 4.442c-3.789.734-6.265 4.4-5.532 8.189.735 3.789 4.393 6.268 8.189 5.532l14.628-2.831v10.4c0 1.913.785 3.743 2.171 5.062 1.303 1.239 3.028 1.926 4.818 1.926.115 0 .23-.003.346-.009l29.677-1.471c3.855-.191 6.825-3.471 6.634-7.326-.193-3.854-3.464-6.801-7.327-6.633zm-73.326-44.326c1.327 1.167 2.972 1.74 4.61 1.74 1.94 0 3.87-.803 5.251-2.375l9.828-11.18 6.36 8.214c1.171 1.513 2.91 2.479 4.814 2.673 1.907.197 3.802-.398 5.255-1.642l22.577-19.324c2.932-2.51 3.275-6.921.765-9.853-2.51-2.933-6.921-3.274-9.853-.765l-17.001 14.551-7.05-9.106c-1.277-1.649-3.223-2.641-5.308-2.707-2.097-.078-4.09.805-5.466 2.371l-15.418 17.541c-2.547 2.899-2.263 7.314.636 9.862z"/></svg>