<?xml version="1.0" encoding="UTF-8"?>
<!-- Generator: Adobe Illustrator 24.3.0, SVG Export Plug-In . SVG Version: 6.00 Build 0)  -->
<svg xmlns="http://www.w3.org/2000/svg" xmlns:xlink="http://www.w3.org/1999/xlink" version="1.1" id="Capa_1" x="0px" y="0px" viewBox="0 0 597.822 597.822" style="enable-background:new 0 0 597.822 597.822;" xml:space="preserve" width="512" height="512">
<g>
	<g>
		<g>
			<path style="fill-rule:evenodd;clip-rule:evenodd;fill:#935B50;" d="M199.954,37.618c0,27.338-5.575,73.08,20.342,94.263     c96.664,124.647,174.446,80.097,229,68.91c1.128-7.447,2.157-14.894,2.887-22.274C461.441,85.61,386.911,8.757,293.299,8.757     C258.424,8.757,226.203,19.415,199.954,37.618L199.954,37.618z"/>
		</g>
		<g>
			<path style="fill-rule:evenodd;clip-rule:evenodd;fill:#935B50;" d="M199.954,37.618     c-44.167,30.648-71.344,82.613-65.538,140.897c3.351,5.13,20.74,22.142,39.887,16.483c41.911-6.421,63.447-43.623,68.69-67.917     C217.077,105.899,199.954,64.957,199.954,37.618L199.954,37.618z"/>
		</g>
		<g>
			<path style="fill-rule:evenodd;clip-rule:evenodd;fill:#7E4C42;" d="M168.695,66.215c4.082,33.959,23.162,77.185,50.969,104.556     c23.925-4.071,32.454-20.057,23.328-43.689c-25.916-21.183-43.039-62.125-43.039-89.463     C188.24,45.727,177.721,55.359,168.695,66.215L168.695,66.215z"/>
		</g>
		<g>
			<path style="fill-rule:evenodd;clip-rule:evenodd;fill:#7E4C42;" d="M417.639,248.684     c-30.364,13.537-49.577,73.907-78.712,93.535l12.079,61.396l97.66,12.412c21.436-36.109,18.451-61.066,3.783-92.277     c-9.59-20.389-11.814-41.339-10.851-62.455C434.994,264.372,426.963,249.378,417.639,248.684L417.639,248.684z"/>
		</g>
		<g>
			<path style="fill-rule:evenodd;clip-rule:evenodd;fill:#7E4C42;" d="M126.419,261.029c11.946,56.729-9.258,72.451-18.948,107.171     l42.873,64.474l92.749-37.93v-62.092c-35.507-23.93-57.408-51.6-62.153-86.683c-0.497-3.641-17.588-19.065-17.588-22.573     L126.419,261.029z"/>
		</g>
		<g>
			<path style="fill-rule:evenodd;clip-rule:evenodd;fill:#FB4455;" d="M150.345,411.657     c-44.234,44.617-21.138,131.365,5.309,169.594h137.646h219.078c3.783,0,6.902-3.112,6.902-6.917v-65.071     c0-36.374-8.694-71.359-53.127-87.047l-17.487-6.189l-93.445-32.999H231.379L150.345,411.657z"/>
		</g>
		<g>
			<path style="fill-rule:evenodd;clip-rule:evenodd;fill:#FFBD86;" d="M231.379,387.165c0,27.769,30.96,41.637,61.92,41.637     s61.921-13.868,61.921-41.637v-4.137V344.37c-9.292,6.256-19.18,11.452-29.434,15.258c-11.747,4.335-22.133,6.52-32.486,6.52     c-10.353,0-20.74-2.185-32.486-6.52c-10.254-3.806-20.142-9.002-29.434-15.258v38.658L231.379,387.165L231.379,387.165z"/>
		</g>
		<g>
			<path style="fill-rule:evenodd;clip-rule:evenodd;fill:#F7314A;" d="M339.424,416.093l88.501,31.278     c44.433,15.688,53.093,27.041,53.093,63.382v70.499h31.358c3.783,0,6.902-3.112,6.902-6.917v-65.071     c0-36.374-8.694-71.359-53.127-87.047l-17.487-6.189l-93.445-32.999C338.728,386.967,334.746,395.969,339.424,416.093     L339.424,416.093z"/>
		</g>
		<g>
			<path style="fill-rule:evenodd;clip-rule:evenodd;fill:#F6A96C;" d="M330.797,395.969v25.155c3.086-1.49,5.973-3.144,8.627-5.031     c9.623-6.852,15.795-16.483,15.795-28.927v-4.137v-13.669v-36.673c-9.292,6.256-19.18,11.452-29.434,15.258     c-11.747,4.335-22.133,6.52-32.486,6.52c-7.964,0-15.928-1.291-24.489-3.839c-2.621-0.794-5.276-1.688-7.997-2.681     c-10.254-3.806-20.142-9.002-29.434-15.258v38.691v0.231c14.767,9.764,37.564,19.031,60.361,19.031     c10.42,0,20.872-1.82,30.529-4.799C332.058,382.863,330.797,385.41,330.797,395.969L330.797,395.969z"/>
		</g>
		<g>
			<path style="fill-rule:evenodd;clip-rule:evenodd;fill:#7E4C42;" d="M249.962,14.45c90.757,3.177,161.936,78.74,152.877,169.626     c-0.365,3.74-0.83,7.447-1.294,11.187c12.344,14.331,33.183,13.438,47.752,5.527c1.128-7.447,2.157-14.894,2.887-22.274     C461.441,85.61,386.911,8.757,293.299,8.757C278.267,8.757,263.733,10.743,249.962,14.45L249.962,14.45z"/>
		</g>
		<g>
			<path style="fill-rule:evenodd;clip-rule:evenodd;fill:#F6A96C;" d="M423.014,195.958v39.221c0,9.664-1.892,19.826-5.376,30.053     c9.324,0.695,17.355-0.861,23.958-3.938c25.95-12.047,30.031-47.496,7.699-60.503c-5.21-3.045-11.879-4.833-20.043-4.833     L423.014,195.958L423.014,195.958z"/>
		</g>
		<g>
			<path style="fill-rule:evenodd;clip-rule:evenodd;fill:#FED2A4;" d="M242.993,127.082c-5.243,24.293-26.779,61.495-68.69,67.917     c-6.206,7.447-15.264,13.305-10.951,28.399c0,3.509,0.497,18.932,0.996,22.573c4.745,35.084,31.524,74.47,67.031,98.4     c9.292,6.256,19.18,11.452,29.434,15.258c11.747,4.335,22.133,6.52,32.486,6.52c10.353,0,20.74-2.185,32.486-6.52     c10.254-3.806,20.142-9.002,29.434-15.258c29.103-19.627,52.364-49.647,62.418-79.137c3.484-10.227,5.376-20.389,5.376-30.053     V195.96C339.127,195.958,292.271,166.534,242.993,127.082L242.993,127.082z"/>
		</g>
		<g>
			<path style="fill-rule:evenodd;clip-rule:evenodd;fill:#FFBD86;" d="M392.85,194.569v36.97     c0,46.403-43.736,104.656-97.228,124.448c-9.59,3.574-18.285,5.659-26.813,6.321c8.561,2.549,16.525,3.839,24.489,3.839     c10.353,0,20.74-2.185,32.486-6.52c10.254-3.806,20.142-9.002,29.434-15.258c29.103-19.627,52.364-49.647,62.418-79.137     c3.484-10.227,5.376-20.389,5.376-30.053v-39.221c-7.433,0-14.601-0.231-21.47-0.695     C398.592,195.065,395.704,194.834,392.85,194.569L392.85,194.569z"/>
		</g>
		<g>
			<path style="fill-rule:evenodd;clip-rule:evenodd;fill:#FED2A4;" d="M91.245,215.42c-22.266,19.065-46.855,44.318-38.327,85.426     l15.63,75.529l29.036,10.36l19.811-20.587c9.69-34.72,29.268-48.389,17.321-105.118l28.638-37.632l2.953-3.873     c6.471-8.506,8.661-17.046,7.997-24.526c-1.792-19.197-22.664-31.211-39.887-16.483L91.245,215.42z"/>
		</g>
		<g>
			<path style="fill-rule:evenodd;clip-rule:evenodd;fill:#FFBD86;" d="M136.275,220.121l-22.465,29.523     c-8.329,10.922-5.707,7.348-4.115,20.752c5.243,43.954-12.908,73.577-23.262,102.206l11.149,14.133l19.811-20.587     c9.69-34.72,29.268-48.389,17.321-105.118l28.638-37.632l2.953-3.873c6.471-8.506,8.661-17.046,7.997-24.526     c-1.626-17.409-18.948-28.927-35.008-19.925c4.347,4.104,7.3,9.962,7.898,16.648c0.697,7.48-1.493,16.052-7.964,24.558     L136.275,220.121z"/>
		</g>
		<g>
			<path style="fill-rule:evenodd;clip-rule:evenodd;fill:#FF646F;" d="M49.5,380.346l23.495,164.795     c4.28,30.086,35.772,48.952,65.57,42.73c6.105-1.291,11.879-3.574,17.089-6.619c20.175-11.883,32.254-35.547,25.75-58.815     l-31.059-110.779l-13.904-49.515l-19.047,4.005l-48.847,10.227L49.5,380.346z"/>
		</g>
		<g>
			<path style="fill-rule:evenodd;clip-rule:evenodd;fill:#FB4455;" d="M97.583,370.285l44.931,160.292     c6.338,22.639-4.911,45.676-24.124,57.822c6.604,0.992,13.439,0.861,20.175-0.53c6.105-1.291,11.879-3.574,17.089-6.619     c20.175-11.883,32.254-35.547,25.75-58.815l-31.059-110.779l-13.904-49.515l-19.047,4.005L97.583,370.285z"/>
		</g>
		<g>
			<path d="M527.012,140.34c-4.837,0-8.757-3.921-8.757-8.757v-31.94c0-4.836,3.92-8.757,8.757-8.757     c6.076,0,11.726-2.429,15.911-6.841c4.148-4.373,6.258-10.095,5.94-16.11c-0.592-11.336-9.992-20.397-21.402-20.634     c-11.088-0.232-20.566,7.826-22.106,18.746c-0.144,0.998-0.214,2.015-0.214,3.047c0,4.836-3.92,8.757-8.757,8.757     c-4.837,0-8.757-3.921-8.757-8.757c0-1.861,0.131-3.716,0.389-5.514c2.773-19.675,19.863-34.22,39.813-33.79     c20.535,0.427,37.458,16.779,38.525,37.227c0.574,10.857-3.234,21.187-10.723,29.082c-5.375,5.668-12.335,9.583-19.861,11.308     v24.177C535.769,136.419,531.849,140.34,527.012,140.34z"/>
		</g>
		<g>
			<path d="M527.012,184.095c-4.837,0-8.757-3.921-8.757-8.757c0-4.836,3.92-8.79,8.757-8.79s8.757,3.888,8.757,8.725v0.066     C535.769,180.174,531.849,184.095,527.012,184.095z"/>
		</g>
		<g>
			<path d="M69.509,124.949c-21.786,0-32.042-15.182-32.353-29.288c-0.303-13.793,9.216-28.886,27.455-29.688     c4.84-0.194,8.921,3.532,9.133,8.364c0.213,4.832-3.532,8.921-8.364,9.133c-8.655,0.381-10.808,7.6-10.715,11.807     c0.129,5.878,4.096,12.159,14.843,12.159c9.461,0,16.617-3.861,20.695-11.165c5.41-9.689,4.681-23.77-1.773-34.243     c-4.148-6.731-12.241-14.626-27.207-13.974C40.06,49.001,22.916,67.071,23.803,87.513c0.209,4.832-3.538,8.919-8.369,9.129     c-4.833,0.18-8.919-3.538-9.129-8.369C5.008,58.359,29.806,31.928,60.456,30.557c18.063-0.767,33.68,7.345,42.886,22.283     c9.782,15.873,10.648,36.758,2.154,51.97C98.243,117.796,85.463,124.949,69.509,124.949z"/>
		</g>
		<g>
			<path d="M346.104,251.774c-6.661,0-12.92-2.921-18.015-8.743c-3.185-3.64-2.815-9.172,0.824-12.357     c3.637-3.185,9.171-2.818,12.357,0.823c1.579,1.804,4.863,5.559,12.928-1.02c3.75-3.058,9.267-2.495,12.321,1.253     c3.056,3.748,2.496,9.264-1.252,12.321C358.947,249.205,352.348,251.774,346.104,251.774z"/>
		</g>
		<g>
			<path d="M311.741,319.369c-1.509,0-3.038-0.39-4.432-1.21c-7.463-4.391-20.556-4.39-28.02,0c-4.17,2.45-9.536,1.06-11.988-3.108     c-2.452-4.169-1.06-9.536,3.109-11.988c12.835-7.549,32.943-7.549,45.779,0c4.169,2.453,5.56,7.82,3.108,11.988     C317.666,317.825,314.742,319.369,311.741,319.369z"/>
		</g>
		<g>
			<path d="M240.263,251.774c-6.246,0-12.843-2.568-19.163-7.723c-3.748-3.056-4.308-8.573-1.251-12.321     c3.056-3.749,8.572-4.309,12.321-1.251c8.065,6.577,11.351,2.822,12.929,1.019c3.186-3.639,8.718-4.007,12.357-0.823     c3.639,3.185,4.007,8.718,0.822,12.357C253.183,248.853,246.923,251.774,240.263,251.774z"/>
		</g>
		<g>
			<path d="M448.624,424.817c-1.521,0-3.062-0.396-4.464-1.229c-4.158-2.47-5.527-7.844-3.057-12.001     c20.169-33.953,16.763-55.754,3.421-84.109c-9.148-19.449-12.857-40.605-11.675-66.582c0.219-4.831,4.328-8.571,9.146-8.35     c4.831,0.22,8.57,4.315,8.35,9.146c-1.048,23.024,2.138,41.558,10.027,58.33c15.142,32.183,19.72,60.223-4.211,100.509     C454.523,423.287,451.611,424.817,448.624,424.817z"/>
		</g>
		<g>
			<path d="M430.68,589.941c-4.837,0-8.757-3.92-8.757-8.757v-53.783c0-4.837,3.92-8.757,8.757-8.757     c4.837,0,8.757,3.92,8.757,8.757v53.783C439.437,586.021,435.517,589.941,430.68,589.941z"/>
		</g>
		<g>
			<path d="M126.956,597.822c-13.535,0-26.92-4.16-38.123-12.057c-13.63-9.61-22.336-23.613-24.513-39.431l-8.528-61.926     c-0.66-4.791,2.689-9.21,7.48-9.87c4.8-0.661,9.211,2.69,9.87,7.48l8.528,61.926c1.509,10.957,7.637,20.725,17.255,27.506     c10.954,7.721,24.748,10.581,37.85,7.847c13.015-2.73,24.447-10.825,31.355-22.21c6.128-10.096,7.847-21.564,4.842-32.29     l-22.963-81.916l-19.787-70.491l-70.896,14.845l7.801,54.762c0.682,4.788-2.646,9.222-7.434,9.904     c-4.786,0.692-9.223-2.646-9.905-7.434l-8.958-62.887c-0.651-4.57,2.357-8.86,6.875-9.806l86.941-18.204     c4.509-0.948,8.98,1.767,10.226,6.204l22.001,78.376l22.964,81.921c4.327,15.446,1.936,31.818-6.734,46.103     c-9.414,15.512-24.993,26.544-42.741,30.265C135.927,597.366,131.432,597.822,126.956,597.822z"/>
		</g>
		<g>
			<path d="M512.379,590.008H155.654c-4.836,0-8.757-3.92-8.757-8.757s3.921-8.757,8.757-8.757h354.87v-63.231     c0-43.524-14.141-67.088-47.286-78.789l-110.934-39.19c-3.501-1.236-5.84-4.545-5.84-8.256v-38.79     c0-4.837,3.92-8.757,8.757-8.757c4.837,0,8.757,3.92,8.757,8.757v32.596L469.07,413.96c52.855,18.66,58.968,63.328,58.968,95.304     v65.07C528.038,582.976,521.013,590.008,512.379,590.008z M150.344,420.417c-3.608,0-6.986-2.246-8.257-5.843     c-1.611-4.56,0.78-9.562,5.34-11.173l75.195-26.568v-32.596c0-4.837,3.921-8.757,8.757-8.757c4.836,0,8.757,3.92,8.757,8.757     v38.79c0,3.711-2.34,7.02-5.84,8.256l-81.035,28.63C152.297,420.255,151.312,420.417,150.344,420.417z"/>
		</g>
		<g>
			<path d="M293.299,437.558c-17.783,0-34.496-4.136-47.062-11.645c-15.228-9.1-23.615-22.862-23.615-38.749v-4.137     c0-4.837,3.921-8.757,8.757-8.757c4.836,0,8.757,3.92,8.757,8.757v4.137c0,21.586,26.744,32.88,53.163,32.88     c26.419,0,53.164-11.294,53.164-32.88v-4.137c0-4.837,3.92-8.757,8.757-8.757s8.757,3.92,8.757,8.757v4.137     c0,15.887-8.386,29.649-23.616,38.749C327.795,433.422,311.081,437.558,293.299,437.558z"/>
		</g>
		<g>
			<path d="M242.988,135.839c-1.949,0-3.91-0.647-5.537-1.977c-28.952-23.665-46.254-67.518-46.254-96.244     c0-4.836,3.921-8.757,8.757-8.757c4.836,0,8.757,3.921,8.757,8.757c0,24.11,15.226,62.578,39.824,82.683     c3.745,3.061,4.299,8.577,1.238,12.323C248.042,134.742,245.525,135.839,242.988,135.839z"/>
		</g>
		<g>
			<path d="M449.307,209.548c-0.437,0-0.879-0.033-1.324-0.1c-4.782-0.725-8.071-5.189-7.345-9.971     c1.337-8.828,2.211-15.559,2.83-21.823c2.67-26.659-2.018-53.253-13.557-76.92c-2.12-4.347-0.314-9.589,4.033-11.709     c4.348-2.12,9.589-0.313,11.709,4.033c12.967,26.592,18.237,56.445,15.244,86.33c-0.65,6.566-1.558,13.575-2.943,22.714     C457.296,206.439,453.563,209.548,449.307,209.548z M134.406,187.274c-4.446,0-8.254-3.372-8.703-7.889     c-4.569-45.85,9.9-89.863,40.741-123.93C198.348,20.212,244.585,0,293.299,0c49.937,0,96.926,21.061,128.918,57.782     c3.177,3.646,2.796,9.178-0.851,12.355c-3.648,3.177-9.178,2.796-12.356-0.85c-28.665-32.902-70.84-51.773-115.712-51.773     c-43.776,0-85.281,18.113-113.872,49.695c-27.479,30.353-40.369,69.574-36.297,110.439c0.48,4.812-3.033,9.103-7.845,9.582     C134.99,187.26,134.696,187.274,134.406,187.274z"/>
		</g>
		<g>
			<path d="M421.968,274.154c-1.64,0-3.301-0.063-4.984-0.189c-4.823-0.361-8.44-4.564-8.077-9.388     c0.361-4.823,4.571-8.439,9.386-8.077c19.19,1.44,28.353-8.132,32.119-13.965c5.415-8.382,6.198-18.783,1.998-26.497     c-4.034-7.407-12.041-11.322-23.157-11.322h-6.239c-4.837,0-8.757-3.921-8.757-8.757c0-4.836,3.92-8.757,8.757-8.757h6.239     c17.667,0,31.353,7.266,38.538,20.46c7.225,13.266,6.178,30.685-2.666,44.376C455.944,266.252,440.396,274.153,421.968,274.154z"/>
		</g>
		<g>
			<path d="M293.3,374.904c-11.178,0-22.464-2.244-35.518-7.062c-50.652-18.728-95.503-71.746-102.112-120.702     c-0.604-4.424-1.075-20.532-1.075-23.745c0-4.836,3.921-8.757,8.757-8.757c4.836,0,8.757,3.921,8.757,8.757     c0,3.828,0.53,18.561,0.916,21.389c5.723,42.4,46.467,90.228,90.826,106.63c11.046,4.076,20.405,5.976,29.449,5.976     c9.042,0,18.402-1.9,29.455-5.978c48.741-18.035,91.502-72.351,91.502-116.233v-30.573     c-77.838-1.953-124.365-29.925-166.574-62.669c-4.251,11.265-10.729,22.291-18.64,31.508     c-14.24,16.59-32.711,27.037-53.415,30.208c-4.781,0.734-9.25-2.55-9.982-7.33c-0.732-4.78,2.55-9.25,7.33-9.982     c39.485-6.049,57.466-42.618,61.457-61.108c0.64-2.965,2.769-5.388,5.627-6.404c2.859-1.016,6.039-0.48,8.406,1.415     c45.756,36.633,90.472,66.957,174.548,66.957c4.837,0,8.757,3.921,8.757,8.757v39.221c0,51.261-47.143,112.013-102.945,132.661     C315.763,372.66,304.477,374.904,293.3,374.904z"/>
		</g>
		<g>
			<path d="M68.538,385.134c-4.066,0-7.71-2.847-8.566-6.985l-15.63-75.529c-10.318-49.736,24.483-79.532,41.207-93.852     l43.178-36.909c13.453-11.522,31.383-11.518,43.598,0.015c11.564,10.92,16.793,32.148,0.949,52.956l-29.191,38.352     c7.913,41.137-0.446,60.643-9.281,81.256c-3.181,7.421-6.469,15.093-8.972,24.062c-1.3,4.658-6.128,7.384-10.789,6.081     c-4.658-1.3-7.381-6.13-6.081-10.788c2.816-10.091,6.338-18.309,9.744-26.255c8.338-19.456,15.539-36.258,7.443-74.705     c-0.525-2.49,0.06-5.084,1.601-7.108l31.591-41.505c9.34-12.265,7.213-23.71,0.962-29.612     c-4.493-4.241-12.154-6.323-20.187,0.559l-43.179,36.91c-21.12,18.084-43.024,40.442-35.442,76.99l15.63,75.534     c0.98,4.735-2.064,9.369-6.8,10.35C69.723,385.074,69.126,385.134,68.538,385.134z"/>
		</g>
		<g>
			<path d="M549.742,337.238c-21.775,0-32.026-15.182-32.336-29.289c-0.303-13.793,9.222-28.886,27.472-29.687     c4.797-0.192,8.92,3.532,9.133,8.364c0.212,4.832-3.532,8.921-8.365,9.133c-8.667,0.381-10.823,7.601-10.731,11.806     c0.13,5.878,4.092,12.16,14.827,12.16c9.47,0,16.632-3.863,20.71-11.173c5.41-9.694,4.677-23.78-1.783-34.253     c-4.15-6.727-12.252-14.61-27.205-13.955c-10.324,0.449-20.358,5.201-27.533,13.039c-6.788,7.414-10.29,16.781-9.861,26.377     c0.217,4.831-3.526,8.924-8.357,9.139c-4.832,0.245-8.922-3.524-9.139-8.357c-0.639-14.273,4.489-28.118,14.439-38.986     c10.292-11.241,24.757-18.06,39.688-18.709c17.99-0.788,33.661,7.323,42.874,22.257c9.791,15.874,10.665,36.764,2.171,51.983     C578.494,330.081,565.707,337.238,549.742,337.238z"/>
		</g>
	</g>
</g>















</svg>
