<svg id="Capa_1" enable-background="new 0 0 512 512" viewBox="0 0 512 512" xmlns="http://www.w3.org/2000/svg"><g><g><path d="m132 502 20-45h130l20 45z" fill="#fff"/><path d="m437 462h-45v40h70v-15c0-13.807-11.193-25-25-25z" fill="#c68a65"/><circle cx="372" cy="82" fill="#f3c9a6" r="50"/><path d="m222 292c0 27.614 22.386 50 50 50h120v120h45l7.362-132.504c1.432-25.794-19.097-47.496-44.931-47.496h-177.047c-.255 3.324-.384 6.659-.384 10z" fill="#f3c9a6"/><path d="m282 457h-130c-38.66 0-70-31.34-70-70v-45h270v45c0 38.66-31.34 70-70 70z" fill="#fff"/><path d="m172 192h-70c-11.046 0-20 8.954-20 20v130h90z" fill="#fff"/><path d="m442 462h-50l-10-80h70z" fill="#6d92ac"/><circle cx="80" cy="80" fill="#fff" r="70"/><path d="m462 242h-43.823l-61.517-103.965c-9.549-16.137-26.907-26.035-45.657-26.035-23.204 0-43.715 15.08-50.636 37.227l-32.401 103.683c-2.958 9.465-4.826 19.224-5.581 29.09h109.615l10-60 37.016 51.65c3.756 5.241 9.808 8.35 16.256 8.35h66.728z" fill="#a0e5a5"/><path d="m482 242h-20v40h20c11.046 0 20-8.954 20-20s-8.954-20-20-20z" fill="#f3c9a6"/></g><g><path d="m160 80c0-44.112-35.888-80-80-80s-80 35.888-80 80 35.888 80 80 80 80-35.888 80-80zm-140 0c0-33.084 26.916-60 60-60s60 26.916 60 60-26.916 60-60 60-60-26.916-60-60z"/><path d="m104.749 104.749c3.906-3.905 3.906-10.237 0-14.143l-14.749-14.748v-25.858c0-5.523-4.477-10-10-10s-10 4.477-10 10v30c0 2.652 1.054 5.196 2.929 7.071l17.678 17.678c3.905 3.905 10.237 3.905 14.142 0z"/><circle cx="217" cy="502" r="10"/><path d="m482 232h-58.121l-53.264-90.016c.46.01.922.016 1.385.016 33.084 0 60-26.916 60-60s-26.916-60-60-60-60 26.916-60 60c0 7.07 1.229 13.858 3.485 20.162-1.486-.107-2.981-.162-4.482-.162-27.727 0-51.912 17.78-60.182 44.244l-32.4 103.683c-3.173 10.152-5.194 20.686-6.008 31.308-.274 3.575-.413 7.196-.413 10.765 0 15.353 5.796 29.377 15.315 40h-45.315v-130h10c5.522 0 10-4.477 10-10s-4.478-10-10-10h-90c-16.542 0-30 13.458-30 30v175c0 39.064 28.144 71.678 65.22 78.631l-14.359 32.307c-2.938 6.614 1.902 14.062 9.139 14.062h40c5.523 0 10-4.477 10-10s-4.477-10-10-10h-24.612l11.111-25h117.003l11.111 25h-24.613c-5.523 0-10 4.477-10 10s4.477 10 10 10h40c7.237 0 12.077-7.448 9.138-14.061l-14.359-32.307c37.077-6.954 65.221-39.568 65.221-78.632v-35h20v20c-6.015 0-10.669 5.272-9.923 11.24l9.923 79.385v39.375c0 5.523 4.478 10 10 10h70c5.522 0 10-4.477 10-10v-15c0-13.596-7.793-25.406-19.147-31.199l9.07-72.561c.745-5.964-3.9-11.232-9.908-11.24l2.331-41.949c.778-13.997-3.635-27.37-12.483-38.051h40.137c16.542 0 30-13.458 30-30s-13.458-30-30-30zm-110-190c22.056 0 40 17.944 40 40s-17.944 40-40 40-40-17.944-40-40 17.944-40 40-40zm-280 170c0-5.514 4.486-10 10-10h60v130h-70zm250 175c0 33.084-26.916 60-60 60h-130c-33.084 0-60-26.916-60-60v-35h250zm50-55h-120c-22.056 0-40-17.944-40-40h167.431c9.718 0 18.748 3.888 25.427 10.948 6.678 7.06 10.059 16.291 9.52 25.994l-2.393 43.058h-29.985v-30c0-5.523-4.477-10-10-10zm-48.195-60 4.099-24.595 17.626 24.595zm49.523 120h47.344l-7.5 60h-32.344zm58.672 100h-50v-20h35c8.271 0 15 6.729 15 15zm0-220h-56.728c-3.216 0-6.255-1.561-8.129-4.175l-37.015-51.65c-5.185-7.235-16.529-4.599-17.992 4.181l-8.608 51.644h-89.861c.913-5.452 2.197-10.839 3.844-16.107l32.4-103.684c5.647-18.069 22.16-30.209 41.092-30.209 15.143 0 29.34 8.096 37.05 21.127l61.518 103.965c1.8 3.042 5.072 4.907 8.606 4.907h33.823zm30 0h-10v-20h10c5.514 0 10 4.486 10 10s-4.486 10-10 10z"/></g></g><g/><g/><g/><g/><g/><g/><g/><g/><g/><g/><g/><g/><g/><g/><g/></svg>