<svg id="Capa_1" enable-background="new 0 0 512 512" height="512" viewBox="0 0 512 512" width="512" xmlns="http://www.w3.org/2000/svg"><g><g><path d="m14.971 422.369c-4.269-23.009-5.853-46.434-4.648-69.804 1.626-31.538 7.172-73.299 23.835-102.562 14.632-25.692 25.76-50.801 34.071-75.004 21.664-63.086 22.034-120.009 17.57-164.999h340.333c-4.464 44.99-4.094 101.913 17.569 164.999 8.311 24.202 19.439 49.312 34.071 75.004 16.663 29.263 22.209 71.024 23.835 102.562 1.205 23.37-.379 46.795-4.648 69.804l-14.772 79.631h-201.197l-10.01-95h-30.029l-10.01 95h-201.197z" fill="#ffd0c7"/><path d="m462.798 221.44-191.817 185.56h-30.029l-191.819-185.56c7.587-15.78 13.894-31.29 19.099-46.44h375.468c5.205 15.15 11.511 30.66 19.098 46.44z" fill="#9de3d1"/><ellipse cx="255.966" cy="275" fill="#ff9eb1" rx="60.008" ry="60"/><ellipse cx="255.966" cy="275" fill="#ff7b79" rx="20.003" ry="20"/></g><g><path d="m511.601 352.051c-.59-11.421-1.6-22.49-3-32.91-.67-4.95-5.85-9.288-10.576-8.625-2.64.359-5.666 1.765-7.286 3.885-1.631 2.13-2.321 4.76-1.96 7.4 1.32 9.869 2.28 20.39 2.84 31.279 1.164 22.032-.369 45.337-4.491 67.46l-13.252 71.45h-183.886l-8.551-81.197 178.514-172.69c.42.811.826 1.627 1.251 2.437 1.73 3.311 5.121 5.36 8.861 5.36 1.601 0 3.211-.4 4.641-1.15 2.36-1.239 4.1-3.33 4.9-5.88.79-2.55.551-5.26-.699-7.62-10.202-19.449-18.863-39.46-25.744-59.5-12.982-37.81-19.293-76.26-19.302-117.55 0-14.01.73-28.149 2.22-43.22.28-2.8-.65-5.61-2.54-7.7-1.891-2.09-4.591-3.28-7.412-3.28h-340.327c-2.82 0-5.521 1.19-7.421 3.28-1.89 2.09-2.81 4.9-2.531 7.7 1.49 15.05 2.21 29.18 2.21 43.22 0 41.3-6.31 79.75-19.293 117.55-8.511 24.78-19.713 49.44-33.304 73.301-26.581 50.464-30.451 121.246-20.322 179.139l14.772 79.63c.88 4.74 5.01 8.18 9.831 8.18h201.198c5.131 0 9.411-3.85 9.951-8.96l9.061-86.04h12.022l9.072 86.04c.529 5.11 4.81 8.96 9.941 8.96h201.198c4.821 0 8.951-3.439 9.831-8.18l14.773-79.63c4.377-23.622 6.053-47.973 4.81-72.139zm-417.918-238.91c2.911-19.12 4.391-38.95 4.38-58.94 0-11.08-.45-22.58-1.34-34.2h318.484c-.89 11.61-1.35 23.11-1.35 34.2 0 19.99 1.47 39.82 4.38 58.94 2.663 17.485 6.616 34.869 11.749 51.856h-79.721c-.472-2.315-1.752-4.474-3.787-6l-11.748-8.81 13.557-16.943c3.451-4.312 2.751-10.605-1.562-14.056s-10.608-2.75-14.058 1.562l-20.003 25c-1.691 2.113-2.453 4.821-2.112 7.507.341 2.685 1.755 5.116 3.92 6.74l6.668 5h-130.35l6.668-5c2.165-1.624 3.58-4.056 3.921-6.74.341-2.686-.421-5.394-2.112-7.507l-20.003-25c-3.451-4.312-9.744-5.012-14.058-1.562-4.313 3.45-5.012 9.743-1.562 14.056l13.557 16.943-11.748 8.81c-2.035 1.526-3.315 3.685-3.787 6h-79.721c5.132-16.985 9.082-34.364 11.738-51.856zm128.258 378.849h-183.875l-13.262-71.45c-9.924-58.317-4.795-121.436 18.043-165.59 3.175-5.571 6.218-11.188 9.141-16.838l178.505 172.682zm44.993-94.993h-21.937l-183.774-177.778c5.219-11.325 9.921-22.753 14.079-34.222h96.721l11.296 15.812c1.952 2.732 5.026 4.188 8.147 4.188 2.012 0 4.043-.605 5.805-1.863 4.495-3.211 5.536-9.456 2.325-13.95l-2.992-4.188h118.724l-2.992 4.188c-3.21 4.494-2.169 10.739 2.326 13.95 1.762 1.258 3.793 1.863 5.805 1.863 3.121 0 6.195-1.456 8.148-4.188l11.296-15.812h96.722c4.155 11.464 8.865 22.899 14.081 34.218z"/><circle cx="255.966" cy="90" r="10.001"/><path d="m255.966 205c-38.603 0-70.01 31.402-70.01 70s31.406 70 70.01 70c38.603 0 70.01-31.402 70.01-70s-31.407-70-70.01-70zm0 120c-27.574 0-50.007-22.43-50.007-50s22.433-50 50.007-50 50.007 22.43 50.007 50-22.433 50-50.007 50z"/><path d="m255.966 245c-16.544 0-30.004 13.458-30.004 30s13.46 30 30.004 30 30.004-13.458 30.004-30-13.46-30-30.004-30zm0 40c-5.515 0-10.001-4.486-10.001-10s4.486-10 10.001-10c5.514 0 10.001 4.486 10.001 10s-4.487 10-10.001 10z"/><circle cx="489.158" cy="276.538" r="10.001"/></g></g></svg>