<svg id="Layer_1" enable-background="new 0 0 512 512" viewBox="0 0 512 512" xmlns="http://www.w3.org/2000/svg"><g><g><path clip-rule="evenodd" d="m283.559 343.067h-233.255v54.435c0 29.946 24.489 54.435 54.435 54.435h124.386c29.946 0 54.435-24.489 54.435-54.435v-54.435z" fill="#e6f3ff" fill-rule="evenodd"/></g><g><path clip-rule="evenodd" d="m128.256 190.821h-61.807c-8.887 0-16.145 7.287-16.145 16.173v136.073h94.096v-136.073c0-8.886-7.258-16.173-16.144-16.173z" fill="#e6f3ff" fill-rule="evenodd"/></g><g><path clip-rule="evenodd" d="m92.08 450.451v56.549h164.79l-14.916-56.607c-4.115 1-8.43 1.543-12.83 1.543h-124.385c-4.343.001-8.601-.514-12.659-1.485z" fill="#b9d6ff" fill-rule="evenodd"/></g><g><path clip-rule="evenodd" d="m185.977 280.631c6.058-173.734 133.815-208.424 133.815-147.302v147.302z" fill="#08a9f1" fill-rule="evenodd"/></g><g><path clip-rule="evenodd" d="m364.825 280.631h-25.003-153.845c-.143 4.201-.228 8.487-.228 12.859 0 27.317 22.259 49.577 49.577 49.577h95.068v95.925h68.894v-123.928c-.001-18.945-15.517-34.433-34.463-34.433z" fill="#f7c5b8" fill-rule="evenodd"/></g><g><path clip-rule="evenodd" d="m272.015 256.743c0-26.517 0-53.035 0-79.552h47.777v55.664h95.639c13.144 0 23.889 10.744 23.889 23.888 0 13.144-10.745 23.888-23.889 23.888h-119.528c-13.144 0-23.888-10.744-23.888-23.888z" fill="#f7c5b8" fill-rule="evenodd"/></g><g><path clip-rule="evenodd" d="m352.138 5c-33.861 0-61.321 27.432-61.321 61.293s27.461 61.321 61.321 61.321c33.861 0 61.321-27.46 61.321-61.321.001-33.861-27.46-61.293-61.321-61.293z" fill="#f7c5b8" fill-rule="evenodd"/></g><g><path clip-rule="evenodd" d="m414.688 410.132c-35.918 5.201-68.264-1.029-97.24-18.002-9.087 12.487-12.487 34.004.114 59.578 10.259 20.888-23.603 34.575-21.631 55.292h123.643c3.829-21.688-22.203-34.976-22.546-56.035 11.488-13.602 19.089-27.232 17.66-40.833z" fill="#788f9b" fill-rule="evenodd"/></g></g><path d="m415.365 226.095h-87.703v-18.643-29.48-43.427c0-1.206-.049-2.386-.137-3.543 7.788 3.132 16.279 4.873 25.174 4.873 37.331 0 67.702-30.372 67.702-67.702 0-37.315-30.372-67.673-67.702-67.673s-67.701 30.358-67.701 67.673c0 11.449 2.867 22.237 7.905 31.701-22.995.2-49.592 16.875-69.82 43.798-17.759 23.637-39.441 66.5-41.88 136.472v.005c-.155 4.558-.231 8.801-.231 12.969 0 16.758 7.4 31.813 19.092 42.097h-46.053v-127.763c0-12.667-10.306-22.973-22.973-22.973h-61.196c-12.667 0-22.973 10.306-22.973 22.973v134.752 16.777 37.118c0 26.744 17.34 49.498 41.362 57.654v50.759c0 3.86 3.129 6.988 6.988 6.988h163.156c2.168 0 4.212-1.006 5.535-2.723 1.323-1.716 1.775-3.95 1.222-6.046l-13.057-49.552c23.164-8.619 39.712-30.952 39.712-57.081v-46.907h32.393v36.871c-.768-.43-1.533-.866-2.295-1.312-3.1-1.817-7.07-.984-9.182 1.917-12.366 16.992-12.554 41.735-.509 66.181 3.232 6.581-.166 11.847-8.689 22.296-6.829 8.372-14.57 17.862-13.411 30.028.341 3.587 3.353 6.327 6.956 6.327h122.417c3.391 0 6.292-2.435 6.881-5.774 2.532-14.344-5.208-25.323-12.037-35.009-4.619-6.551-9.01-12.777-9.983-19.403 13.166-16.201 18.655-30.059 17.25-43.441-.198-1.89-1.158-3.618-2.658-4.786-1.501-1.167-3.413-1.672-5.292-1.401-2.434.353-4.853.643-7.259.884v-88.093c0-10.379-3.88-19.864-10.255-27.103h19.252c16.895 0 30.64-13.745 30.64-30.64s-13.746-30.638-30.641-30.638zm-62.666-211.618c29.625 0 53.726 24.088 53.726 53.696 0 29.625-24.101 53.726-53.726 53.726-12.889 0-24.728-4.565-33.996-12.159-1.07-1.126-2.228-2.163-3.467-3.11-10.021-9.765-16.261-23.392-16.261-38.456-.001-29.609 24.1-53.697 53.724-53.697zm-103.392 483.046h-147.1v-40.805c1.827.166 3.674.264 5.545.264h123.152c2.572 0 5.102-.179 7.591-.49zm28.504-101.424c0 25.865-21.042 46.907-46.907 46.907h-123.151c-25.865 0-46.907-21.042-46.907-46.907v-37.119-16.777-134.751c0-4.961 4.035-8.996 8.996-8.996h61.194c4.961 0 8.996 4.035 8.996 8.996v127.763h-59.95c-3.86 0-6.988 3.129-6.988 6.988s3.129 6.988 6.988 6.988h156.961 40.767v46.908zm114.62 47.67c-12.15 8.118-26.497 10.896-43.826 8.471-3.828-.544-7.355 2.128-7.89 5.95-.536 3.823 2.129 7.355 5.95 7.89 4.748.666 9.32.999 13.73.999 11.66 0 22.184-2.338 31.78-7.047 2.455 7.01 6.757 13.128 10.713 18.738 4.637 6.575 8.786 12.459 9.753 18.753h-107.547c1.787-4.406 5.444-8.888 9.241-13.545.601-.736 1.213-1.488 1.828-2.252 12.684 6.09 28.76 7.72 37.985 8.125.104.004.208.007.311.007 3.718 0 6.812-2.931 6.977-6.682.169-3.856-2.82-7.118-6.676-7.288-12.16-.533-22.882-2.628-30.608-5.885 3.479-6.843 4.883-14.57.583-23.324-11.091-22.508-7.58-38.252-3.8-46.47 2.21 1.164 4.446 2.248 6.693 3.293.414.245.854.448 1.317.604 21.805 9.896 45.314 14.25 70.215 13.003.074.002.147.011.221.011.306 0 .605-.026.901-.064 2.365-.135 4.737-.301 7.126-.536-1.376 7.946-6.272 16.801-14.977 27.249zm-.039-129.291v88.871c-19.098.183-37.235-3.314-54.234-10.453v-50.692c0-3.86-3.129-6.988-6.988-6.988h-46.37-47.756c-23.213 0-42.097-18.884-42.097-42.097 0-1.889.016-3.795.049-5.743h102.026 68.238c14.962-.001 27.132 12.157 27.132 27.102zm22.973-41.079h-50.105-68.238c-9.189 0-16.664-7.475-16.664-16.663v-78.764c0-3.86-3.129-6.988-6.988-6.988s-6.988 3.129-6.988 6.988v78.764c0 6.142 1.824 11.863 4.947 16.663h-75.823c6.363-113.734 66.687-160.141 98.439-159.557 5.053.088 9.187 1.317 12.357 3.566.865.815 1.749 1.61 2.655 2.379 3.094 3.491 4.728 8.45 4.728 14.758v43.427 29.48 25.632c0 3.86 3.129 6.988 6.988 6.988h94.692c9.188 0 16.663 7.475 16.663 16.664 0 9.188-7.475 16.663-16.663 16.663zm-222.024-170.989c-2.862-2.59-3.082-7.008-.492-9.87 11.947-13.203 26.245-23.42 42.495-30.367 3.551-1.517 7.656.131 9.172 3.678 1.518 3.549-.13 7.655-3.678 9.172-14.382 6.149-27.041 15.197-37.626 26.895-1.379 1.523-3.278 2.299-5.183 2.299-1.673 0-3.35-.596-4.688-1.807zm57.349-17.631c3.632-1.325 7.637.545 8.959 4.17 1.323 3.626-.544 7.637-4.17 8.959-14.471 5.28-27.122 14.544-36.586 26.793-1.376 1.782-3.444 2.715-5.534 2.715-1.492 0-2.995-.476-4.268-1.459-3.054-2.36-3.616-6.748-1.256-9.802 11.08-14.34 25.9-25.19 42.855-31.376zm210.706 67.691-43.002 22.633c-1.711.9-3.717 1.05-5.545.418-1.827-.635-3.309-1.996-4.095-3.763l-7.294-16.402-36.681 19.717c-1.053.566-2.186.834-3.303.834-2.489 0-4.9-1.334-6.161-3.68-1.828-3.4-.553-7.637 2.846-9.464l43.314-23.284c1.713-.921 3.733-1.087 5.57-.457 1.839.63 3.333 1.996 4.124 3.773l7.322 16.462 36.396-19.156c3.412-1.796 7.64-.485 9.439 2.93 1.797 3.416.485 7.641-2.93 9.439zm-105.438 47.071 25.717-13.806c1.712-.919 3.731-1.085 5.568-.454 1.839.63 3.332 1.996 4.122 3.772l3.105 6.983 18.911-9.959c3.417-1.795 7.641-.488 9.44 2.927 1.798 3.415.487 7.641-2.927 9.44l-25.519 13.438c-1.712.902-3.72 1.054-5.546.419-1.827-.634-3.31-1.996-4.096-3.763l-3.081-6.928-19.085 10.246c-1.052.564-2.183.832-3.299.832-2.491 0-4.902-1.335-6.163-3.684-1.824-3.401-.547-7.638 2.853-9.463z"/></svg>