<svg height="512" viewBox="0 0 64 64" width="512" xmlns="http://www.w3.org/2000/svg"><g id="Layer_4" data-name="Layer 4"><path d="m63 22-24 11-2.663-1.9a30.875 30.875 0 0 0 -9.462-4.562 7.529 7.529 0 0 1 -3.254-1.915 2.12 2.12 0 0 0 -1.5-.621 2.122 2.122 0 0 0 -2.121 2.119 5.641 5.641 0 0 0 1.127 3.379 11.134 11.134 0 0 0 4.773 3.659l1.3.521a1.272 1.272 0 0 1 .8 1.181 1.272 1.272 0 0 1 -1.132 1.265l-7.868.874h-13a2 2 0 0 0 -2 2 2 2 0 0 0 2 2h11.884a1.116 1.116 0 0 1 1.116 1.116 1.115 1.115 0 0 1 -.86 1.086l-14.808 3.485a1.728 1.728 0 0 0 -1.332 1.682 2.631 2.631 0 0 0 2.631 2.631 2.635 2.635 0 0 0 .723-.1l12.911-3.69a5.47 5.47 0 0 1 1.5-.21 1.236 1.236 0 0 1 1.235 1.236 1.239 1.239 0 0 1 -.683 1.106l-12.292 6.146a1.854 1.854 0 0 0 -1.025 1.658 1.854 1.854 0 0 0 1.854 1.854 4.552 4.552 0 0 0 2.155-.543l11.336-6.105a2.942 2.942 0 0 1 1.395-.352 1.259 1.259 0 0 1 1.26 1.258 1.257 1.257 0 0 1 -.647 1.1l-7.381 4.1a1.889 1.889 0 0 0 -.972 1.653 1.889 1.889 0 0 0 1.889 1.889 4.014 4.014 0 0 0 2.064-.572l5.3-3.181a54.523 54.523 0 0 1 7.8-3.869 43.215 43.215 0 0 0 10.947-6.378l19-4z" fill="#e5c1be"/><path d="m36.337 31.1a30.875 30.875 0 0 0 -9.462-4.562 7.529 7.529 0 0 1 -3.254-1.915 2.121 2.121 0 0 0 -3.621 1.498 5.641 5.641 0 0 0 1.127 3.379 11.134 11.134 0 0 0 4.773 3.659l1.3.521a1.272 1.272 0 0 1 -.332 2.446l-7.868.874h-13a2 2 0 0 0 0 4h11.884a1.116 1.116 0 0 1 .256 2.2l-14.808 3.487a1.728 1.728 0 0 0 -1.332 1.682 2.632 2.632 0 0 0 3.354 2.531l12.911-3.69a5.47 5.47 0 0 1 1.5-.21 1.236 1.236 0 0 1 1.235 1.236 1.239 1.239 0 0 1 -.683 1.106l-12.292 6.146a1.854 1.854 0 0 0 .829 3.512 4.552 4.552 0 0 0 2.155-.543l11.336-6.105a2.942 2.942 0 0 1 1.395-.352 1.259 1.259 0 0 1 .612 2.36l-7.381 4.1a1.887 1.887 0 0 0 -.668.639 1.866 1.866 0 0 0 1.586.9 4.014 4.014 0 0 0 2.064-.572l5.3-3.181a54.523 54.523 0 0 1 7.8-3.869 43.215 43.215 0 0 0 10.947-6.377l19-4v-20l-24 11z" fill="#fde2d7"/><path d="m53 40a2 2 0 1 1 2-2 2 2 0 0 1 -2 2z" fill="#dd4334"/><path d="m36 48a2 2 0 1 1 2-2 2 2 0 0 1 -2 2z" fill="#dd4334"/><g fill="#b13b27"><path d="m58 36h2v2h-2z"/><path d="m46 35h2v2h-2z"/><path d="m35 38h2v2h-2z"/><path d="m26 41h2v2h-2z"/></g><path d="m54.879 33a3.124 3.124 0 0 0 3.121-3.121v-5.587l-2 .916v4.671a1.121 1.121 0 0 1 -1.914.793 7.065 7.065 0 0 1 -1.957-3.689l-1.853.849a9.056 9.056 0 0 0 2.4 4.254 3.1 3.1 0 0 0 2.203.914z" fill="#c49c99"/><path d="m43 18v3.674a14.079 14.079 0 0 0 1.488 6.3 1.854 1.854 0 0 0 1.658 1.026 1.854 1.854 0 0 0 1.854-1.854v-10.146" fill="#e0b2ac"/><path d="m18 1a96.188 96.188 0 0 0 16.6 6.457l2.971.849a48.8 48.8 0 0 1 17.086 8.82 6.241 6.241 0 0 1 2.343 4.874v7.879a2.122 2.122 0 0 1 -2.121 2.121 2.12 2.12 0 0 1 -1.5-.621 8.122 8.122 0 0 1 -2.379-5.743v-3.636l-5-3-1.257.419a30.811 30.811 0 0 1 -9.743 1.581l3.45 2.07a3.192 3.192 0 0 1 1.55 2.738 3.192 3.192 0 0 1 -3.192 3.192 5.423 5.423 0 0 1 -3.254-1.085l-4.131-3.1a16.41 16.41 0 0 0 -5.335-2.649 16.414 16.414 0 0 1 -7.094-4.174l-4.994-4.992-11-7v-5z" fill="#e5c1be"/><path d="m53.657 19.126a48.8 48.8 0 0 0 -17.086-8.82l-2.971-.849a96.188 96.188 0 0 1 -16.6-6.457h-16v3l11 7 4.994 4.995a16.414 16.414 0 0 0 7.094 4.174 16.41 16.41 0 0 1 5.335 2.649l4.131 3.1a5.423 5.423 0 0 0 3.254 1.082 3.192 3.192 0 0 0 3.192-3.192 3.191 3.191 0 0 0 -1.55-2.737l-3.45-2.071a30.811 30.811 0 0 0 9.743-1.581l1.257-.419 5 3v3.636a8.122 8.122 0 0 0 2.379 5.743 2.107 2.107 0 0 0 2.621.294v-7.673a6.241 6.241 0 0 0 -2.343-4.874z" fill="#fde2d7"/><path d="m34.553 21.9a20.054 20.054 0 0 1 -7.036-5.873l-.317-.427 1.6-1.2.317.422a18.038 18.038 0 0 0 6.33 5.283z" fill="#e5c1be"/><circle cx="53" cy="38" r="2"/><circle cx="36" cy="46" r="2"/><path d="m58 36h2v2h-2z"/><path d="m46 35h2v2h-2z"/><path d="m35 38h2v2h-2z"/><path d="m26 41h2v2h-2z"/><path d="m62.583 21.091-4.583 2.101v-1.192a7.208 7.208 0 0 0 -2.718-5.655 49.558 49.558 0 0 0 -17.436-9l-2.971-.845a95.527 95.527 0 0 1 -16.428-6.395l-.894 1.795a97.463 97.463 0 0 0 16.772 6.518l2.971.85a47.567 47.567 0 0 1 16.737 8.639 5.216 5.216 0 0 1 1.967 4.093v7.879a1.121 1.121 0 0 1 -1.914.793 7.076 7.076 0 0 1 -2.086-5.036v-3.636a1 1 0 0 0 -.485-.857l-5-3a1 1 0 0 0 -.831-.092l-1.257.419a29.748 29.748 0 0 1 -9.18 1.52 18.031 18.031 0 0 1 -6.13-5.168l-.317-.422-1.6 1.2.317.422a20.046 20.046 0 0 0 6.983 5.844l3.436 2.061a2.193 2.193 0 0 1 -1.128 4.073 4.454 4.454 0 0 1 -2.654-.884l-4.131-3.1a17.307 17.307 0 0 0 -5.661-2.811 15.452 15.452 0 0 1 -6.661-3.92l-4.994-4.995a.937.937 0 0 0 -.17-.137l-11-7-1.074 1.691 10.908 6.94 4.916 4.916a17.448 17.448 0 0 0 7.526 4.428 15.372 15.372 0 0 1 5.01 2.488l1.326.994c-.982-.389-1.978-.745-3-1.037a6.541 6.541 0 0 1 -2.821-1.66 3.121 3.121 0 0 0 -5.328 2.208 6.683 6.683 0 0 0 1.327 3.979 12.124 12.124 0 0 0 5.2 3.984l1.3.521a.273.273 0 0 1 -.071.524l-7.811.871h-12.945a3 3 0 0 0 0 6h11.884a.116.116 0 0 1 .116.116.118.118 0 0 1 -.089.113l-14.811 3.484a2.718 2.718 0 0 0 -2.1 2.656 3.631 3.631 0 0 0 4.629 3.491l12.911-3.689a4.493 4.493 0 0 1 1.224-.171.236.236 0 0 1 .106.447l-12.293 6.146a2.854 2.854 0 0 0 1.277 5.407 5.554 5.554 0 0 0 2.629-.663l11.336-6.105a1.946 1.946 0 0 1 .921-.232.259.259 0 0 1 .126.486l-7.38 4.1a2.889 2.889 0 0 0 1.403 5.414 5.02 5.02 0 0 0 2.579-.714l5.3-3.182a53.662 53.662 0 0 1 7.656-3.8 44.171 44.171 0 0 0 11.013-6.374l18.769-3.951-.412-1.958-17.294 3.641.118-.354a7.449 7.449 0 0 0 -.87-6.488l-.916-1.375-1.664 1.11.916 1.374a5.447 5.447 0 0 1 .636 4.747l-.569 1.71a42.171 42.171 0 0 1 -10.468 6.063 55.571 55.571 0 0 0 -7.942 3.941l-5.3 3.181a3.011 3.011 0 0 1 -1.55.429.889.889 0 0 1 -.431-1.666l7.379-4.1a2.259 2.259 0 0 0 -1.099-4.234 3.954 3.954 0 0 0 -1.869.471l-11.337 6.105a3.542 3.542 0 0 1 -1.68.424.854.854 0 0 1 -.382-1.618l12.293-6.146a2.236 2.236 0 0 0 -1-4.236 6.413 6.413 0 0 0 -1.773.249l-12.911 3.688a1.66 1.66 0 0 1 -2.081-1.568.726.726 0 0 1 .561-.709l14.808-3.484a2.116 2.116 0 0 0 -.485-4.176h-11.884a1 1 0 0 1 0-2h13a1 1 0 0 0 .11-.006l7.869-.874a2.272 2.272 0 0 0 .593-4.368l-1.3-.521a10.127 10.127 0 0 1 -4.345-3.331 4.664 4.664 0 0 1 -.927-2.779 1.121 1.121 0 0 1 1.914-.793 8.534 8.534 0 0 0 3.686 2.172 29.791 29.791 0 0 1 9.156 4.415l2.663 1.9a1 1 0 0 0 1 .095l11.152-5.11a9.079 9.079 0 0 0 2.1 3.289 3.121 3.121 0 0 0 5.329-2.21v-4.487l5.417-2.483zm-17.523-.723.82-.274 1.12.672v6.38a.854.854 0 0 1 -1.618.382 13.159 13.159 0 0 1 -1.382-5.854v-.985c.354-.104.709-.204 1.06-.321zm-5.95 11.482-2.192-1.565c-.157-.113-.324-.206-.483-.315.125.007.248.03.373.03a4.193 4.193 0 0 0 2.157-7.788l-.643-.385a31.6 31.6 0 0 0 3.678-.613v.46a15.178 15.178 0 0 0 1.593 6.749 2.834 2.834 0 0 0 .847.984zm9.872-4.525c0-.06.018-.118.018-.179v-5.18l1 .6v3.07a9.278 9.278 0 0 0 .085 1.183z"/></g></svg>