<svg id="Layer_1" enable-background="new 0 0 512 512" height="512" viewBox="0 0 512 512" width="512" xmlns="http://www.w3.org/2000/svg"><g><g><g><ellipse clip-rule="evenodd" cx="133.978" cy="378.022" fill="#efc7a4" fill-rule="evenodd" rx="117.978" ry="117.977" transform="matrix(.99 -.143 .143 .99 -52.515 22.957)"/></g><g><ellipse clip-rule="evenodd" cx="378.022" cy="133.978" fill="#fdcd56" fill-rule="evenodd" rx="117.978" ry="117.977" transform="matrix(.985 -.171 .171 .985 -17.32 66.484)"/></g></g><path clip-rule="evenodd" d="m121.027 224.551v-54.071c0-27.268 22.187-49.446 49.46-49.446h37.169l-17.961-17.97c-2.729-2.734-2.729-7.162 0-9.9 2.743-2.729 7.171-2.729 9.9 0l29.913 29.918c1.318 1.313 2.047 3.091 2.047 4.95s-.739 3.642-2.047 4.95l-29.951 29.908c-2.743 2.729-7.171 2.729-9.9 0-2.734-2.739-2.734-7.166 0-9.9l17.989-17.956h-37.16c-19.551 0-35.461 15.9-35.461 35.447v54.071c0 3.873-3.129 7.002-7.002 7.002-3.857-.002-6.996-3.131-6.996-7.003zm269.96 62.898v54.071c0 27.268-22.191 49.46-49.46 49.46h-37.183l17.97 17.961c2.729 2.729 2.729 7.162 0 9.9-1.369 1.36-3.158 2.052-4.95 2.052-1.788 0-3.59-.692-4.951-2.052l-29.908-29.913c-1.318-1.318-2.061-3.096-2.061-4.955.009-1.849.743-3.633 2.061-4.95l29.951-29.913c2.739-2.729 7.171-2.729 9.9 0 2.729 2.738 2.729 7.171-.014 9.9l-17.975 17.971h37.16c19.547 0 35.456-15.91 35.456-35.461v-54.071c0-3.868 3.134-6.997 7.002-6.997 3.859 0 7.002 3.13 7.002 6.997zm30.789-108.584c-8.931 15.966-25.288 25.499-43.747 25.499-18.46 0-34.821-9.533-43.752-25.499-1.892-3.374-.682-7.633 2.687-9.524 3.383-1.887 7.642-.678 9.533 2.691 6.418 11.477 18.211 18.328 31.532 18.328 13.317 0 25.109-6.851 31.536-18.328 1.882-3.369 6.141-4.579 9.519-2.691 3.383 1.891 4.583 6.15 2.692 9.524zm36.75-47.832c0 3.859-3.153 6.997-7.011 6.997-3.859 0-6.964-3.139-6.964-6.997 0-7.543-6.155-13.669-13.693-13.669-7.543 0-13.669 6.126-13.669 13.669 0 3.859-3.134 6.997-7.002 6.997s-7.002-3.139-7.002-6.997c0-15.26 12.413-27.673 27.673-27.673 15.245 0 27.668 12.413 27.668 27.673zm-133.331-13.669c-7.529 0-13.669 6.126-13.669 13.669 0 3.859-3.129 6.997-6.997 6.997-3.863 0-7.002-3.139-7.002-6.997 0-15.26 12.418-27.673 27.668-27.673 15.26 0 27.673 12.413 27.673 27.673 0 3.859-3.134 6.997-7.002 6.997-3.859 0-7.002-3.139-7.002-6.997 0-7.543-6.126-13.669-13.669-13.669zm52.833 127.599c61.195 0 110.989-49.789 110.989-110.98 0-61.19-49.794-110.984-110.989-110.984-61.19 0-110.984 49.794-110.984 110.984 0 61.191 49.794 110.98 110.984 110.98zm0-235.963c-68.912 0-124.983 56.071-124.983 124.983 0 68.908 56.071 124.979 124.983 124.979 68.922 0 124.964-56.071 124.964-124.979.001-68.912-56.042-124.983-124.964-124.983zm-200.29 429.162c1.887 3.379.677 7.637-2.691 9.529-1.078.602-2.259.889-3.411.889-2.456 0-4.837-1.289-6.122-3.581-6.418-11.477-18.206-18.328-31.527-18.328s-25.109 6.851-31.541 18.328c-1.877 3.374-6.141 4.583-9.519 2.691-3.379-1.892-4.579-6.15-2.692-9.529 8.931-15.961 25.292-25.49 43.752-25.49 18.459.002 34.82 9.53 43.751 25.491zm-96.581-56.089c-15.26 0-27.673-12.408-27.673-27.668 0-3.863 3.134-7.002 7.002-7.002s7.001 3.138 7.001 7.002c0 7.538 6.127 13.669 13.67 13.669 7.538 0 13.67-6.131 13.67-13.669 0-3.863 3.129-7.002 6.997-7.002 3.873 0 7.002 3.138 7.002 7.002 0 15.259-12.409 27.668-27.669 27.668zm126.329-34.671c3.858 0 7.002 3.138 7.002 7.002 0 15.26-12.423 27.668-27.673 27.668-15.26 0-27.669-12.408-27.669-27.668 0-3.863 3.129-7.002 6.997-7.002 3.863 0 7.002 3.138 7.002 7.002 0 7.538 6.131 13.669 13.67 13.669 7.529 0 13.674-6.131 13.674-13.669 0-3.863 3.125-7.002 6.997-7.002zm-73.5 141.599c61.191 0 110.98-49.78 110.98-110.98 0-61.191-49.789-110.97-110.98-110.97-61.2 0-110.98 49.78-110.98 110.97 0 61.2 49.78 110.98 110.98 110.98zm0-235.949c68.912 0 124.979 56.061 124.979 124.969 0 68.922-56.066 124.979-124.979 124.979-68.922 0-124.979-56.057-124.979-124.979 0-68.908 56.057-124.969 124.979-124.969z" fill-rule="evenodd"/></g></svg>