<svg id="Layer_1" enable-background="new 0 0 496 496" viewBox="0 0 496 496" xmlns="http://www.w3.org/2000/svg"><path d="m348.8 96.5c0-27.1 12.8-52.5 33.7-68.9-45.9 6.3-81.4 45.8-81.4 93.4 0 20.5 6.6 40.1 18.7 56.4l1.6-2.7c1.4-2.4 3.9-3.8 6.7-3.8 2.7 0 5.3 1.4 6.7 3.8l6.5 11 11 6.6c2.3 1.4 3.8 3.9 3.8 6.7 0 2.5-1.2 4.8-3.2 6.3 13.1 6.6 27.5 10.1 42.5 10.1 30.5 0 58.8-14.9 76.4-39-11.1 5-23.1 7.5-35.6 7.5-48.2-.1-87.4-39.3-87.4-87.4z" fill="#68b1ff"/><path d="m329 195.3-.9-1.5-.9 1.5c-.7 1.1-1.6 2-2.7 2.7l-1.5.9 1.5.9c1.1.7 2.1 1.6 2.7 2.7l.9 1.5.9-1.5c.7-1.1 1.6-2 2.7-2.7l1.5-.9-1.5-.9c-1.2-.7-2.1-1.6-2.7-2.7z" fill="#68b1ff"/><path d="m432 70.4.3-.2-.4-.2c-1.1-.7-2-1.6-2.7-2.7l-.2-.3-.2.4c-.7 1.1-1.6 2.1-2.7 2.7l-.3.2.4.2c1.1.7 2 1.6 2.7 2.7l.2.4.2-.4c.7-1.3 1.6-2.2 2.7-2.8z" fill="#2d527c"/><path d="m106.4 157.6h.2.3c1.3 0 6.2-.4 6.5-6.5.2-4.3-3.2-9.4-6.8-13.9-3.6 4.5-7 9.6-6.8 13.9.3 6.5 6 6.5 6.6 6.5z" fill="#68b1ff"/><path d="m68.6 375.2c5.3-1.6 11-3.2 17.1-5 2.8-4.7 6.3-8.9 9.3-12.4.8-1 1.6-1.9 2.3-2.8 1.5-1.8 3.7-2.9 6-2.9s4.6 1.1 6 2.9c.7.9 1.5 1.8 2.3 2.8.9 1 1.8 2.1 2.7 3.2 4.1-6.9 7-13.7 8.7-20.2-16.1-11.5-27.4-29.1-27.4-51.3 0-2.6 0-5.8 0-9.2-.1-19.5-.2-46.1 1.3-57.1.4-3.3 2.9-5.9 6.2-6.6 17.5-3.5 32.7-13.6 41.9-27.8 1.6-2.4 4.3-3.8 7.2-3.5s5.4 2.1 6.5 4.8c9 21.6 30.9 36.3 55.9 38.1 2.4-8 8.3-15 12.9-20.4.8-1 1.6-1.9 2.3-2.7 1.5-1.8 3.7-2.9 6-2.9 2.3 0 4.5 1.1 6 2.9.7.9 1.5 1.8 2.3 2.8 6.1 7.2 14.5 17.1 13.9 28.8-.4 9.5-5.6 16-12.2 19.2.1 10.2.1 21.3.1 29.1v4.5c0 19.6-9.6 37.3-24.9 49.5 1.6 7.4 4.8 15 9.8 23.1 8.2 2.6 15.9 5 22.8 7.1 6.7 2.1 12.9 4 18.7 5.9 3-14.6 5.9-29.9 8.5-43.3 11.7-61.9 2.1-115.4-27.1-150.6-20.9-25.2-50.3-39.1-82.9-39.1-14.5 0-28.6 3.1-41.8 9.2v.4c-.6 14.2-11.9 21.5-22.3 21.4-.1 0-.2 0-.3 0-2.5 0-5-.4-7.4-1.3-37 35.3-51.6 94.7-38.9 160 2.4 13.3 5.4 28.6 8.5 43.4z" fill="#68b1ff"/><path d="m235.5 242.6h.4c.6 0 6.3 0 6.6-6.5.2-4.2-3.2-9.4-6.8-13.9-3.6 4.5-6.9 9.6-6.8 13.8v.1c.3 6.4 5.5 6.6 6.6 6.5z" fill="#68b1ff"/><path d="m248.9 384.1c-7.7-2.4-16.4-5-25.7-8.1-1.7-.6-3.2-1.7-4.1-3.2-5.6-8.6-9.5-16.9-12-25.1-10.8 5.3-23.2 8.4-36.4 8.4-11.4 0-23.2-2.6-33.8-7.3-2.5 7.9-6.4 16-11.6 24.1-.5.8-1.2 1.5-2 2.1 1.5 3.6 2.5 7.5 2.3 11.6-.6 14.2-11.9 21.6-22.3 21.4-.1 0-.2 0-.4 0-10 0-20.7-7-21.9-20.3-54.9 15.9-63.1 22.1-65.3 81.6h309.3c-3.8-62.8-16.4-66.8-76.1-85.2zm-107.5 76.7c-.1 0-.2 0-.3 0-10.3 0-21.4-7.4-22-21.4-.5-11.7 7.9-21.7 14-28.9.8-.9 1.6-1.8 2.3-2.7 1.5-1.8 3.7-2.9 6-2.9s4.5 1.1 6 2.9c.7.8 1.5 1.8 2.3 2.7 6.1 7.2 14.5 17.2 14 28.9-.6 14.1-11.9 21.5-22.3 21.4zm88.7-20.2c-.1 0-.3 0-.4 0s-.3 0-.4 0c-10.3 0-21.3-7.4-21.9-21.4-.5-11.7 7.8-21.6 13.9-28.8.8-1 1.6-1.9 2.3-2.8 1.5-1.8 3.7-2.9 6-2.9 2.3 0 4.5 1.1 6 2.9.7.9 1.5 1.8 2.3 2.7 6.1 7.2 14.5 17.2 14 28.9-.5 14-11.5 21.4-21.8 21.4z" fill="#fff"/><path d="m98.2 379.8c0 .1-.1.2-.2.3-1 2-1.5 4-1.5 5.8.3 6.5 5.9 6.6 6.6 6.5h.4c.7 0 6.3 0 6.6-6.6.2-4.2-3.2-9.3-6.8-13.9-1.9 2.6-3.8 5.3-5.1 7.9z" fill="#68b1ff"/><path d="m214.7 243.9c-13.9-.8-27.2-4.8-39-11.8-10.6-6.3-19.3-14.7-25.6-24.7-10.1 10.9-23.5 19-38.4 23.1-.8 12.4-.7 35.3-.7 49.7v9.3c0 17.9 10 32 23.9 40.8.5.2.9.5 1.3.8 10.3 6.1 22.5 9.5 34.3 9.5 13.8 0 26.5-4.1 36.6-10.8.4-.4.9-.7 1.4-1 13.2-9.4 21.5-23.5 21.5-39.3v-4.5c0-7.4 0-17.7-.1-27.4-6.3-1.6-12.5-6.2-15.2-13.7zm-76.2 31.5c-6.7 0-13-3.6-16.7-9.5-2.3-3.6-1.2-8.4 2.5-10.7 3.6-2.3 8.4-1.2 10.7 2.5 1.2 1.9 2.6 2.3 3.6 2.3 1.6 0 3.2-1 4.2-2.7 2.3-3.6 7.1-4.7 10.7-2.4s4.7 7.1 2.4 10.7c-3.9 6.1-10.4 9.8-17.4 9.8zm45.5 57h-27.2c-4.3 0-7.8-3.5-7.8-7.8s3.5-7.8 7.8-7.8h27.2c4.3 0 7.8 3.5 7.8 7.8s-3.5 7.8-7.8 7.8zm35-66.9c-3.9 6.2-10.4 9.9-17.3 9.9 0 0 0 0-.1 0-6.7 0-13-3.6-16.7-9.5-2.3-3.6-1.2-8.4 2.5-10.7 3.6-2.3 8.4-1.2 10.7 2.5 1.2 1.9 2.6 2.3 3.6 2.3 1.6 0 3.2-1 4.2-2.7 2.3-3.6 7.1-4.7 10.7-2.4 3.6 2.2 4.7 7 2.4 10.6z" fill="#fff"/><path d="m134.6 438.7c.3 6.5 6 6.6 6.6 6.5h.4c.7 0 6.3 0 6.6-6.6.2-4.2-3.2-9.3-6.8-13.9-3.6 4.7-6.9 9.8-6.8 14z" fill="#68b1ff"/><path d="m222.9 418.5c.3 6.5 5.9 6.6 6.6 6.6h.2.2c1.1 0 6.3-.2 6.6-6.5.2-4.2-3.2-9.4-6.8-13.9-3.6 4.5-7 9.6-6.8 13.8z" fill="#68b1ff"/><g fill="#2d527c"><path d="m287 380.3c3.2-15.3 6.3-31.5 8.9-45.6 12.6-66.6 1.8-124.6-30.4-163.4-23.9-28.8-57.6-44.7-94.8-44.7-16 0-31.4 3.2-46 9.6-2.8-5.1-6.6-9.6-9.8-13.3-.8-1-1.6-1.9-2.3-2.7-1.5-1.8-3.7-2.9-6-2.9s-4.5 1.1-6 2.9c-.7.9-1.5 1.8-2.3 2.7-6.1 7.2-14.5 17.2-14 28.9.2 3.9 1.1 7.2 2.6 10.1-40 39.1-55.8 103.1-42.3 173 2.7 13.8 5.8 29.7 9.1 45.1-15.7 5.4-26.9 11.2-35.1 20.2-14.2 15.4-17.5 38.8-18.6 76.6-.1 4.3 3.3 7.9 7.5 8h.2 325.5.4c4.3-.2 7.6-3.8 7.4-8.1-1.9-41.4-7.5-62.1-20.7-76.3-8.2-8.8-19-14.7-33.3-20.1zm-180.4-243.1c3.6 4.5 7 9.7 6.8 13.9-.3 6.1-5.2 6.5-6.5 6.5-.1 0-.2 0-.3 0s-.1 0-.2 0c-.6 0-6.3 0-6.6-6.6-.2-4.2 3.2-9.3 6.8-13.8zm-7.8 34.7c2.4.9 5 1.3 7.4 1.3h.3c10.4.1 21.7-7.3 22.3-21.4 0-.1 0-.3 0-.4 13.3-6.1 27.3-9.2 41.8-9.2 32.5 0 62 13.9 82.9 39.1 29.2 35.2 38.8 88.7 27.1 150.6-2.5 13.4-5.4 28.7-8.5 43.3-5.8-1.9-12-3.8-18.7-5.9-6.9-2.1-14.6-4.5-22.8-7.1-4.9-8.1-8.2-15.7-9.8-23.1 15.3-12.2 24.9-29.9 24.9-49.5v-4.5c0-7.8 0-18.9-.1-29.1 6.6-3.2 11.8-9.6 12.2-19.2.5-11.7-7.8-21.6-13.9-28.8-.8-1-1.6-1.9-2.3-2.8-1.5-1.8-3.7-2.9-6-2.9-2.3 0-4.5 1.1-6 2.9-.7.9-1.5 1.8-2.3 2.7-4.6 5.4-10.5 12.4-12.9 20.4-24.9-1.8-46.9-16.6-55.9-38.1-1.1-2.7-3.6-4.5-6.5-4.8s-5.6 1.1-7.2 3.5c-9.2 14.1-24.4 24.2-41.9 27.8-3.2.7-5.7 3.3-6.2 6.6-1.5 10.9-1.3 37.6-1.3 57.1v9.2c0 22.1 11.3 39.7 27.4 51.3-1.6 6.5-4.5 13.3-8.7 20.2-.9-1.1-1.8-2.2-2.7-3.2-.8-1-1.6-1.9-2.3-2.8-1.5-1.8-3.7-2.9-6-2.9s-4.6 1.1-6 2.9c-.7.9-1.5 1.8-2.3 2.8-3 3.5-6.5 7.7-9.3 12.4-6.1 1.8-11.8 3.4-17.1 5-3.2-14.8-6.2-30-8.8-43.3-12.4-65.5 2.2-124.8 39.2-160.1zm130.1 64.1c-.1-4.2 3.2-9.3 6.8-13.8 3.6 4.5 7 9.7 6.8 13.9-.3 6.5-5.9 6.6-6.6 6.5-.1 0-.3 0-.4 0-1.1 0-6.3-.2-6.6-6.5 0 0 0 0 0-.1zm1.4 21.6c.1 9.7.1 20.1.1 27.4v4.5c0 15.8-8.4 29.9-21.5 39.3-.5.3-1 .6-1.4 1-10.1 6.8-22.8 10.8-36.6 10.8-11.8 0-24.1-3.3-34.3-9.5-.4-.3-.9-.6-1.3-.8-13.9-8.8-23.9-22.8-23.9-40.8 0-2.6 0-5.8 0-9.3-.1-14.5-.1-37.3.7-49.7 14.9-4.1 28.3-12.2 38.4-23.1 6.3 10 15 18.4 25.6 24.7 11.7 7 25.1 11 39 11.8 2.3 7.5 8.5 12.1 15.2 13.7zm-120.2 128.3c-.3 6.5-5.9 6.6-6.6 6.6-.1 0-.3 0-.4 0-.7 0-6.3 0-6.6-6.5-.1-1.8.5-3.8 1.5-5.8.1-.1.1-.2.2-.3 1.3-2.6 3.2-5.3 5.2-7.8 3.5 4.5 6.9 9.6 6.7 13.8zm-94.3 83.4c2.2-59.6 10.4-65.7 65.3-81.6 1.1 13.3 11.9 20.3 21.9 20.3h.4c10.4.1 21.7-7.2 22.3-21.4.2-4.1-.8-8-2.3-11.6.8-.6 1.4-1.3 2-2.1 5.3-8.1 9.1-16.2 11.6-24.1 10.7 4.8 22.4 7.3 33.8 7.3 13.2 0 25.6-3 36.4-8.4 2.4 8.2 6.4 16.5 12 25.1 1 1.5 2.4 2.6 4.1 3.2 9.4 3 18 5.7 25.7 8.1 59.6 18.4 72.3 22.3 76.1 85.1h-309.3z"/><path d="m155.9 265.5c2.3-3.6 1.2-8.4-2.4-10.7s-8.4-1.2-10.7 2.4c-1.1 1.7-2.6 2.7-4.2 2.7-1 0-2.5-.4-3.6-2.3-2.3-3.6-7.1-4.7-10.7-2.5-3.6 2.3-4.7 7.1-2.5 10.7 3.7 6 10 9.5 16.7 9.5h.1c6.9.1 13.4-3.6 17.3-9.8z"/><path d="m216.6 254.8c-3.6-2.3-8.4-1.2-10.7 2.4-1.1 1.7-2.6 2.7-4.2 2.7-1 0-2.5-.4-3.6-2.3-2.3-3.6-7.1-4.7-10.7-2.5-3.6 2.3-4.7 7.1-2.5 10.7 3.7 6 10 9.5 16.7 9.5h.1c6.9 0 13.4-3.7 17.3-9.9 2.3-3.5 1.2-8.3-2.4-10.6z"/><path d="m184 316.9h-27.2c-4.3 0-7.8 3.5-7.8 7.8s3.5 7.8 7.8 7.8h27.2c4.3 0 7.8-3.5 7.8-7.8s-3.5-7.8-7.8-7.8z"/><path d="m235.7 387.6c-1.5-1.8-3.7-2.9-6-2.9-2.3 0-4.5 1.1-6 2.9-.7.9-1.5 1.8-2.3 2.8-6.1 7.2-14.5 17.1-13.9 28.8.6 14 11.6 21.4 21.9 21.4h.4.4c10.3 0 21.4-7.4 21.9-21.4.5-11.7-7.9-21.6-14-28.9-.9-.9-1.7-1.8-2.4-2.7zm-5.8 37.5c-.1 0-.1 0-.2 0s-.1 0-.2 0c-.7 0-6.3 0-6.6-6.6-.2-4.2 3.2-9.3 6.8-13.9 3.6 4.5 7 9.7 6.8 13.9-.3 6.4-5.5 6.6-6.6 6.6z"/><path d="m147.5 407.8c-1.5-1.8-3.7-2.9-6-2.9s-4.5 1.1-6 2.9c-.7.8-1.5 1.7-2.3 2.7-6.1 7.2-14.5 17.2-14 28.9.6 14 11.7 21.4 22 21.4h.3c10.4.1 21.7-7.3 22.3-21.4.5-11.7-7.9-21.6-14-28.9-.9-1-1.7-1.9-2.3-2.7zm-5.9 37.5c-.1 0-.2 0-.4 0-.6 0-6.3 0-6.6-6.5-.2-4.2 3.2-9.4 6.8-13.9 3.6 4.5 7 9.7 6.8 13.9-.3 6.4-5.9 6.5-6.6 6.5z"/><path d="m492.1 154.3c-3.8-3.1-9.1-3.2-13-.3-12.5 9.3-27.3 14.2-42.9 14.2-39.6 0-71.8-32.2-71.8-71.8 0-27.6 16.1-53 41.1-64.9 4.4-2.1 6.7-6.9 5.8-11.6-.9-4.8-5-8.3-9.8-8.5-2-.1-4-.2-6-.2-60.5 0-109.8 49.2-109.8 109.8 0 24.9 8.3 48.7 23.6 68.1l-5.4 3.2c-2.4 1.4-3.8 3.9-3.8 6.7 0 2.7 1.4 5.3 3.8 6.7l11 6.5 6.5 11c1.4 2.4 3.9 3.8 6.7 3.8 2.7 0 5.3-1.4 6.7-3.8l4.6-7.7c16.9 10.1 36.1 15.4 56 15.4 42.6 0 81.7-25 99.7-63.8 2-4.6.7-9.7-3-12.8zm-160.4 45.4c-1.1.7-2 1.6-2.7 2.7l-.9 1.5-.9-1.5c-.7-1.1-1.6-2.1-2.7-2.7l-1.5-.9 1.5-.9c1.1-.7 2-1.6 2.7-2.7l.9-1.5.9 1.5c.7 1.1 1.6 2 2.7 2.7l1.5.9zm63.7 15.5c-14.9 0-29.4-3.5-42.5-10.1 2-1.4 3.2-3.8 3.2-6.3 0-2.7-1.4-5.3-3.8-6.7l-11-6.6-6.5-11c-1.4-2.3-3.9-3.8-6.7-3.8-2.7 0-5.3 1.4-6.7 3.8l-1.6 2.7c-12.1-16.2-18.7-35.9-18.7-56.4 0-47.6 35.5-87.1 81.4-93.4-20.9 16.4-33.7 41.8-33.7 68.9 0 48.1 39.2 87.3 87.3 87.3 12.4 0 24.5-2.6 35.6-7.5-17.5 24.3-45.9 39.1-76.3 39.1z"/><path d="m429.1 96.4c2.7 0 5.3-1.4 6.7-3.8l5.9-9.9 9.9-5.9c2.4-1.4 3.8-3.9 3.8-6.7 0-2.7-1.4-5.3-3.8-6.7l-9.9-5.9-5.9-9.9c-1.4-2.4-3.9-3.8-6.7-3.8-2.7 0-5.3 1.4-6.7 3.8l-5.9 9.9-9.9 5.9c-2.4 1.4-3.8 3.9-3.8 6.7s1.4 5.3 3.8 6.7l9.9 5.9 5.9 9.9c1.4 2.4 4 3.8 6.7 3.8zm-.2-23.3c-.7-1.1-1.6-2-2.7-2.7l-.4-.2.3-.2c1.1-.7 2.1-1.6 2.7-2.7l.2-.4.2.3c.7 1.1 1.6 2 2.7 2.7l.4.2-.3.2c-1.1.7-2 1.6-2.7 2.7l-.2.4z"/><path d="m415.8 117.2-4.3-7.3c-1.4-2.4-3.9-3.8-6.7-3.8-2.7 0-5.3 1.4-6.7 3.8l-4.4 7.4-7.3 4.3c-2.4 1.4-3.8 3.9-3.8 6.7 0 2.7 1.4 5.3 3.8 6.7l7.4 4.4 4.3 7.3c1.4 2.4 3.9 3.8 6.7 3.8 2.7 0 5.3-1.4 6.7-3.8l4.4-7.4 7.3-4.3c2.4-1.4 3.8-3.9 3.8-6.7 0-2.7-1.4-5.3-3.8-6.7z"/></g></svg>