<svg id="Capa_1" enable-background="new 0 0 512 512" height="512" viewBox="0 0 512 512" width="512" xmlns="http://www.w3.org/2000/svg"><g><g><g><g><path d="m298.853 410.368h-40.853c-7.433 0-14.252-4.121-17.707-10.702-3.456-6.58-2.977-14.534 1.243-20.652l17.578-25.488h-.083c-11.046 0-20-8.954-20-20s8.954-20 20-20h38.171c7.433 0 14.252 4.122 17.707 10.702 3.456 6.58 2.977 14.534-1.243 20.652l-17.578 25.488h2.765c11.046 0 20 8.954 20 20s-8.955 20-20 20z" fill="#ffdd40"/></g></g></g><g><path d="m276.088 390.368c0-11.046 8.954-20 20-20l17.578-25.488c4.22-6.118 4.699-14.072 1.243-20.652-3.455-6.58-10.274-10.702-17.707-10.702h-38.171c-11.046 0-20 8.954-20 20s8.954 20 20 20h.083l-17.578 25.488c-4.22 6.118-4.699 14.072-1.243 20.652 3.455 6.581 10.274 10.702 17.707 10.702h38.088c-11.046 0-20-8.954-20-20z" fill="#ffc839"/></g><g><g><g><path d="m337.647 261.464h-71.724c-7.433 0-14.252-4.121-17.707-10.702-3.456-6.58-2.977-14.534 1.243-20.652l47.201-68.442h-28.926c-11.046 0-20-8.954-20-20s8.954-20 20-20h67.015c7.433 0 14.252 4.121 17.707 10.702 3.455 6.58 2.977 14.534-1.243 20.652l-47.201 68.442h33.635c11.046 0 20 8.954 20 20s-8.954 20-20 20z" fill="#ffdd40"/></g></g></g><g><path d="m284.013 241.464c0-11.046 8.954-20 20-20l47.201-68.442c4.22-6.118 4.698-14.072 1.243-20.652-3.455-6.581-10.274-10.702-17.707-10.702h-67.015c-11.046 0-20 8.954-20 20s8.954 20 20 20h28.926l-47.201 68.442c-4.22 6.118-4.699 14.072-1.243 20.652 3.455 6.581 10.274 10.702 17.707 10.702h38.089c-11.046 0-20-8.954-20-20z" fill="#ffc839"/></g><g><path d="m221.964 35.904h68.072v446.999h-68.072z" fill="#c90656" transform="matrix(.707 -.707 .707 .707 -108.445 256.997)"/></g><g><path d="m256 7.5c-137.243 0-248.5 111.257-248.5 248.5s111.257 248.5 248.5 248.5 248.5-111.257 248.5-248.5-111.257-248.5-248.5-248.5zm0 428.928c-99.489 0-180.428-80.939-180.428-180.428 0-99.488 80.939-180.427 180.428-180.427s180.429 80.939 180.429 180.427c0 99.489-80.94 180.428-180.429 180.428z" fill="#ff4155"/></g><g><g><path d="m236.215 469.376c0-13.556 6.612-25.561 16.781-32.986-98.108-1.611-177.424-81.906-177.424-180.39 0-98.183 78.833-178.293 176.527-180.377-9.658-7.466-15.884-19.158-15.884-32.31 0-15.427 8.56-28.853 21.187-35.795-.468-.003-.933-.018-1.402-.018-137.243 0-248.5 111.257-248.5 248.5s111.257 248.5 248.5 248.5c.077 0 .153-.003.23-.003-11.981-7.114-20.015-20.176-20.015-35.121z" fill="#e80054"/></g></g><g><g><g><path d="m192.188 324.29h-64.52c-7.433 0-14.252-4.121-17.707-10.702-3.456-6.58-2.977-14.534 1.243-20.652l40.288-58.419h-22.195c-11.046 0-20-8.954-20-20s8.954-20 20-20h60.283c7.433 0 14.252 4.121 17.707 10.702 3.455 6.58 2.977 14.534-1.243 20.652l-40.288 58.419h26.432c11.046 0 20 8.954 20 20s-8.954 20-20 20z" fill="#ffdd40"/></g></g></g><g><path d="m145.756 304.29c0-11.046 8.954-20 20-20l40.288-58.419c4.22-6.118 4.698-14.072 1.243-20.652-3.455-6.581-10.274-10.702-17.707-10.702h-60.283c-11.046 0-20 8.954-20 20s8.954 20 20 20h22.195l-40.288 58.419c-4.22 6.118-4.699 14.072-1.243 20.652 3.455 6.581 10.274 10.702 17.707 10.702h38.088c-11.046 0-20-8.954-20-20z" fill="#ffc839"/></g><g><path d="m437.02 74.98c-48.352-48.351-112.64-74.98-181.02-74.98s-132.668 26.629-181.02 74.98-74.98 112.64-74.98 181.02c0 62.647 22.865 122.938 64.384 169.767 2.748 3.1 7.488 3.385 10.588.637s3.384-7.488.637-10.588c-39.085-44.083-60.609-100.839-60.609-159.816 0-132.888 108.112-241 241-241s241 108.112 241 241-108.112 241-241 241c-58.977 0-115.733-21.524-159.815-60.607-3.1-2.748-7.84-2.462-10.588.637-2.748 3.1-2.463 7.84.637 10.588 46.828 41.517 107.119 64.382 169.766 64.382 68.38 0 132.668-26.629 181.02-74.98s74.98-112.64 74.98-181.02-26.629-132.668-74.98-181.02z"/><path d="m256 443.928c103.624 0 187.929-84.304 187.929-187.928s-84.305-187.928-187.929-187.928-187.928 84.304-187.928 187.928 84.304 187.928 187.928 187.928zm172.929-187.928c0 33.534-9.605 64.862-26.193 91.397l-78.434-78.434h13.346c15.163 0 27.5-12.337 27.5-27.5s-12.337-27.5-27.5-27.5h-19.352l14.941-21.666c2.352-3.41 1.494-8.08-1.916-10.432-3.41-2.353-8.08-1.494-10.432 1.916l-23.051 33.424c-1.583 2.294-1.762 5.277-.467 7.744 1.296 2.468 3.854 4.014 6.641 4.014h33.635c6.893 0 12.5 5.607 12.5 12.5s-5.607 12.5-12.5 12.5h-28.346l-39.761-39.761 33.295-48.278c1.583-2.294 1.762-5.277.467-7.744-1.296-2.468-3.854-4.014-6.641-4.014h-28.926c-6.893 0-12.5-5.607-12.5-12.5s5.607-12.5 12.5-12.5h67.015c4.66 0 8.9 2.562 11.066 6.688 2.167 4.126 1.869 9.072-.776 12.908l-7.089 10.279c-2.352 3.41-1.494 8.08 1.916 10.432 3.41 2.353 8.083 1.493 10.432-1.916l7.089-10.279c5.82-8.438 6.476-19.32 1.71-28.396-4.766-9.077-14.095-14.716-24.348-14.716h-67.015c-15.163 0-27.5 12.337-27.5 27.5s12.337 27.5 27.5 27.5h14.643l-23.621 34.252-94.154-94.154c26.535-16.587 57.863-26.192 91.397-26.192 95.354 0 172.929 77.575 172.929 172.928zm-276.898-138.092 242.061 242.061c-10.711 14.191-23.55 26.69-38.046 37.007l-153.223-153.224 9.395-13.624c5.82-8.438 6.476-19.32 1.71-28.396-4.766-9.077-14.095-14.716-24.348-14.716h-43.494l-31.062-31.062c10.317-14.496 22.816-27.335 37.007-38.046zm137.416 255.946c1.296 2.468 3.854 4.014 6.641 4.014h2.765c6.893 0 12.5 5.607 12.5 12.5s-5.607 12.5-12.5 12.5h-40.853c-4.66 0-8.9-2.562-11.067-6.689-2.166-4.125-1.868-9.07.777-12.907l17.578-25.488c1.583-2.294 1.721-5.277.425-7.744-1.296-2.468-3.895-4.014-6.682-4.014-6.893 0-12.5-5.607-12.5-12.5 0-6.844 5.531-12.415 12.356-12.493l36.762 36.762-5.735 8.316c-1.583 2.293-1.762 5.276-.467 7.743zm-130.332-86.078c1.296 2.468 3.854 4.014 6.641 4.014h26.432c6.893 0 12.5 5.607 12.5 12.5s-5.607 12.5-12.5 12.5h-64.52c-4.66 0-8.9-2.562-11.067-6.689-2.166-4.125-1.868-9.07.777-12.907l40.288-58.419c1.583-2.294 1.762-5.277.467-7.744-1.296-2.468-3.854-4.014-6.641-4.014h-22.195c-6.893 0-12.5-5.607-12.5-12.5s5.607-12.5 12.5-12.5h60.283c4.66 0 8.9 2.562 11.066 6.688 2.167 4.126 1.869 9.072-.776 12.908l-13.031 18.896-.003.004-27.254 39.519c-1.583 2.294-1.762 5.278-.467 7.744zm-52.418-118.934 18.483 18.483c-13.217 1.993-23.383 13.427-23.383 27.191 0 15.163 12.337 27.5 27.5 27.5h7.912l-32.179 46.661c-5.821 8.439-6.477 19.321-1.71 28.396 4.766 9.077 14.095 14.716 24.348 14.716h64.52c15.163 0 27.5-12.337 27.5-27.5s-12.337-27.5-27.5-27.5h-12.148l14.125-20.482 52.61 52.61c-9.027 4.515-15.243 13.846-15.243 24.607 0 10.768 6.22 20.109 15.285 24.621l-11.454 16.609c-5.821 8.439-6.477 19.321-1.71 28.396 4.766 9.077 14.095 14.716 24.348 14.716h40.853c15.163 0 27.5-12.337 27.5-27.5 0-.655-.03-1.302-.075-1.946l16.881 16.881c-25.61 15.009-55.396 23.627-87.16 23.627-95.353 0-172.928-77.575-172.928-172.928 0-31.764 8.618-61.55 23.625-87.158z"/></g></g></svg>