<svg id="Capa_1" enable-background="new 0 0 512 512" height="512" viewBox="0 0 512 512" width="512" xmlns="http://www.w3.org/2000/svg"><g><g><path d="m480.966 123.783h23.534v-116.283h-497v116.283h23.534c15.621 0 28.285 12.663 28.285 28.285v5.566c0 12.804-3.142 25.374-8.877 36.822-12.569 25.091-19.894 52.695-19.894 77.079 0 44.539 24.443 83.363 60.643 103.807v129.159h329.619v-129.159c36.2-20.444 60.643-59.268 60.643-103.807 0-24.383-7.325-51.988-19.894-77.079-5.735-11.448-8.877-24.018-8.877-36.822v-5.566c-.001-15.621 12.663-28.285 28.284-28.285z" fill="#fed2a4"/></g><g><path d="m480.966 123.783h23.534v-116.283h-32.325v71.962c0 6.837-4.273 13.017-10.744 15.225-23.866 8.146-41.075 30.791-41.075 57.381v5.566c0 17.497 4.254 35.237 12.302 51.301 10.467 20.894 16.47 43.711 16.47 62.6 0 31.267-16.942 60.258-44.214 75.66l-8.214 4.639c-5.076 2.867-8.215 8.244-8.215 14.073v138.593h32.325v-129.159c36.2-20.444 60.643-59.268 60.643-103.807 0-24.383-7.325-51.988-19.894-77.079-5.735-11.448-8.877-24.018-8.877-36.822v-5.566c-.001-15.62 12.663-28.284 28.284-28.284z" fill="#ffbd86"/></g><g><g><circle cx="117.722" cy="305.638" fill="#ea9b58" r="24.244"/></g></g><g><g><circle cx="394.278" cy="305.638" fill="#ea9b58" r="24.244"/></g></g><g><path d="m399.515 177.662h-21.327v-43.58c0-3.899-5.381-4.935-6.829-1.315l-26.639 66.597c-.93 2.326.783 4.856 3.288 4.856h21.327v43.58c0 3.899 5.381 4.935 6.829 1.315l26.639-66.597c.93-2.326-.783-4.856-3.288-4.856z" fill="#fe73c5"/></g><g><path d="m289.589 156.473-15.081 15.081-30.816-30.816c-2.757-2.757-7.294.315-5.759 3.899l28.255 65.928c.987 2.303 3.987 2.88 5.759 1.109l15.081-15.081 30.816 30.816c2.757 2.757 7.294-.315 5.759-3.899l-28.255-65.928c-.987-2.303-3.987-2.881-5.759-1.109z" fill="#fe73c5"/></g><g><path d="m275.288 250.587v21.327h-43.58c-3.899 0-4.935 5.381-1.315 6.829l66.597 26.639c2.326.93 4.856-.783 4.856-3.288v-21.327h43.58c3.899 0 4.935-5.381 1.315-6.829l-66.597-26.639c-2.326-.93-4.856.783-4.856 3.288z" fill="#fe73c5"/></g><g><path d="m85.979 305.639c0 17.503 14.24 31.743 31.744 31.743s31.744-14.24 31.744-31.743c0-17.504-14.24-31.744-31.744-31.744s-31.744 14.24-31.744 31.744zm48.487 0c0 9.232-7.511 16.743-16.744 16.743-9.232 0-16.744-7.511-16.744-16.743s7.511-16.744 16.744-16.744 16.744 7.511 16.744 16.744z"/><path d="m362.534 305.639c0 17.503 14.24 31.743 31.743 31.743 17.504 0 31.744-14.24 31.744-31.743 0-17.504-14.24-31.744-31.744-31.744-17.503 0-31.743 14.24-31.743 31.744zm48.487 0c0 9.232-7.512 16.743-16.744 16.743s-16.743-7.511-16.743-16.743 7.511-16.744 16.743-16.744 16.744 7.511 16.744 16.744z"/><path d="m228.705 91.568 2.785 2.799c6.537 6.57 15.242 10.188 24.51 10.188 9.269 0 17.974-3.618 24.511-10.188l2.785-2.799c3.025-3.041 7.032-5.028 11.283-5.597l105.873-14.151c4.106-.549 6.989-4.321 6.44-8.428-.548-4.106-4.322-6.989-8.427-6.439l-105.872 14.151c-7.509 1.003-14.587 4.513-19.93 9.884l-2.785 2.799c-3.701 3.72-8.63 5.769-13.878 5.769s-10.176-2.049-13.877-5.769l-2.785-2.799c-5.344-5.371-12.422-8.881-19.93-9.884l-105.873-14.151c-4.112-.553-7.879 2.335-8.428 6.439-.549 4.106 2.335 7.879 6.44 8.428l105.874 14.151c4.25.569 8.258 2.556 11.284 5.597z"/><path d="m83.69 424.4c0 4.143 3.358 7.5 7.5 7.5s7.5-3.357 7.5-7.5v-36.929c15.988 7.028 33.394 10.707 50.999 10.707 35.454 0 69.521-15.012 93.469-41.186 2.796-3.056 2.585-7.8-.471-10.596-3.056-2.798-7.8-2.586-10.596.471-21.113 23.076-51.147 36.311-82.402 36.311-60.18 1.083-112.669-51.581-111.639-111.648 0-22.954 6.782-49.132 19.095-73.709.617-1.231 1.197-2.477 1.757-3.73 4.035-6.067 38.317-58.486 44.129-96.357.628-4.095-2.181-7.923-6.275-8.551-4.099-.639-7.923 2.181-8.551 6.275-2.62 17.069-12.103 38.185-21.406 55.756-.457-19.34-16.32-34.935-35.768-34.935h-16.031v-101.279h396.48c4.143 0 7.5-3.357 7.5-7.5s-3.357-7.5-7.5-7.5h-403.98c-4.142 0-7.5 3.357-7.5 7.5v116.28c0 4.143 3.358 7.5 7.5 7.5h23.53c11.464 0 20.79 9.326 20.79 20.79v5.56c0 11.346-2.795 22.919-8.085 33.471-13.339 26.624-20.685 55.188-20.685 80.43 0 44.138 23.123 85.153 60.64 108.099z"/><path d="m420.81 445.51c-4.143 0-7.5 3.357-7.5 7.5v43.99h-314.62v-37.6c0-4.143-3.358-7.5-7.5-7.5s-7.5 3.357-7.5 7.5v45.1c0 4.143 3.358 7.5 7.5 7.5h329.62c4.143 0 7.5-3.357 7.5-7.5v-51.49c0-4.143-3.358-7.5-7.5-7.5z"/><path d="m504.5 0h-58.02c-4.143 0-7.5 3.357-7.5 7.5s3.357 7.5 7.5 7.5h50.52v101.28h-16.03c-19.448 0-35.311 15.595-35.768 34.935-9.303-17.571-18.786-38.687-21.406-55.756-.629-4.096-4.459-6.905-8.551-6.275-4.094.628-6.903 4.456-6.275 8.551 5.811 37.871 40.094 90.29 44.129 96.358.56 1.252 1.139 2.498 1.755 3.727 12.313 24.579 19.096 50.757 19.096 73.711-.732 101.799-124.81 149.98-194.042 75.337-2.796-3.056-7.54-3.266-10.596-.471-3.057 2.796-3.267 7.54-.471 10.596 23.948 26.174 58.017 41.186 93.469 41.186 17.605 0 35.011-3.678 50.999-10.706v30.538c0 4.143 3.357 7.5 7.5 7.5s7.5-3.357 7.5-7.5v-38.38c37.518-22.946 60.641-63.962 60.641-108.1 0-25.242-7.346-53.806-20.686-80.431-5.289-10.553-8.085-22.126-8.085-33.47v-5.56c0-11.464 9.326-20.79 20.79-20.79h23.53c4.143 0 7.5-3.357 7.5-7.5v-116.28c.001-4.143-3.356-7.5-7.499-7.5z"/><path d="m399.515 170.162h-13.827v-36.081c0-5.368-3.682-9.827-8.954-10.842-5.267-1.009-10.346 1.758-12.338 6.742l-26.639 66.596c-1.362 3.406-.948 7.254 1.108 10.291 2.057 3.038 5.475 4.852 9.143 4.852h13.827v36.08c0 5.368 3.682 9.826 8.952 10.842.729.14 1.452.208 2.164.208 4.449 0 8.457-2.652 10.177-6.949l26.638-66.596c1.363-3.405.949-7.253-1.107-10.29-2.056-3.039-5.475-4.853-9.144-4.853zm-22.68 57.081v-23.023c0-4.143-3.357-7.5-7.5-7.5h-15.479l16.832-42.079v23.021c0 4.143 3.357 7.5 7.5 7.5h15.479z"/><path d="m294.181 148.135c-3.604-.698-7.301.441-9.895 3.034l-9.777 9.778-25.513-25.514c-3.796-3.795-9.553-4.344-13.997-1.335-4.445 3.01-6.073 8.558-3.958 13.491l28.254 65.929c1.446 3.372 4.46 5.799 8.062 6.492 3.605.699 7.301-.44 9.895-3.034l9.777-9.778 25.512 25.514c2.16 2.16 4.954 3.269 7.781 3.269 2.141 0 4.301-.637 6.217-1.934 4.445-3.011 6.073-8.559 3.958-13.491l-28.254-65.927c-1.446-3.373-4.46-5.801-8.062-6.494zm-1.849 43.154c-1.407-1.407-3.314-2.197-5.304-2.197s-3.896.79-5.304 2.196l-10.946 10.946-17.853-41.657 16.279 16.28c1.407 1.406 3.314 2.196 5.304 2.196s3.896-.79 5.304-2.196l10.945-10.946 17.853 41.657z"/><path d="m227.607 285.707 66.599 26.64c1.324.529 2.716.79 4.1.79 2.176-.001 4.334-.645 6.19-1.901 3.036-2.057 4.85-5.474 4.85-9.142v-13.827h36.08c5.368 0 9.827-3.682 10.842-8.953 1.016-5.271-1.756-10.346-6.741-12.34l-66.596-26.639c-3.407-1.362-7.253-.948-10.291 1.108s-4.852 5.475-4.852 9.144v13.827h-36.08c-5.368 0-9.826 3.682-10.842 8.953-1.015 5.271 1.757 10.345 6.741 12.34zm47.681-6.293c4.143 0 7.5-3.357 7.5-7.5v-15.48l42.081 16.833h-23.023c-4.143 0-7.5 3.357-7.5 7.5v15.48l-42.082-16.833z"/></g></g></svg>