<svg height="512" viewBox="0 0 64 64" width="512" xmlns="http://www.w3.org/2000/svg"><g id="Layer_22" data-name="Layer 22"><path d="m28.539 36.247a61.607 61.607 0 0 1 1.461 13.34 61.625 61.625 0 0 1 -.377 6.805l-.623 5.608h-19l-1.586-4.759a66.521 66.521 0 0 1 -3.414-21.036 35.867 35.867 0 0 1 6.378-20.417 14.753 14.753 0 0 0 2.622-8.395 14.748 14.748 0 0 0 -.757-4.663l-.243-.73h38l-.243.73a14.748 14.748 0 0 0 -.757 4.663 14.753 14.753 0 0 0 2.622 8.4 35.867 35.867 0 0 1 6.378 20.412 66.521 66.521 0 0 1 -3.414 21.036l-1.586 4.759h-19l-.623-5.608a61.625 61.625 0 0 1 -.377-6.8 61.607 61.607 0 0 1 1.461-13.34z" fill="#eab6ab"/><path d="m52.622 15.788a14.747 14.747 0 0 1 -1.865-13.058l.243-.73h-36l.243.73a14.747 14.747 0 0 1 -1.865 13.058 35.867 35.867 0 0 0 -6.378 20.417 66.521 66.521 0 0 0 3.414 21.036l1.586 4.759h17l.623-5.608a61.638 61.638 0 0 0 .377-6.8 61.614 61.614 0 0 0 -1.461-13.34l.181.217a4.27 4.27 0 0 0 6.56 0l.181-.217a61.623 61.623 0 0 0 -1.084 20.145l.623 5.603h19l1.586-4.759a66.521 66.521 0 0 0 3.414-21.036 35.867 35.867 0 0 0 -6.378-20.417z" fill="#fbdfd3"/><path d="m30 9v-2a3.16 3.16 0 0 0 3-2.162l.052-.157 1.9.638-.052.154a5.153 5.153 0 0 1 -4.9 3.527z" fill="#eab6ab"/><path d="m32 39a5.259 5.259 0 0 1 -4.049-1.9l-3.72-4.464 1.538-1.28 3.719 4.463a3.269 3.269 0 0 0 5.024 0l3.719-4.463 1.538 1.28-3.72 4.464a5.259 5.259 0 0 1 -4.049 1.9z" fill="#eab6ab"/><path d="m32 12.001-4 9.001h2l2 8.998 4-9.998h-2z" fill="#c04c1f"/><path d="m34 20.002-2-8.001-1 7.999h2l-1 10 4-9.998z" fill="#de6024"/><path d="m28 30-6-10-1 3h-8l7 5 1-2z" fill="#c04c1f"/><path d="m21 23h-8l7 3 1-2 7 6-6-10z" fill="#de6024"/><path d="m36 30 6-10 1 3h8l-7 5-1-2z" fill="#c04c1f"/><path d="m43 23h8l-7 3-1-2-7 6 6-10z" fill="#de6024"/><path d="m51 7.394a13.693 13.693 0 0 1 .706-4.348l.243-.73a1 1 0 0 0 -.949-1.316h-38a1 1 0 0 0 -.949 1.316l.243.73a13.693 13.693 0 0 1 .706 4.348 13.688 13.688 0 0 1 -2.444 7.825 36.7 36.7 0 0 0 -6.556 20.986 67.419 67.419 0 0 0 3.465 21.353l1.586 4.758a1 1 0 0 0 .949.684h19a1 1 0 0 0 .994-.89l.623-5.607a62.943 62.943 0 0 0 .383-6.916 62.634 62.634 0 0 0 -.988-10.987 5.188 5.188 0 0 0 3.976 0 61.957 61.957 0 0 0 -.6 17.9l.623 5.607a1 1 0 0 0 .989.893h19a1 1 0 0 0 .949-.684l1.586-4.758a67.421 67.421 0 0 0 3.465-21.358 36.7 36.7 0 0 0 -6.556-20.985 13.688 13.688 0 0 1 -2.444-7.821zm3.638 49.531-1.359 4.075h-17.379l-.524-4.718a60.459 60.459 0 0 1 1.022-19.591l3.375-4.05-1.536-1.282-3.72 4.465a3.27 3.27 0 0 1 -5.024 0l-3.72-4.464-1.536 1.282 3.375 4.049a60.72 60.72 0 0 1 1.388 12.896 60.925 60.925 0 0 1 -.371 6.695l-.524 4.718h-17.384l-1.359-4.075a65.418 65.418 0 0 1 -3.362-20.725 34.714 34.714 0 0 1 6.2-19.847 15.677 15.677 0 0 0 2.8-8.959 15.717 15.717 0 0 0 -.625-4.394h35.25a15.75 15.75 0 0 0 2.175 13.357 34.715 34.715 0 0 1 6.2 19.848 65.416 65.416 0 0 1 -3.362 20.72z"/><path d="m36.828 19.441a1 1 0 0 0 -.828-.441h-1.219l-1.811-7.241a1 1 0 0 0 -1.884-.164l-4 9a1 1 0 0 0 .914 1.405h1.2l1.826 8.215a1 1 0 0 0 .895.78l.079.005a1 1 0 0 0 .928-.629l4-10a1 1 0 0 0 -.1-.93zm-4.554 7.182-1.3-5.838a1 1 0 0 0 -.974-.785h-.461l2.2-4.94 1.3 5.182a1 1 0 0 0 .961.758h.523z"/><path d="m51 22h-7.279l-.772-2.316a1 1 0 0 0 -1.806-.2l-6 10a1 1 0 0 0 1.357 1.384l6.082-3.475.527 1.054a1 1 0 0 0 1.476.366l7-5a1 1 0 0 0 -.585-1.813zm-6.629 4.506-.476-.953a1 1 0 0 0 -1.391-.421l-3.678 2.1 2.913-4.854.312.937a1 1 0 0 0 .949.685h4.879z"/><path d="m22.857 19.485a1 1 0 0 0 -1.806.2l-.772 2.315h-7.279a1 1 0 0 0 -.581 1.813l7 5a1 1 0 0 0 1.476-.366l.527-1.054 6.078 3.475a1 1 0 0 0 1.353-1.383zm-1.357 5.647a1 1 0 0 0 -.5-.132 1.029 1.029 0 0 0 -.29.043 1 1 0 0 0 -.605.51l-.476.953-3.508-2.506h4.879a1 1 0 0 0 .949-.684l.312-.937 2.913 4.854z"/><path d="m34.9 5.47.051-.155-1.9-.63-.051.153a3.159 3.159 0 0 1 -3 2.162v2a5.155 5.155 0 0 0 4.9-3.53z"/></g></svg>