<?xml version="1.0" encoding="iso-8859-1"?>
<!-- Generator: Adobe Illustrator 19.0.0, SVG Export Plug-In . SVG Version: 6.00 Build 0)  -->
<svg version="1.1" id="Capa_1" xmlns="http://www.w3.org/2000/svg" xmlns:xlink="http://www.w3.org/1999/xlink" x="0px" y="0px"
	 viewBox="0 0 512.001 512.001" style="enable-background:new 0 0 512.001 512.001;" xml:space="preserve">
<path style="fill:#FEC007;" d="M450.754,165.717v112.651c0,9.167-7.428,16.595-16.595,16.595H321.498
	c-14.779,0-22.185-17.871-11.731-28.325l20.666-20.666l39.472-39.483l52.512-52.512
	C432.872,143.521,450.754,150.927,450.754,165.717z"/>
<g>
	<path style="fill:#FE9700;" d="M450.754,245.971v32.396c0,9.167-7.428,16.595-16.595,16.595H321.498
		c-14.779,0-22.185-17.871-11.731-28.325l20.666-20.666L450.754,245.971L450.754,245.971z"/>
	<path style="fill:#FE9700;" d="M391.978,265.435l-22.856,29.525h-47.627c-14.779,0-22.185-17.871-11.731-28.325l60.138-60.149
		l16.167,12.511C400.495,230.166,403.148,250.997,391.978,265.435z"/>
	<path style="fill:#FE9700;" d="M308.776,267.712c2.334,5.898,7.929,10.513,15.446,10.513h112.656
		c5.805,0,10.909-2.972,13.866-7.486v7.626c0,9.166-7.423,16.59-16.59,16.59H321.498
		C307.212,294.955,299.819,278.256,308.776,267.712z"/>
</g>
<path style="fill:#FEC007;" d="M382.384,245.971c-0.154,3.291-1.287,6.559-3.455,9.365l-68.964,89.079
	c-9.057,11.687-27.72,6.603-29.591-8.066l-6.405-50.311l-5.095-40.066l-8.616-67.665c-1.86-14.669,14.933-24.265,26.62-15.219
	l24.166,18.708l64.914,50.256C380.415,235.494,382.626,240.755,382.384,245.971z"/>
<g>
	<path style="fill:#FE9700;" d="M382.384,245.971c-0.154,3.291-1.287,6.559-3.455,9.365l-68.964,89.079
		c-9.057,11.687-27.72,6.603-29.591-8.066l-6.405-50.311l-5.095-40.066L382.384,245.971L382.384,245.971z"/>
	<path style="fill:#FE9700;" d="M311.041,181.791l-33.287,96.606c-0.946,2.751-2.223,5.304-3.786,7.637l-13.712-107.731
		c-1.86-14.669,14.933-24.265,26.62-15.219L311.041,181.791z"/>
	<path style="fill:#FE9700;" d="M280.63,337.791c6.093,1.765,13.167,0.165,17.768-5.778l68.963-89.082
		c3.553-4.59,4.328-10.446,2.569-15.547l6.03,4.668c7.248,5.611,8.574,16.025,2.963,23.274l-68.963,89.082
		C301.213,355.704,283.484,351.328,280.63,337.791z"/>
</g>
<path style="fill:#FEC007;" d="M298.851,166.521l-27.379,79.451l-9.321,27.049c-2.982,8.671-12.435,13.271-21.096,10.289
	l-57.31-19.753l-49.2-16.958c-0.539-0.187-1.056-0.396-1.563-0.627c-12.479-5.667-13.073-23.747-0.297-29.976l55.968-27.28
	l87.242-42.52C289.19,139.714,303.67,152.534,298.851,166.521z"/>
<g>
	<path style="fill:#FE9700;" d="M271.472,245.971l-9.321,27.049c-2.982,8.671-12.435,13.271-21.096,10.289l-57.31-19.753
		l-49.2-16.958c-0.539-0.187-1.056-0.396-1.563-0.627L271.472,245.971L271.472,245.971z"/>
	<path style="fill:#FE9700;" d="M206.897,238.584c-2.201,8.573-7.604,15.769-15.208,20.27l-7.945,4.699l-49.2-16.958
		c-13.976-4.82-15.153-24.122-1.86-30.603l55.968-27.28l14.669,24.793C207.822,221.121,209.087,230.023,206.897,238.584z"/>
	<path style="fill:#FE9700;" d="M131.394,216.693c0.285,6.337,4.071,12.523,11.178,14.971L249.08,268.37
		c5.488,1.891,11.283,0.744,15.549-2.559l-2.485,7.21c-2.987,8.666-12.424,13.266-21.09,10.279l-106.508-36.706
		C121.039,241.938,119.491,223.743,131.394,216.693z"/>
</g>
<path style="fill:#FEC007;" d="M183.284,244.65l-2.234,1.32l-94.725,56.045c-12.721,7.527-28.204-4.094-24.529-18.41l9.651-37.634
	l29.943-116.689c3.676-14.317,22.823-17.046,30.361-4.325l57.365,96.958C193.782,229.806,191.163,239.973,183.284,244.65z"/>
<g>
	<path style="fill:#FE9700;" d="M181.05,245.971l-94.725,56.044c-12.721,7.527-28.204-4.094-24.529-18.41l9.651-37.634
		L181.05,245.971L181.05,245.971z"/>
	<path style="fill:#FE9700;" d="M61.5,285.04c5.013,3.888,12.177,5.01,18.646,1.182l96.956-57.365
		c4.996-2.956,7.876-8.113,8.122-13.503l3.883,6.563c4.668,7.889,2.059,18.058-5.83,22.725l-96.956,57.365
		C74.026,309.281,59.161,298.674,61.5,285.04z"/>
</g>
<path style="fill:#FB4239;" d="M309.535,504.5H202.466c-88.027,0-159.387-71.36-159.387-159.387v-82.638h425.843v82.638
	C468.922,433.14,397.562,504.5,309.535,504.5z"/>
<path style="fill:#E21717;" d="M468.917,262.474v82.639c0,88.029-71.359,159.388-159.378,159.388h-23.81
	c88.029,0,159.388-71.359,159.388-159.388v-82.639L468.917,262.474L468.917,262.474z"/>
<rect x="43.079" y="309.815" style="fill:#1BCF92;" width="425.843" height="35.289"/>
<rect x="446.163" y="309.815" style="fill:#00AD6F;" width="22.762" height="35.289"/>
<path style="fill:#FEC007;" d="M214.925,18.526l-37.896,106.09c-4.973,13.923,9.369,26.909,22.731,20.581l143.986-68.195
	c13.362-6.328,12.402-25.653-1.521-30.626L236.134,8.48C227.503,5.397,218.008,9.895,214.925,18.526z"/>
<path style="fill:#FE9700;" d="M345.04,76.315c-0.214-6.34-3.931-12.567-11.009-15.096L227.939,23.323
	c-5.467-1.953-11.274-0.871-15.576,2.385l2.565-7.181c3.083-8.632,12.571-13.126,21.204-10.042l106.091,37.896
	C355.676,51.186,357.02,69.398,345.04,76.315z"/>
<path d="M418.259,200.712c1.465,1.465,3.385,2.198,5.305,2.198c1.919,0,3.838-0.732,5.303-2.196
	c2.929-2.928,2.93-7.677,0.002-10.606l-1.283-1.284c-2.929-2.93-7.677-2.93-10.607-0.002c-2.929,2.928-2.93,7.677-0.002,10.606
	L418.259,200.712z"/>
<path d="M391.922,220.283c1.465,1.464,3.384,2.196,5.303,2.196c1.92,0,3.84-0.732,5.305-2.198c2.928-2.93,2.927-7.678-0.002-10.606
	l-1.284-1.284c-2.932-2.929-7.68-2.928-10.607,0.002c-2.928,2.929-2.927,7.678,0.002,10.606L391.922,220.283z"/>
<path d="M420.596,217.34c-2.929,2.928-2.93,7.677-0.002,10.606l1.283,1.284c1.465,1.465,3.385,2.198,5.305,2.198
	c1.919,0,3.838-0.732,5.303-2.196c2.929-2.928,2.93-7.677,0.002-10.606l-1.283-1.284
	C428.275,214.412,423.527,214.412,420.596,217.34z"/>
<path d="M283.834,236.745c0.482,3.788,3.71,6.555,7.431,6.555c0.315,0,0.635-0.02,0.956-0.061l1.801-0.229
	c4.109-0.522,7.017-4.277,6.494-8.386c-0.523-4.109-4.276-7.017-8.387-6.494l-1.801,0.229
	C286.219,228.882,283.312,232.636,283.834,236.745z"/>
<path d="M316.68,225.09c0.315,0,0.635-0.02,0.956-0.061l1.801-0.229c4.109-0.522,7.017-4.277,6.494-8.386
	c-0.523-4.109-4.276-7.019-8.387-6.494l-1.801,0.229c-4.109,0.522-7.017,4.277-6.494,8.386
	C309.732,222.323,312.959,225.09,316.68,225.09z"/>
<path d="M256.734,189.021c1.299,2.667,3.969,4.217,6.748,4.217c1.102,0,2.222-0.244,3.278-0.759
	c3.725-1.814,5.272-6.303,3.458-10.027l-0.795-1.632c-1.813-3.723-6.303-5.272-10.026-3.458c-3.725,1.814-5.272,6.303-3.458,10.027
	L256.734,189.021z"/>
<path d="M225.454,198.94c1.299,2.666,3.969,4.216,6.748,4.216c1.103,0,2.222-0.244,3.279-0.759
	c3.724-1.814,5.271-6.304,3.457-10.027l-0.795-1.631c-1.814-3.724-6.305-5.271-10.027-3.457c-3.724,1.814-5.271,6.304-3.457,10.027
	L225.454,198.94z"/>
<path d="M250.863,217.162c1.299,2.667,3.969,4.217,6.748,4.217c1.102,0,2.222-0.244,3.278-0.759
	c3.725-1.814,5.272-6.303,3.458-10.027l-0.795-1.632c-1.813-3.723-6.303-5.271-10.026-3.458c-3.725,1.814-5.272,6.303-3.458,10.027
	L250.863,217.162z"/>
<path d="M125.338,157.097l-1.759-0.451c-4.016-1.034-8.099,1.39-9.128,5.401c-1.029,4.012,1.389,8.099,5.401,9.128l1.759,0.451
	c0.625,0.161,1.252,0.237,1.868,0.237c3.343,0,6.391-2.251,7.26-5.638C131.769,162.213,129.351,158.127,125.338,157.097z"/>
<path d="M112.634,187.352l-1.758-0.451c-4.01-1.03-8.1,1.388-9.129,5.4c-1.029,4.012,1.388,8.1,5.4,9.129l1.758,0.451
	c0.625,0.161,1.252,0.237,1.869,0.237c3.343,0,6.391-2.25,7.26-5.637C119.064,192.469,116.647,188.381,112.634,187.352z"/>
<path d="M142.972,179.797l-1.759-0.451c-4.011-1.028-8.099,1.391-9.127,5.403c-1.027,4.013,1.392,8.099,5.404,9.127l1.759,0.451
	c0.624,0.16,1.25,0.237,1.866,0.237c3.344,0,6.393-2.252,7.261-5.64C149.405,184.912,146.985,180.825,142.972,179.797z"/>
<path d="M447.196,425.825c-3.467-2.263-8.116-1.288-10.379,2.182c-28.196,43.202-75.778,68.994-127.283,68.994H202.466
	c-27.408,0-54.274-7.387-77.697-21.361c-3.557-2.121-8.162-0.959-10.283,2.598c-2.123,3.557-0.959,8.161,2.598,10.284
	c25.746,15.36,55.27,23.479,85.383,23.479h107.068c56.591,0,108.868-28.335,139.844-75.796
	C451.643,432.736,450.665,428.089,447.196,425.825z"/>
<path d="M468.922,254.976h-10.675v-89.27c0-9.93-5.699-18.46-14.874-22.26c-9.173-3.8-19.235-1.797-26.26,5.227l-59.606,59.605
	l-51.42-39.803c2.984-9.242,0.354-18.934-6.951-25.404c-7.435-6.585-17.6-7.975-26.535-3.627l-95.907,46.757l-38.496-65.062
	c-5.053-8.546-14.297-12.986-24.132-11.583c-9.834,1.401-17.475,8.248-19.939,17.866L61.404,254.976H43.078
	c-4.143,0-7.5,3.358-7.5,7.5v47.348v35.29c0,46.529,19.653,91.299,53.92,122.829c1.44,1.326,3.261,1.981,5.076,1.981
	c2.024,0,4.042-0.814,5.521-2.422c2.805-3.048,2.607-7.792-0.441-10.597c-29.343-27-46.907-64.664-48.884-104.291h410.465
	c-0.773,15.912-4.003,31.467-9.641,46.336c-1.469,3.873,0.48,8.203,4.354,9.672c3.871,1.466,8.203-0.479,9.672-4.354
	c7.168-18.904,10.803-38.806,10.803-59.154v-35.29v-47.348C476.422,258.334,473.065,254.976,468.922,254.976z M427.721,159.28
	c3.988-3.989,8.595-2.521,9.912-1.975c1.317,0.546,5.614,2.764,5.614,8.402v89.27h-55.426c1.786-3.989,2.452-8.403,1.885-12.852
	c-0.814-6.386-4.066-12.072-9.156-16.01l-11.084-8.58L427.721,159.28z M291.635,210.48c0.093,0.003,0.185,0.013,0.279,0.013
	c0.315,0,0.635-0.02,0.956-0.061l1.801-0.229c4.109-0.522,7.017-4.277,6.494-8.386c-0.349-2.736-2.133-4.933-4.497-5.945
	l4.275-12.41l52.442,40.594c0.026,0.021,0.053,0.041,0.08,0.062l17.903,13.858c1.922,1.487,3.15,3.634,3.458,6.046
	c0.307,2.41-0.342,4.792-1.827,6.709l-3.289,4.245h-93.405L291.635,210.48z M279.173,152.93c5.071-2.468,8.952,0.425,10.02,1.371
	c1.066,0.945,4.404,4.441,2.566,9.772l-1.523,4.42c-0.007,0.018-0.012,0.036-0.019,0.054l-29.776,86.429H180.55l6.552-3.877
	c5.539-3.279,9.471-8.517,11.069-14.748c1.599-6.233,0.674-12.716-2.604-18.255l-11.208-18.943L279.173,152.93z M108.657,131.148
	c1.398-5.46,6.113-6.541,7.525-6.742c1.409-0.201,6.237-0.481,9.104,4.37l42.097,71.147c0.003,0.005,0.006,0.011,0.01,0.016
	l15.264,25.797c2.553,4.313,1.119,9.901-3.195,12.455l-28.365,16.786H76.89L108.657,131.148z M461.422,269.976v32.349H50.578
	v-32.349H461.422z M50.578,317.323h410.844v20.291H50.578V317.323z"/>
<path d="M176.484,148.059c4.589,4.154,10.258,6.302,16.052,6.302c3.503,0,7.053-0.786,10.434-2.387l91.675-43.417
	c3.744-1.773,5.341-6.245,3.568-9.989s-6.248-5.339-9.988-3.568l-91.676,43.417c-5.095,2.416-8.939-0.521-9.997-1.478
	c-1.057-0.957-4.357-4.491-2.461-9.801l37.897-106.091c0.816-2.287,2.476-4.119,4.671-5.159c2.196-1.04,4.666-1.163,6.953-0.345
	l106.088,37.896c5.311,1.897,5.954,6.69,6.024,8.114c0.071,1.424-0.095,6.257-5.19,8.67l-21.092,9.99
	c-3.744,1.773-5.341,6.245-3.568,9.989c1.773,3.744,6.248,5.339,9.988,3.568l21.092-9.99c8.976-4.25,14.245-13.052,13.753-22.971
	c-0.493-9.918-6.608-18.156-15.961-21.497L238.656,1.417c-6.06-2.165-12.602-1.841-18.419,0.915
	c-5.816,2.755-10.212,7.61-12.376,13.671l-37.896,106.09C166.624,131.444,169.122,141.394,176.484,148.059z"/>
<path d="M209.408,99.013c-3.743,1.774-5.341,6.246-3.566,9.989l0.777,1.641c1.282,2.706,3.975,4.291,6.782,4.291
	c1.076,0,2.17-0.233,3.206-0.724c3.743-1.774,5.341-6.246,3.566-9.989l-0.777-1.641C217.623,98.836,213.148,97.24,209.408,99.013z"
	/>
<path d="M240.795,89.444c-3.743,1.774-5.341,6.246-3.566,9.989l0.777,1.641c1.282,2.706,3.975,4.291,6.782,4.291
	c1.076,0,2.17-0.233,3.206-0.724c3.743-1.774,5.341-6.246,3.566-9.989l-0.777-1.641C249.01,89.267,244.534,87.671,240.795,89.444z"
	/>
<path d="M226.361,76.149l-0.776-1.64c-1.773-3.744-6.247-5.343-9.988-3.57c-3.744,1.772-5.342,6.244-3.57,9.988l0.776,1.64
	c1.282,2.708,3.976,4.293,6.784,4.293c1.075,0,2.168-0.232,3.204-0.723C226.534,84.364,228.132,79.893,226.361,76.149z"/>
<g>
</g>
<g>
</g>
<g>
</g>
<g>
</g>
<g>
</g>
<g>
</g>
<g>
</g>
<g>
</g>
<g>
</g>
<g>
</g>
<g>
</g>
<g>
</g>
<g>
</g>
<g>
</g>
<g>
</g>
</svg>
