<?xml version="1.0" encoding="UTF-8" standalone="no"?>
<!-- Created with Inkscape (http://www.inkscape.org/) -->

<svg
   version="1.1"
   id="svg3300"
   xml:space="preserve"
   width="682.66669"
   height="682.66669"
   viewBox="0 0 682.66669 682.66669"
   xmlns="http://www.w3.org/2000/svg"
   xmlns:svg="http://www.w3.org/2000/svg"><defs
     id="defs3304"><clipPath
       clipPathUnits="userSpaceOnUse"
       id="clipPath3314"><path
         d="M 0,512 H 512 V 0 H 0 Z"
         id="path3312" /></clipPath></defs><g
     id="g3306"
     transform="matrix(1.3333333,0,0,-1.3333333,0,682.66667)"><g
       id="g3308"><g
         id="g3310"
         clip-path="url(#clipPath3314)"><g
           id="g3316"
           transform="translate(236.1523,246.9497)"><path
             d="m 0,0 123.839,-217.736 c 3.95,-6.951 1.532,-15.813 -5.402,-19.793 v -0.001 c -6.935,-3.98 -15.758,-1.572 -19.709,5.379 L -25.111,-14.416 Z"
             style="fill:#f3f3ff;fill-opacity:1;fill-rule:nonzero;stroke:none"
             id="path3318" /></g><g
           id="g3320"
           transform="translate(293.3164,427.2622)"><path
             d="m 0,0 c 41.811,-73.56 16.217,-167.342 -57.164,-209.467 -73.381,-42.126 -166.762,-16.643 -208.572,56.918 -41.811,73.56 -16.218,167.341 57.164,209.467 C -135.191,99.043 -41.81,73.56 0,0"
             style="fill:#f54c5a;fill-opacity:1;fill-rule:nonzero;stroke:none"
             id="path3322" /></g><g
           id="g3324"
           transform="translate(293.3164,427.2622)"><path
             d="M 0,0 C -31.667,55.714 -92.917,83.838 -152.656,75.907 -106.976,69.858 -64.577,43.241 -40,0 c 41.811,-73.56 16.217,-167.342 -57.164,-209.467 -17.802,-10.22 -36.782,-16.449 -55.917,-18.99 32.03,-4.24 65.671,1.627 95.917,18.99 C 16.217,-167.342 41.811,-73.56 0,0"
             style="fill:#eb3443;fill-opacity:1;fill-rule:nonzero;stroke:none"
             id="path3326" /></g><g
           id="g3328"
           transform="translate(403.335,192.4932)"><path
             d="m 0,0 c -30.911,-12.799 -45.653,-48.284 -32.928,-79.256 12.726,-30.973 48.1,-45.704 79.011,-32.905 30.911,12.8 45.653,48.284 32.928,79.256 C 66.285,-1.932 30.911,12.8 0,0"
             style="fill:#ffbbdb;fill-opacity:1;fill-rule:nonzero;stroke:none"
             id="path3330" /></g><g
           id="g3332"
           transform="translate(482.3457,159.5884)"><path
             d="M 0,0 C -12.301,29.939 -45.764,44.698 -75.902,34.09 -60.203,28.573 -46.834,16.633 -40,0 c 12.726,-30.972 -2.017,-66.457 -32.928,-79.256 -1.031,-0.427 -2.068,-0.819 -3.108,-1.184 13.534,-4.757 28.798,-4.742 43.108,1.184 C -2.017,-66.457 12.726,-30.972 0,0"
             style="fill:#ff9ece;fill-opacity:1;fill-rule:nonzero;stroke:none"
             id="path3334" /></g><g
           id="g3336"
           transform="translate(373.9551,264.0005)"><path
             d="m 0,0 c 7.009,2.902 14.802,0.872 19.59,-4.474 1.134,0.844 2.374,1.578 3.739,2.143 8.897,3.684 19.078,-0.556 22.74,-9.47 10.392,-25.292 -13.679,-58.46 -13.679,-58.46 l -6.02,-2.492 c 0,0 -40.364,6.486 -50.756,31.778 -3.663,8.914 0.58,19.127 9.478,22.811 1.364,0.565 2.759,0.922 4.156,1.126 C -11.11,-9.858 -7.01,-2.902 0,0"
             style="fill:#f54c5a;fill-opacity:1;fill-rule:nonzero;stroke:none"
             id="path3338" /></g><g
           id="g3340"
           transform="translate(478.7979,8.8252)"><path
             d="m 0,0 c -7.009,-2.902 -14.802,-0.872 -19.59,4.474 -1.134,-0.844 -2.374,-1.578 -3.738,-2.143 -8.898,-3.684 -19.079,0.556 -22.741,9.471 -10.392,25.291 13.679,58.459 13.679,58.459 l 6.02,2.492 c 0,0 40.364,-6.486 50.756,-31.778 C 28.049,32.061 23.806,21.848 14.908,18.164 13.544,17.599 12.149,17.242 10.752,17.038 11.11,9.858 7.01,2.902 0,0"
             style="fill:#f54c5a;fill-opacity:1;fill-rule:nonzero;stroke:none"
             id="path3342" /></g><g
           id="g3344"
           transform="translate(333.4834,351.3594)"><path
             d="M 0,0 C 18.437,-27.917 56.076,-35.651 84.067,-17.275 112.06,1.102 119.805,38.63 101.366,66.548 82.929,94.465 45.291,102.2 17.299,83.823 -10.692,65.446 -18.437,27.917 0,0"
             style="fill:#ffdb63;fill-opacity:1;fill-rule:nonzero;stroke:none"
             id="path3346" /></g><g
           id="g3348"
           transform="translate(434.8496,417.9072)"><path
             d="M 0,0 C -15.633,23.671 -45.067,32.823 -70.724,23.861 -58.558,19.642 -47.632,11.556 -40,0 c 18.438,-27.917 10.693,-65.446 -17.299,-83.823 -4.258,-2.795 -8.74,-4.978 -13.343,-6.586 17.225,-5.973 36.939,-4.184 53.343,6.586 C 10.693,-65.446 18.438,-27.917 0,0"
             style="fill:#ffd033;fill-opacity:1;fill-rule:nonzero;stroke:none"
             id="path3350" /></g><g
           id="g3352"
           transform="translate(268.8584,308.9326)"><path
             d="m 0,0 c -4.181,6.33 -3.667,14.367 0.672,20.083 -1.044,0.954 -2.001,2.031 -2.815,3.264 -5.306,8.035 -3.077,18.837 4.98,24.126 22.857,15.006 59.993,-2.328 59.993,-2.328 l 3.59,-5.436 c 0,0 1.299,-40.862 -21.559,-55.868 -8.056,-5.289 -18.889,-3.063 -24.196,4.972 -0.814,1.232 -1.43,2.534 -1.895,3.867 C 11.789,-9.035 4.181,-6.331 0,0"
             style="fill:#8fe0ff;fill-opacity:1;fill-rule:nonzero;stroke:none"
             id="path3354" /></g><g
           id="g3356"
           transform="translate(499.4756,460.334)"><path
             d="m 0,0 c 4.181,-6.33 3.667,-14.367 -0.672,-20.083 1.044,-0.953 2,-2.031 2.815,-3.264 5.306,-8.035 3.077,-18.837 -4.98,-24.126 -22.857,-15.006 -59.993,2.328 -59.993,2.328 l -3.591,5.437 c 0,0 -1.299,40.861 21.56,55.867 8.056,5.289 18.889,3.063 24.196,-4.972 0.813,-1.232 1.43,-2.534 1.894,-3.867 C -11.789,9.036 -4.181,6.331 0,0"
             style="fill:#8fe0ff;fill-opacity:1;fill-rule:nonzero;stroke:none"
             id="path3358" /></g><g
           id="g3360"
           transform="translate(80.2358,108.3389)"><path
             d="M 0,0 C 12.676,31.029 48.034,45.937 78.975,33.298 109.916,20.659 124.722,-14.741 112.045,-45.77 99.369,-76.799 64.011,-91.708 33.07,-79.068 2.13,-66.429 -12.676,-31.029 0,0"
             style="fill:#ffdb63;fill-opacity:1;fill-rule:nonzero;stroke:none"
             id="path3362" /></g><g
           id="g3364"
           transform="translate(159.2104,141.6372)"><path
             d="M 0,0 C -14.217,5.808 -29.363,5.785 -42.817,1.068 -41.875,0.736 -40.935,0.382 -40,0 -9.059,-12.639 5.747,-48.04 -6.929,-79.068 c -6.851,-16.771 -20.333,-28.819 -36.158,-34.367 30.241,-10.652 63.865,4.275 76.158,34.367 C 45.747,-48.04 30.941,-12.639 0,0"
             style="fill:#ffd033;fill-opacity:1;fill-rule:nonzero;stroke:none"
             id="path3366" /></g><g
           id="g3368"
           transform="translate(8.8018,137.519)"><path
             d="m 0,0 c -2.874,-7.036 -0.824,-14.839 4.524,-19.618 -0.839,-1.14 -1.567,-2.385 -2.127,-3.755 -3.648,-8.931 0.613,-19.12 9.518,-22.757 25.266,-10.322 58.285,13.929 58.285,13.929 l 2.468,6.042 c 0,0 -6.594,40.432 -31.86,50.753 C 31.903,28.231 21.726,23.941 18.077,15.01 17.518,13.64 17.166,12.241 16.967,10.84 9.802,11.172 2.875,7.036 0,0"
             style="fill:#8fe0ff;fill-opacity:1;fill-rule:nonzero;stroke:none"
             id="path3370" /></g><g
           id="g3372"
           transform="translate(263.7148,33.3882)"><path
             d="m 0,0 c 2.874,7.036 0.824,14.839 -4.523,19.619 0.838,1.139 1.567,2.385 2.127,3.755 3.648,8.93 -0.614,19.119 -9.519,22.757 -25.266,10.321 -58.284,-13.929 -58.284,-13.929 l -2.468,-6.042 c 0,0 6.594,-40.432 31.859,-50.754 8.906,-3.637 19.082,0.654 22.731,9.584 0.559,1.37 0.911,2.77 1.111,4.171 C -9.802,-11.172 -2.874,-7.036 0,0"
             style="fill:#8fe0ff;fill-opacity:1;fill-rule:nonzero;stroke:none"
             id="path3374" /></g><g
           id="g3376"
           transform="translate(350.8555,15.9243)"><path
             d="M 0,0 C -3.868,-1.766 -7.02,-0.905 -9.455,2.581 L -117.13,192.022 c 2.068,1.074 4.127,2.177 6.161,3.344 2.015,1.157 3.994,2.358 5.948,3.591 L 2.615,9.584 C 4.524,6.224 3.352,1.924 0,0 m -228.854,194.183 c -37.456,10.221 -68.673,34.482 -87.901,68.312 -39.709,69.862 -15.315,159.248 54.378,199.256 33.748,19.374 72.962,24.413 110.417,14.192 37.456,-10.221 68.673,-34.482 87.9,-68.311 9.631,-16.944 15.66,-35.141 17.997,-54.208 -12.161,1.527 -25.947,0.723 -37.213,-6.674 -11.145,-7.317 -14.542,-23.272 -7.135,-34.509 -3.172,-7.539 -2.487,-16.336 2.156,-23.366 4.629,-6.871 12.354,-11.125 20.667,-11.19 0.285,-0.431 0.582,-0.849 0.889,-1.256 -31.673,-42.645 -86.208,-61.796 -137.692,-47.747 -26.24,7.16 -48.11,24.157 -61.581,47.858 -13.477,23.711 -16.936,51.293 -9.739,77.666 2.553,9.356 -11.918,13.304 -14.471,3.949 -8.249,-30.226 -4.282,-61.843 11.169,-89.028 15.457,-27.194 40.556,-46.697 70.673,-54.916 12.569,-3.43 25.297,-5.088 37.889,-5.088 33.893,0 66.776,12.018 92.74,33.845 -11.205,-13.818 -24.916,-25.517 -40.726,-34.593 -33.748,-19.373 -72.961,-24.415 -110.417,-14.192 m 210.061,185.203 c 2.858,13.877 10.968,25.811 22.836,33.602 8.991,5.903 19.133,8.724 29.17,8.724 17.312,0 34.309,-8.398 44.523,-23.862 7.806,-11.82 10.534,-25.96 7.68,-39.818 -2.858,-13.877 -10.968,-25.811 -22.837,-33.602 -24.501,-16.084 -57.558,-9.292 -73.692,15.138 -7.807,11.819 -10.533,25.96 -7.68,39.818 M 91.748,425.47 c 2.021,9.649 6.459,22.483 16.127,28.829 4.595,3.018 10.797,1.745 13.82,-2.834 0.433,-0.655 0.784,-1.377 1.074,-2.205 1.273,-3.652 5.116,-5.739 8.87,-4.813 4.212,1.032 8.132,-1.041 10.722,-4.171 2.304,-3.487 2.149,-8.075 -0.386,-11.415 -3.663,-4.825 0.083,-8.229 2.529,-11.931 2.856,-5.358 1.911,-9.932 -2.837,-13.723 -16.454,-10.802 -43.567,-0.925 -50.854,2.063 l -1.121,1.695 c 0.05,3.348 0.373,10.472 2.056,18.505 m -133,-142.351 c -11.673,-7.659 -13.281,10.07 -21.972,10.07 -7.614,0 -20.278,4.63 -12.128,15.368 2.346,3.09 1.949,7.458 -0.917,10.073 -4.305,3.931 -3.784,12.295 1.225,15.581 13.524,8.88 39.699,5.876 51.969,-3.749 -0.129,-7.882 -1.75,-36.559 -18.177,-47.343 m -51.428,-75.52 c 20.224,15.559 36.328,35.579 47.286,58.936 23.062,1.203 33.348,29.94 36.134,49.048 22.708,-18.079 55.805,-19.624 80.072,-3.692 15.224,9.994 25.627,25.306 29.295,43.115 2.198,10.673 1.798,21.472 -1.021,31.682 16.399,-4.38 35.956,-5.774 50.813,3.979 11.148,7.318 14.54,23.272 7.135,34.51 6.825,16.223 -5.262,34.419 -22.823,34.557 -7.571,11.46 -23.076,14.648 -34.568,7.104 -15.811,-10.38 -21.638,-30.43 -23.763,-45.018 -22.455,17.881 -54.809,20.291 -80.069,3.707 -17.452,-11.457 -28.758,-30.597 -30.463,-51.39 -3.513,14.212 -8.972,27.897 -16.367,40.907 -21.213,37.324 -55.659,64.09 -96.992,75.37 -41.333,11.279 -84.601,5.72 -121.834,-15.654 -76.836,-44.108 -103.729,-142.655 -59.951,-219.677 21.214,-37.324 55.66,-64.091 96.992,-75.371 13.989,-3.817 28.196,-5.706 42.319,-5.706 20.388,0 40.592,3.95 59.688,11.705 L -22.496,-4.832 c 14.192,-24.966 51.977,-2.501 38.152,21.828 z"
             style="fill:#060606;fill-opacity:1;fill-rule:nonzero;stroke:none"
             id="path3378" /></g><g
           id="g3380"
           transform="translate(79.4409,398.1758)"><path
             d="m 0,0 c 3.23,-2.59 7.951,-2.072 10.543,1.16 19.997,24.942 52.763,35.64 83.476,27.26 16.095,-4.393 29.511,-14.819 37.775,-29.359 8.27,-14.55 10.393,-31.477 5.976,-47.661 -7.075,-25.921 -33.817,-41.28 -59.606,-34.244 -19.837,5.413 -31.549,26.039 -26.107,45.977 2.162,7.925 7.761,14.894 14.977,18.643 6.238,3.241 13.088,3.795 19.285,1.559 7.66,-2.762 12.186,-7.606 12.746,-13.641 0.471,-5.077 -2.014,-10.424 -5.909,-12.713 -2.24,-1.314 -10.415,-1.782 -10.914,2.208 3.789,-1.265 7.938,0.673 9.377,4.442 1.477,3.869 -0.463,8.204 -4.333,9.681 -7.09,2.707 -14.775,-0.175 -18.274,-6.851 -3.228,-6.159 -2.305,-15.268 5.707,-20.76 8.462,-5.801 17.951,-6.403 26.036,-1.652 8.936,5.25 14.259,16.113 13.246,27.032 -1.112,11.978 -9.347,21.588 -22.593,26.365 -10.18,3.671 -21.293,2.833 -31.289,-2.359 -11.027,-5.729 -19.24,-15.936 -22.533,-28.004 -7.619,-27.918 8.812,-56.807 36.628,-64.398 5.554,-1.516 11.14,-2.239 16.639,-2.239 27.947,0.001 53.657,18.679 61.387,47.005 5.469,20.038 2.839,40.999 -7.405,59.022 C 134.585,24.507 117.94,37.44 97.968,42.891 61.487,52.846 22.577,40.149 -1.16,10.543 -3.751,7.312 -3.232,2.591 0,0"
             style="fill:#060606;fill-opacity:1;fill-rule:nonzero;stroke:none"
             id="path3382" /></g><g
           id="g3384"
           transform="translate(490.835,33.918)"><path
             d="m 0,0 c -0.722,-0.299 -1.496,-0.506 -2.366,-0.633 -3.827,-0.557 -6.603,-3.933 -6.409,-7.796 0.21,-4.217 -2.254,-8.129 -6.131,-9.734 v -0.001 c -3.862,-1.599 -8.336,-0.575 -11.134,2.549 -1.475,1.646 -3.523,2.496 -5.59,2.496 -1.563,0 -3.137,-0.486 -4.476,-1.484 -0.708,-0.527 -1.406,-0.93 -2.128,-1.23 -2.448,-1.012 -5.139,-1.011 -7.579,0.004 -2.444,1.017 -4.346,2.931 -5.356,5.389 -7.48,18.206 7.366,42.948 11.684,49.537 l 1.868,0.773 C -29.903,38.247 -2.057,31.209 5.411,13.032 7.501,7.946 5.074,2.101 0,0 m -134.328,191.958 c -2.09,5.085 0.337,10.931 5.409,13.032 0.723,0.299 1.497,0.506 2.368,0.633 3.827,0.557 6.603,3.933 6.409,7.795 -0.21,4.218 2.254,8.13 6.131,9.735 v 0 c 1.216,0.503 2.491,0.747 3.757,0.747 2.755,0 5.46,-1.155 7.377,-3.296 2.59,-2.891 6.957,-3.328 10.066,-1.011 0.708,0.527 1.405,0.929 2.129,1.229 2.445,1.012 5.135,1.012 7.578,-0.003 2.444,-1.017 4.346,-2.931 5.356,-5.388 7.48,-18.207 -7.366,-42.949 -11.684,-49.538 L -91.3,165.12 c -7.715,1.623 -35.56,8.661 -43.028,26.838 M -20.399,50.613 c 21.82,18.651 30.331,49.958 18.847,77.908 -1.574,3.831 -5.956,5.66 -9.788,4.087 -3.831,-1.574 -5.661,-5.957 -4.087,-9.788 C -4.29,95.717 -17.23,64.558 -44.27,53.351 l -0.034,-0.014 c -13.08,-5.411 -27.475,-5.402 -40.533,0.03 -13.082,5.442 -23.258,15.671 -28.653,28.802 -11.139,27.109 1.808,58.276 28.859,69.477 15.915,6.589 34.098,5.004 48.647,-4.238 3.495,-2.222 8.13,-1.189 10.351,2.308 2.222,3.496 1.189,8.132 -2.308,10.353 -12.555,7.976 -27.223,11.501 -41.696,10.385 6.459,13.286 12.951,33.184 5.764,50.677 -2.535,6.171 -7.319,10.978 -13.471,13.537 -6.14,2.555 -12.907,2.562 -19.055,0.022 -6.799,4.547 -15.568,5.544 -23.35,2.322 v 0 c -7.781,-3.222 -13.293,-10.133 -14.913,-18.165 -12.691,-5.258 -18.765,-19.877 -13.541,-32.59 7.187,-17.494 25.767,-27.024 39.685,-31.881 -21.82,-18.649 -30.331,-49.958 -18.847,-77.907 6.922,-16.845 19.978,-29.969 36.766,-36.951 8.399,-3.494 17.227,-5.241 26.058,-5.241 1.749,0 3.498,0.089 5.245,0.226 -6.454,-13.287 -12.93,-33.165 -5.748,-50.644 2.535,-6.171 7.318,-10.978 13.47,-13.537 6.138,-2.554 12.904,-2.561 19.056,-0.023 4.121,-2.755 8.961,-4.206 13.869,-4.206 3.192,0 6.414,0.615 9.481,1.885 7.781,3.222 13.293,10.133 14.913,18.166 12.691,5.257 18.766,19.875 13.541,32.588 -7.187,17.495 -25.767,27.024 -39.685,31.881"
             style="fill:#060606;fill-opacity:1;fill-rule:nonzero;stroke:none"
             id="path3386" /></g><g
           id="g3388"
           transform="translate(256.772,36.2246)"><path
             d="m 0,0 c -1.59,-3.894 -5.472,-6.373 -9.676,-6.184 -3.87,0.194 -7.228,-2.608 -7.773,-6.436 -0.819,-5.763 -8.02,-10.138 -13.579,-7.867 -18.169,7.422 -25.272,35.353 -26.907,43.047 8.954,11.933 36.116,19.514 50.127,13.792 C -2.249,34.08 -0.167,25.919 -3.621,21.228 -5.913,18.114 -5.462,13.767 -2.578,11.19 0.645,8.309 1.125,3.885 0,0 m -120.703,-3.937 c -6.649,0 -13.405,1.262 -19.926,3.926 -13.106,5.354 -23.337,15.507 -28.809,28.589 -5.475,13.089 -5.53,27.544 -0.155,40.7 8.419,20.609 28.327,33.118 49.269,33.118 6.649,0 13.405,-1.263 19.926,-3.926 13.106,-5.354 23.337,-15.507 28.809,-28.59 5.475,-13.089 5.53,-27.543 0.155,-40.699 -8.419,-20.609 -28.327,-33.12 -49.269,-33.118 m -112.516,66.044 c -5.559,2.271 -7.641,10.432 -4.187,15.123 2.292,3.115 1.841,7.461 -1.043,10.039 -6.835,6.109 -2.061,17.797 7.098,17.373 3.862,-0.175 7.228,2.608 7.773,6.436 0.819,5.763 8.02,10.138 13.579,7.867 18.169,-7.422 25.272,-35.352 26.907,-43.046 -9.976,-11.738 -35.332,-19.835 -50.127,-13.792 M 11.49,17.701 c 5.108,12.506 -1.239,27.478 -13.626,32.536 -17.459,7.133 -37.264,0.584 -50.507,-5.93 2.183,29.066 -15.177,57.059 -42.083,68.048 -27.92,11.407 -59.129,2.775 -77.679,-19.144 -4.892,13.926 -14.455,32.485 -31.921,39.62 -12.718,5.196 -27.303,-0.945 -32.51,-13.69 0,-0.001 -10e-4,-0.002 -10e-4,-0.002 -8.01,-1.658 -14.888,-7.204 -18.076,-15.008 -3.189,-7.805 -2.162,-16.58 2.397,-23.371 0,-0.001 0,-0.002 0,-0.002 -2.521,-6.17 -2.494,-12.951 0.075,-19.094 10.388,-24.838 45.655,-16.566 64.057,-7.515 -0.795,-10.59 0.896,-21.289 5.108,-31.359 7.02,-16.786 20.151,-29.815 36.974,-36.687 26.903,-10.991 58.921,-3.029 77.682,19.137 4.893,-13.924 14.456,-32.479 31.919,-39.613 13.224,-5.402 26.515,1.703 32.511,13.693 8.01,1.657 14.888,7.203 18.076,15.007 v 0.001 c 3.188,7.804 2.161,16.579 -2.397,23.371 0,0 0,10e-4 10e-4,0.002"
             style="fill:#060606;fill-opacity:1;fill-rule:nonzero;stroke:none"
             id="path3390" /></g></g></g></g></svg>
