<?xml version="1.0"?>
<svg xmlns="http://www.w3.org/2000/svg" data-name="&#x421;&#x43B;&#x43E;&#x439; 1" id="&#x421;&#x43B;&#x43E;&#x439;_1" viewBox="0 0 2033.12 2039.06"><defs><style>.cls-1{fill:#ffe3b8;}.cls-2,.cls-4{fill:none;stroke-linecap:round;stroke-linejoin:round;stroke-width:39.06px;}.cls-2{stroke:#000;}.cls-3{fill:#fff;}.cls-4{stroke:#000100;}.cls-5{fill:#94ffff;}</style></defs><title/><path class="cls-1" d="M864.82,1706.28s-159-163.08-97.85-477,481.09-684.94,998.87-342.47,73.39,1125.26-73.39,1272-142.7,248.7-167.16,395.47S1325.53,2750,1215.45,2750s-277.24-93.77-252.78-362.86c0,0-4.08-101.93-77.46-154.93s-40.77-167.16,16.31-252.78S864.82,1706.28,864.82,1706.28Z" transform="translate(-733.44 -730.47)"/><path class="cls-2" d="M1679,1046.59c-180.52-172-490-130.5-610.36,11.44-152.38,179.73-222.38,542.93,69.88,705.66a272.68,272.68,0,0,0,68.62,26.29c56.92,13.79,178.71,50.44,169.31,110-12.23,77.46-260.93-12.23-293.55,130.46s8.15,212,69.31,232.39,65.23-48.92,69.31-150.85" transform="translate(-733.44 -730.47)"/><path class="cls-2" d="M1382.6,2338.22s-16.31-167.16,97.85-265c24.76-21.23,58-50.51,93.92-87.69" transform="translate(-733.44 -730.47)"/><path class="cls-2" d="M1788.68,2031.37c-36.63,57.77-70.86,102.11-96.22,127.46-146.77,146.77-142.7,248.7-167.16,395.47S1325.53,2750,1215.45,2750s-277.24-93.77-252.78-362.86c0,0-4.08-101.93-77.46-154.93s-40.77-167.16,16.31-252.78-36.69-273.16-36.69-273.16-159-163.08-97.85-477,481.09-684.94,998.87-342.47c80.25,53.08,137.38,116.73,176.1,187" transform="translate(-733.44 -730.47)"/><circle class="cls-3" cx="1036.71" cy="802.9" r="389.49"/><circle class="cls-4" cx="1036.71" cy="802.9" r="389.49"/><polyline class="cls-2" points="1961.29 286.37 2013.59 597.05 1804.3 373.79 1852.37 628.71 1690.99 499.5 1696.86 670.6 1573.48 609.64 1590.28 712.07 1510.2 680.66"/><polyline class="cls-2" points="1898.24 1338 1985.09 1035.15 1752.07 1233.51 1828.44 985.6 1653.58 1095.88 1678.61 926.52 1549.18 973.24 1577.37 873.35 1494.26 895.57"/><polyline class="cls-2" points="1498.38 1730.72 1719.44 1506.24 1419.94 1569.06 1605.54 1387.83 1399.23 1401.09 1502.19 1264.3 1366.17 1243.46 1438.68 1169.21 1355.07 1148.99"/><path class="cls-5" d="M1904.35,1548v-98.49a81.87,81.87,0,0,0-81.87-81.87h-87.81a81.87,81.87,0,0,0-81.87,81.87V1548l-94.93,151.88h441.41Z" transform="translate(-733.44 -730.47)"/><path class="cls-2" d="M1904.35,1548v-98.49a81.87,81.87,0,0,0-81.87-81.87h-87.81a81.87,81.87,0,0,0-81.87,81.87V1548l-94.93,151.88h441.41Z" transform="translate(-733.44 -730.47)"/><line class="cls-2" x1="1045.13" x2="1030.89" y1="969.42" y2="1016.89"/><line class="cls-2" x1="1045.13" x2="1045.13" y1="637.18" y2="561.24"/></svg>
