<?xml version="1.0" encoding="UTF-8"?>
<svg xmlns="http://www.w3.org/2000/svg" viewBox="0 0 256 256" width="512" height="512"><path d="M174.047,114.381l-9.159-33.876H60.633l-9.159,33.876s-13.6,44.173,2.061,69.025a5.073,5.073,0,0,0,4.267,2.478H167.719a5.071,5.071,0,0,0,4.267-2.478C187.648,158.554,174.047,114.381,174.047,114.381Z" fill="#87828e"/><path d="M73.964,185.884H57.8a5.065,5.065,0,0,1-4.266-2.477c-15.667-24.858-2.058-69.027-2.058-69.027l9.158-33.874H76.8L67.639,114.38S54.03,158.549,69.7,183.407A5.067,5.067,0,0,0,73.964,185.884Z" fill="#a4a4a5"/><path d="M171.984,183.407a5.054,5.054,0,0,1-4.267,2.477H151.554a5.053,5.053,0,0,0,4.267-2.477c15.667-24.858,2.069-69.027,2.069-69.027l-9.17-33.874h16.163l9.169,33.874S187.65,158.549,171.984,183.407Z" fill="#796e84"/><rect x="96.498" y="156.161" width="32.325" height="36.937" fill="#ffbb98"/><rect x="96.502" y="156.161" width="16.162" height="36.937" fill="#ffcaa6"/><path d="M69.282,41.944h86.756a6.783,6.783,0,0,1,6.783,6.783V108.7A50.161,50.161,0,0,1,112.66,158.86h0A50.161,50.161,0,0,1,62.5,108.7V48.727A6.783,6.783,0,0,1,69.282,41.944Z" fill="#ffbb98"/><path d="M162.821,48.726V108.7a50.147,50.147,0,0,1-58.238,49.5,50.333,50.333,0,0,0,42.076-49.5V48.726a6.8,6.8,0,0,0-6.788-6.777h16.162A6.8,6.8,0,0,1,162.821,48.726Z" fill="#ffaa80"/><path d="M120.745,158.2A50.157,50.157,0,0,1,62.5,108.7V48.726a6.806,6.806,0,0,1,6.788-6.777H85.447a6.806,6.806,0,0,0-6.789,6.777V108.7A50.333,50.333,0,0,0,120.745,158.2Z" fill="#ffcaa6"/><path d="M123.794,4.895H101.526A51.724,51.724,0,0,0,49.8,56.619v23.84a5.4,5.4,0,0,0,5.356,5.392c43.8.358,52.157-20.513,56.479-38.274,4.261,17.792,11.93,38.038,58.455,38.2a5.4,5.4,0,0,0,5.426-5.391V56.619A51.724,51.724,0,0,0,123.794,4.895Z" fill="#87828e"/><path d="M175.514,56.622V80.381a5.4,5.4,0,0,1-5.419,5.4,131.086,131.086,0,0,1-13.491-.7,5.4,5.4,0,0,0,2.748-4.7V56.622a51.728,51.728,0,0,0-51.72-51.73H123.8A51.728,51.728,0,0,1,175.514,56.622Z" fill="#796e84"/><path d="M65.965,56.622V80.456a5.4,5.4,0,0,0,2.791,4.731,110.349,110.349,0,0,1-13.6.668,5.406,5.406,0,0,1-5.355-5.4V56.622a51.728,51.728,0,0,1,51.72-51.73h16.162A51.729,51.729,0,0,0,65.965,56.622Z" fill="#a4a4a5"/><path d="M188.968,241.692c0,6.194-4.919,9.412-10.059,9.412H46.613c-5.556,0-10.059-3.841-10.059-8.58,0-38.608,35.888-65.842,76.2-65.842h.02C154.837,176.682,188.968,205.775,188.968,241.692Z" fill="#ffe2e2"/><path d="M120.3,177a83.993,83.993,0,0,0-36.2,11.462c-19.483,11.619-32.45,31.116-32.45,53.23v.832c0,4.736,4.5,8.58,10.059,8.58H46.616c-5.562,0-10.059-3.844-10.059-8.58v-.832c0-22.1,12.953-41.6,32.451-53.23a85.091,85.091,0,0,1,43.746-11.78h.02C115.309,176.682,117.824,176.785,120.3,177Z" fill="#ffefee"/><path d="M188.965,241.7c0,6.186-4.919,9.412-10.059,9.412H163.817c5.14,0,10.059-3.226,10.059-9.412,0-33.744-30.117-61.457-68.633-64.692q3.727-.323,7.5-.318h.021C154.834,176.686,188.965,205.772,188.965,241.7Z" fill="#ffcfcf"/><rect x="98.267" y="105.867" width="28.498" height="38.725" rx="14.249" fill="#ff4a73"/><path d="M139.939,152.045a6.379,6.379,0,0,0-8.383,3.687h0c.045-.132,3.343-8.993,3.392-9.124,1.372-3.695-.2-7.685-3.518-8.911-3.291-1.225-7.061.755-8.427,4.431l.048-.142,2.119-5.691c1.366-3.677-.195-7.654-3.5-8.886-3.7-1.247-7.194,1.062-8.453,4.443l-2.125,5.711c1.293-3.678-.321-7.654-3.724-8.8-3.259-1.1-6.935.881-8.281,4.5l-7.139,19.206.029.009-1.8,4.88c-3.57-7.707-3.5-7.76-4.363-8.752,0,0,0-.022-.016-.016a7.284,7.284,0,0,0-1.466-1.317.448.448,0,0,0-.174-.111c-5.66-4.179-14.216,2.3-10.941,9.387,7.644,16.547,8.433,17.367,8.432,21.288.017,4.364-1.465,7.917.067,12.011,2.255,6,.221,10.372-1.9,16.094L64.5,251.1H103.69l14.286-41.325c1.49-3.879,8.5-3.928,11.94-13.008,2.14-5.777.258-.707,11.081-29.858l.011,0,2.412-6.492A6.556,6.556,0,0,0,139.939,152.045Z" fill="#ffbb98"/><path d="M117.976,209.779c1.49-3.879,8.5-3.928,11.94-13.008,2.14-5.777.258-.707,11.081-29.858l.011,0,2.412-6.492a6.556,6.556,0,0,0-3.481-8.38,6.35,6.35,0,0,0-4.425-.14h0a6.365,6.365,0,0,1,.5,5.482l-2.505,6.743-.011,0c-10.823,29.151-8.941,24.081-11.081,29.858-3.439,9.08-10.451,9.129-11.94,13.007L95.25,251.1h8.44Z" fill="#ffaa80"/><path d="M81.64,177.836c.017,4.364-1.465,7.917.067,12.011,2.255,6,.221,10.372-1.9,16.094L64.5,251.1h8.371L87.3,208.727c2.126-5.722,4.16-10.093,1.905-16.094-1.532-4.094-.05-7.647-.067-12.011,0-3.921-.788-4.74-8.432-21.288-2.261-4.9,1.119-9.5,5.291-10.5l0,0c-.06-.072-.122-.145-.191-.225,0,0,0-.022-.016-.016a7.284,7.284,0,0,0-1.466-1.317.448.448,0,0,0-.174-.111c-5.66-4.179-14.216,2.3-10.941,9.387C80.852,173.1,81.64,173.915,81.64,177.836Z" fill="#ffcaa6"/><path d="M138.071,30.928a28.839,28.839,0,0,1,15.017,17.86,4,4,0,0,0,7.685-2.225A36.852,36.852,0,0,0,141.582,23.74a4,4,0,1,0-3.511,7.188Z" fill="#5f266d"/><path d="M154.222,62.024V65.68a4,4,0,0,0,8,0V62.024a4,4,0,0,0-8,0Z" fill="#5f266d"/><path d="M165.66,189.884h2.057a9.037,9.037,0,0,0,7.65-4.345c16.3-25.843,3.347-69.583,2.529-72.266l-6.386-23.6a9.4,9.4,0,0,0,8.008-9.285V56.619A55.786,55.786,0,0,0,123.794.9H101.526A55.787,55.787,0,0,0,45.8,56.619v23.84a9.421,9.421,0,0,0,8.188,9.306l-6.357,23.507c-.82,2.688-13.776,46.425,2.521,72.272a9.071,9.071,0,0,0,7.647,4.34h1.916c-.927.7-1.842,1.421-2.736,2.164-15.752,13.08-24.427,31.007-24.427,50.476,0,6.937,6.306,12.58,14.059,12.58h132.3c6.986,0,14.059-4.607,14.059-13.412C192.968,221.066,182.39,202.536,165.66,189.884Zm2.933-8.6a1.118,1.118,0,0,1-.876.6H152.69a86.3,86.3,0,0,0-11.268-4.625l5.747-15.441a10.762,10.762,0,0,0-1.525-10.241A54.1,54.1,0,0,0,166.825,108.7v-5.718l3.366,12.441c.012.043.025.088.038.131C170.359,115.981,183.093,158.287,168.593,181.284Zm-35.768-47.336a9.8,9.8,0,0,0-2.322-.556,17.9,17.9,0,0,0,.261-3.048V120.116a18.249,18.249,0,1,0-36.5,0v10.228a17.876,17.876,0,0,0,.344,3.463l-4.934,13.275a14.4,14.4,0,0,0-3.42-3.331,10.66,10.66,0,0,0-5.654-1.9A46.082,46.082,0,0,1,66.5,108.7V89.431c14.958-1.289,26.28-5.563,34.4-12.967A43.491,43.491,0,0,0,111.6,60.889c5.737,13.8,17.341,25.928,47.223,28.415v19.4a46.132,46.132,0,0,1-19.676,37.745,11.445,11.445,0,0,0-.713-7.239A9.978,9.978,0,0,0,132.825,133.948Zm-21.087-7.261a9.808,9.808,0,0,0-3.1-1.716,9.916,9.916,0,0,0-6.373.021v-4.876a10.249,10.249,0,1,1,20.5,0v3.449A10.538,10.538,0,0,0,111.738,126.687ZM53.8,56.619A47.777,47.777,0,0,1,101.526,8.9h22.268a47.777,47.777,0,0,1,47.724,47.723V80.385a1.355,1.355,0,0,1-.408.978,1.548,1.548,0,0,1-1,.413c-42.669-.148-50.165-16.7-54.579-35.13a4,4,0,0,0-3.882-3.069h-.008a4,4,0,0,0-3.887,3.054c-4.189,17.214-12.014,35.581-52.56,35.22A1.4,1.4,0,0,1,53.8,80.459Zm4,125.265a1.146,1.146,0,0,1-.883-.612c-14.492-22.984-1.749-65.29-1.618-65.715.013-.043.026-.088.038-.131l3.162-11.69V108.7a54.011,54.011,0,0,0,13.919,36.162,11.3,11.3,0,0,0-2.842,13.36c1.389,3.008,2.552,5.5,3.526,7.58,4.325,9.256,4.538,9.818,4.537,12.046,0,.6-.032,1.2-.085,1.8-1.656.695-3.289,1.434-4.889,2.229Zm-17.247,60.64c0-23.536,14.62-43.595,36.672-54.065a14.573,14.573,0,0,0,.737,2.795c1.548,4.12.436,7.067-1.407,11.95L61.628,247.1H46.613C43.329,247.1,40.554,245.007,40.554,242.524Zm29.521,4.58,13.967-41.076c1.975-5.235,4.018-10.649,1.411-17.584-.667-1.781-.458-3.5-.169-5.886a37.435,37.435,0,0,0,.356-4.722c0-4.1-.7-5.607-5.289-15.418-.97-2.074-2.128-4.553-3.512-7.548a3.3,3.3,0,0,1,1.011-4.136c.965-.787,2.676-1.478,3.923-.355.672.605,1.46,1.491,3.1,5.055l1.664,3.6a4,4,0,0,0,7.381-.3l8.91-24.087c.584-1.568,2.046-2.514,3.254-2.1a1.957,1.957,0,0,1,1.145,1.059,3.436,3.436,0,0,1,.084,2.624l0,.012L99.6,157a4,4,0,1,0,7.5,2.787l9.86-26.54c.42-1.131,1.66-2.6,3.362-2.069,1.173.481,1.675,2.167,1.1,3.72l-9.861,26.545a4,4,0,1,0,7.5,2.786l7.688-20.7.006-.012a3.532,3.532,0,0,1,1.6-1.906,1.934,1.934,0,0,1,2.812.937,3.506,3.506,0,0,1,.033,2.657c-.031.081-7.683,20.677-7.683,20.677a4,4,0,1,0,7.5,2.786L135.3,157.13l0,0a2.378,2.378,0,0,1,3.128-1.374h0a2.576,2.576,0,0,1,1.236,3.281s-11.9,32.014-12.889,34.687l-.606,1.635c-1.615,4.266-4.14,5.895-6.582,7.47-2.013,1.3-4.3,2.771-5.351,5.521-.016.042-.032.084-.047.127L100.84,247.1Zm108.834,0h-69.6l12.412-35.9a10.763,10.763,0,0,1,2.213-1.654c2.859-1.844,7.179-4.631,9.737-11.386l.616-1.663c.891-2.406.981-2.65,4.356-11.742,27.065,8.81,46.329,31,46.329,56.937C184.968,246.952,179.529,247.1,178.909,247.1Z" fill="#5f266d"/><path d="M95.7,94.693a25.04,25.04,0,0,0-19.354,0,4,4,0,0,0,3,7.418,17.058,17.058,0,0,1,13.362,0,4,4,0,0,0,3-7.418Z" fill="#5f266d"/><path d="M145.69,102.111a4,4,0,0,0,3-7.418,25.044,25.044,0,0,0-19.354,0,4,4,0,1,0,3,7.418A17.058,17.058,0,0,1,145.69,102.111Z" fill="#5f266d"/><path d="M199.924,103.334h-3.491l6.868-10.82a4,4,0,0,0-3.377-6.144H189.156a4,4,0,0,0,0,8h3.491l-6.868,10.821a4,4,0,0,0,3.377,6.143h10.768a4,4,0,1,0,0-8Z" fill="#5f266d"/><path d="M219.446,71.312h-7.235l10.612-16.72a4,4,0,0,0-3.377-6.143H204.934a4,4,0,0,0,0,8h7.235L201.557,73.168a4,4,0,0,0,3.377,6.144h14.512a4,4,0,0,0,0-8Z" fill="#5f266d"/><path d="M189.156,8.9H202.19L185.779,34.75a4,4,0,0,0,3.377,6.144h20.311a4,4,0,0,0,0-8H196.433L212.844,7.039A4,4,0,0,0,209.467.9H189.156a4,4,0,0,0,0,8Z" fill="#5f266d"/></svg>
