<svg id="Capa_1" enable-background="new 0 0 512 512" height="512" viewBox="0 0 512 512" width="512" xmlns="http://www.w3.org/2000/svg"><g><g><path d="m132.805 310.414h-7.328c-30.173 0-54.633 24.46-54.633 54.633v134.453c0 2.761 2.239 5 5 5h160.217c2.761 0 5-2.239 5-5v-80.829c0-59.789-48.468-108.257-108.256-108.257z" fill="#62dbfb"/><path d="m151.685 312.058c40.194 17.103 68.377 56.956 68.377 103.393v83.861c0 2.865-2.323 5.188-5.188 5.188h21.188c2.761 0 5-2.239 5-5v-80.829c-.001-53.348-38.59-97.68-89.377-106.613z" fill="#01c0fa"/><path d="m188.939 32.346 20.363 2.144 20.138-16.358c13.025-10.58 30.666-13.504 46.408-7.692l88.461 32.661c14.235 5.256 25.837 14.579 33.937 26.192 24.728 35.458 8.789 85.451-31.937 99.949-1.522.542-3.034 1.001-4.527 1.37l-34.358 8.495-120.506 51.84-49.52 38.311-36.797-16.178c-5.993-2.635-9.313-9.114-7.953-15.517l37.629-177.132c3.799-17.876 20.485-29.999 38.662-28.085z" fill="#685e68"/><path d="m398.246 69.294c-8.099-11.614-19.702-20.937-33.937-26.192l-5.525-2.04c7.44 5.053 13.771 11.365 18.778 18.544 25.159 36.076 8.942 86.94-32.493 101.69-1.549.551-3.087 1.019-4.606 1.394l-34.956 8.643-122.605 52.743-46.481 35.961 20.979 9.223 49.52-38.311 120.506-51.84 34.358-8.495c1.493-.369 3.005-.828 4.527-1.37 40.724-14.498 56.663-64.492 31.935-99.95z" fill="#554e56"/><path d="m351.217 133.87-22.623-9.946c-23.699-10.419-60.316 2.989-87.682 64.739-1.304 2.942-4.761 4.305-7.707 3.01l-37.687-16.569-52.064 88.026-12.172 49.809c-.468 1.915-.016 3.931 1.203 5.48 14.953 19 35.242 39.317 61.263 43.934 5.979 1.061 11.574-3.019 12.427-9.031l7.355-51.862c.504-3.555 4.262-5.646 7.549-4.201l30.34 13.339c16.046 7.054 34.779-.087 42.059-16.033l17.504-38.335c.791-1.731 2.617-2.704 4.508-2.483 7.759.907 15.303-2.854 18.376-9.844 2.755-6.266 1.174-13.427-3.447-18.518-2.151-2.37-2.728-5.771-1.399-8.683l29.304-64.184c3.242-7.117.042-15.505-7.107-18.648z" fill="#ffa78f"/><path d="m205.512 152.379c14.805 6.509 21.53 23.787 15.021 38.592l-21.692 22.451-16.9-7.43c-14.805-6.509-21.53-23.787-15.021-38.592s23.787-21.53 38.592-15.021z" fill="#ffa78f"/><g><path d="m112.141 352.161c-22.807 0-41.297 18.489-41.297 41.297v63.071h82.593v-63.071c.001-22.808-18.488-41.297-41.296-41.297z" fill="#eaf6ff"/><path d="m70.844 456.529v42.971c0 2.761 2.239 5 5 5h77.593v-47.971z" fill="#ffa78f"/></g><path d="m333.781 283.181c-16.038-11.189-30.475-21.161-31.851-21.766-15.409-6.775-32.736-1.268-38.701 12.299-5.766 13.115 1.607 28.19 15.587 36.121.986.559 2.411 1.435 4.011 2.445 7.483 4.724 12.031 12.948 12.031 21.797v89.672c0 7.93 6.428 14.358 14.358 14.358s14.358-6.428 14.358-14.358v-11.562c0-7.457 6.045-13.501 13.501-13.501s13.502 6.045 13.502 13.501v27.146c0 7.93 6.428 14.358 14.358 14.358s14.358-6.428 14.358-14.358v-68.889c.001-34.776-16.991-67.365-45.512-87.263z" fill="#a2e62e"/><path d="m333.781 283.181c-12.854-8.968-24.673-17.149-29.57-20.357 3.351 2.326 6.918 4.809 10.57 7.357 28.521 19.899 45.513 52.488 45.513 87.264v81.889c0 4.282-1.885 8.115-4.858 10.746 2.533 2.241 5.853 3.612 9.5 3.612 7.93 0 14.358-6.428 14.358-14.358v-68.889c0-34.777-16.992-67.366-45.513-87.264z" fill="#80d261"/><path d="m412.238 307.864c-3.497-.343-6.436 2.596-6.093 6.093.751 7.658 2.59 19.808 6.871 24.089 6.437 6.437 16.874 6.437 23.311 0s6.437-16.874 0-23.311c-4.28-4.281-16.43-6.119-24.089-6.871z" fill="#a2e62e"/><path d="m315.546 465.144c-2.23-2.716-6.386-2.716-8.617 0-4.884 5.946-12.175 15.838-12.175 21.892 0 9.104 7.38 16.483 16.483 16.483 9.104 0 16.483-7.38 16.483-16.483.001-6.054-7.29-15.945-12.174-21.892z" fill="#bbec6c"/></g><g><path d="m353.901 180.272c2.648-1.292 45.405-5.077 60.058-50.811 7.087-22.118 3.61-45.622-9.541-64.486-9.272-13.29-22.237-23.296-37.496-28.936l-88.466-32.663c-18.137-6.695-38.729-3.283-53.738 8.905l-17.725 14.398-17.261-1.815c-22.046-2.326-42.171 12.279-46.787 33.983l-4.9 23.081c-.86 4.052 1.727 8.034 5.779 8.895 4.051.862 8.035-1.727 8.895-5.779l4.9-23.079c3.013-14.167 16.141-23.706 30.542-22.182l20.361 2.14c1.98.207 3.966-.381 5.513-1.638l20.14-16.36c10.918-8.865 25.895-11.345 39.087-6.477l88.461 32.661c12.371 4.573 22.88 12.681 30.39 23.446 10.452 14.994 13.208 33.702 7.56 51.329-6.115 19.085-20.894 32.789-37.791 37.905l3.275-7.174c4.981-10.916.101-23.797-10.906-28.632l-22.631-9.951c-15.261-6.709-32.833-4.642-49.477 5.823-18.073 11.364-34.446 32.526-47.419 61.266l-4.339-1.907c1.233-15.318-7.396-30.367-21.85-36.721-18.611-8.183-40.296.256-48.479 18.869-3.955 8.995-4.17 18.991-.606 28.148 2.023 5.198 5.129 9.769 9.079 13.476l-28.147 47.587-16.766-7.374c-2.722-1.195-4.248-4.18-3.63-7.095l25.452-119.817c.86-4.052-1.727-8.035-5.778-8.896-4.057-.859-8.035 1.727-8.896 5.778l-25.452 119.819c-2.087 9.836 3.074 19.906 12.268 23.943l17.091 7.517-8.661 35.45h-.53c-34.266 0-62.144 27.878-62.144 62.144v134.457c0 6.893 5.608 12.501 12.501 12.501h160.229c6.893 0 12.501-5.608 12.501-12.501v-80.835c0-30.421-11.571-58.876-32.657-80.566l4.667-32.882 27.835 12.238c9.561 4.2 20.224 4.445 29.854.8.19.119.363.227.567.356 5.345 3.375 8.536 9.152 8.536 15.456v89.677c0 12.053 9.806 21.859 21.86 21.859 12.052 0 21.859-9.806 21.859-21.859v-11.563c0-3.309 2.693-6.002 6.002-6.002s6.001 2.693 6.001 6.002v27.148c0 12.053 9.806 21.859 21.86 21.859 12.053 0 21.86-9.806 21.86-21.859v-21.358c0-4.142-3.358-7.5-7.5-7.5s-7.5 3.358-7.5 7.5v21.359c0 3.781-3.077 6.858-6.859 6.858s-6.859-3.077-6.859-6.858v-27.148c0-11.581-9.421-21.003-21.002-21.003s-21.003 9.422-21.003 21.003v11.563c0 3.781-3.076 6.858-6.858 6.858s-6.859-3.077-6.859-6.858v-89.677c0-14.228-7.658-23.861-19.841-30.77-11.181-6.343-16.407-17.521-12.426-26.578 4.26-9.687 17.027-13.493 28.556-8.567 3.607 2.16 27.8 19.043 30.844 21.167 26.491 18.483 42.306 48.807 42.306 81.118v12.531c0 4.142 3.358 7.5 7.5 7.5s7.5-3.358 7.5-7.5v-12.531c0-37.21-18.215-72.133-48.724-93.42-9.918-6.92-16.759-11.656-21.53-14.926l.34-.744c10.394.359 19.805-5.248 23.843-14.44 3.844-8.734 1.98-19.169-4.749-26.581-.114-.126-.219-.339-.133-.527zm-207.961 268.753h-67.602v-55.487c0-.029.004-.058.004-.087 0-18.637 15.162-33.799 33.799-33.799 18.636 0 33.798 15.162 33.798 33.799v55.574zm-67.602 15.001h67.601v32.973h-67.601zm155.229 32.973h-72.627v-103.548c0-26.908-21.891-48.8-48.799-48.8-12.834 0-24.52 4.988-33.24 13.117 3.437-22.098 22.279-39.153 45.164-39.833.478 1.822 1.313 3.563 2.523 5.114 21.548 27.367 43.089 42.635 65.857 46.677 9.126 1.618 17.697-3.796 20.427-12.266 13.432 17.461 20.694 38.716 20.694 61.204v78.335zm88.644-283.433c-2.566 5.614-1.52 12.223 2.667 16.84 2.797 3.081 3.613 7.088 2.127 10.463-1.661 3.785-5.929 5.962-10.637 5.407-5.151-.603-10.06 2.143-12.199 6.825l-.426.932c-18.868-7.608-39.913-.318-47.373 16.649-5.111 11.624-2.52 24.764 5.964 35.041-2.685-.22-5.349-.886-7.888-2.001l-30.336-13.338c-3.74-1.649-7.93-1.455-11.497.533-3.567 1.985-5.938 5.444-6.504 9.477l-7.361 51.866c-.257 1.816-1.895 3.012-3.683 2.696-18.879-3.353-37.327-16.7-56.369-40.779l11.777-48.201 30.815-52.097 14.537 6.392c3.784 1.663 8.214-.047 9.885-3.847 1.667-3.792-.055-8.218-3.847-9.885l-16.9-7.431c-11.021-4.845-16.021-17.686-11.174-28.709 4.845-11.021 17.686-16.022 28.709-11.174 9.767 4.294 15.048 15.283 12.284 25.561-.961 3.576.831 7.318 4.219 8.812.101.045 11.136 4.912 11.748 5.135 7.272 2.647 14.326-.929 17.024-7.051 17.564-39.628 48.434-73.83 77.809-60.917l22.634 9.952c3.291 1.444 4.82 5.324 3.294 8.668z"/><path d="m297.301 203.034-12.488-5.49c-3.793-1.666-8.218.056-9.885 3.847-1.667 3.792.056 8.218 3.848 9.885l12.488 5.49c3.792 1.666 8.217-.053 9.885-3.847 1.667-3.793-.056-8.218-3.848-9.885z"/><path d="m311.284 178.044c-3.883.251-11.345-.616-17.63-9.278-2.434-3.354-7.124-4.098-10.475-1.666-3.353 2.433-4.099 7.123-1.666 10.476 7.392 10.188 18.44 16.232 30.744 15.438 4.133-.269 7.267-3.837 6.998-7.971-.268-4.134-3.868-7.262-7.971-6.999z"/><path d="m316.383 310.025c-3.462 2.274-4.426 6.924-2.151 10.386 8.59 13.082 13.132 28.383 13.132 44.249 0 4.142 3.358 7.5 7.5 7.5 4.143 0 7.5-3.358 7.5-7.5 0-18.8-5.392-36.948-15.595-52.483-2.273-3.463-6.924-4.426-10.386-2.152z"/><path d="m441.65 309.421c-1.706-1.706-6.899-6.898-28.663-9.033-3.908-.382-7.745.989-10.522 3.767-2.777 2.777-4.152 6.613-3.768 10.523 2.134 21.764 7.326 26.956 9.033 28.663 4.675 4.675 10.817 7.013 16.959 7.013s12.285-2.338 16.961-7.014c9.35-9.351 9.35-24.567 0-33.919zm-10.607 23.312c-3.503 3.503-9.203 3.504-12.706 0-.811-.81-3.09-5.438-4.458-17.163 11.725 1.368 16.353 3.648 17.163 4.458 3.503 3.503 3.503 9.203.001 12.705z"/><path d="m311.248 455.604c-3.928 0-7.611 1.741-10.104 4.777-13.88 16.899-13.88 24.241-13.88 26.654 0 13.225 10.759 23.985 23.985 23.985 13.225 0 23.985-10.759 23.985-23.985 0-2.412 0-9.753-13.881-26.654-2.493-3.035-6.176-4.777-10.105-4.777zm.001 40.415c-4.953 0-8.984-4.03-8.984-8.984 0-1.146 1.66-6.029 8.984-15.288 7.324 9.26 8.984 14.143 8.984 15.288 0 4.954-4.03 8.984-8.984 8.984z"/></g></g></svg>