<svg viewBox="0 0 96 96" xmlns="http://www.w3.org/2000/svg"><g id="Layer_1"/><g id="Layer_2"/><g id="Layer_3"/><g id="Layer_4"><g><g><circle cx="48" cy="48.002" fill="#ffd93b" r="42.038"/><g fill="#202730"><path d="m48 91.997c-24.262 0-44-19.738-44-43.997s19.738-43.997 44-43.997 44 19.738 44 43.997-19.738 43.997-44 43.997zm0-84.075c-22.099 0-40.075 17.981-40.075 40.078s17.976 40.078 40.075 40.078 40.075-17.981 40.075-40.078-17.976-40.078-40.075-40.078z"/><path d="m61.836 71.975c-.595 0-1.184-.268-1.568-.777-2.89-3.843-7.476-6.136-12.268-6.136-4.791 0-9.376 2.293-12.266 6.136-.65.859-1.883 1.04-2.746.383-.866-.651-1.04-1.877-.387-2.748 3.626-4.817 9.383-7.69 15.4-7.69 6.018 0 11.775 2.874 15.402 7.69.653.87.479 2.096-.387 2.748-.355.268-.769.394-1.18.394z"/><path d="m27.307 48.854c-2.586 0-4.213-.723-4.335-.777-.984-.454-1.415-1.62-.962-2.605.449-.974 1.6-1.407 2.582-.969.178.077 3.881 1.593 9.105-1.472.932-.564 2.135-.241 2.685.701.547.931.234 2.135-.701 2.682-3.265 1.914-6.168 2.44-8.374 2.44z"/><path d="m68.695 48.854c-2.206 0-5.11-.525-8.375-2.441-.935-.547-1.248-1.752-.701-2.682.547-.941 1.75-1.264 2.685-.701 5.242 3.076 8.951 1.538 9.108 1.472.981-.427 2.142.011 2.578.996.438.98.015 2.129-.961 2.578-.121.055-1.748.778-4.334.778z"/></g></g></g></g></svg>