<svg height="512" viewBox="0 0 48 48" width="512" xmlns="http://www.w3.org/2000/svg"><g id="_8-so-sad" data-name="8-so-sad"><circle cx="24" cy="24" fill="#ffd241" r="23"/><path d="m43.48059 11.77783a22.99863 22.99863 0 0 1 -40.96118 20.44434 22.99931 22.99931 0 1 0 40.96118-20.44434z" fill="#ffb028"/><path d="m24 48a24 24 0 1 1 24-24 24.0275 24.0275 0 0 1 -24 24zm0-46a22 22 0 1 0 22 22 22.02489 22.02489 0 0 0 -22-22z"/><path d="m34.05762 36.3335a10.56324 10.56324 0 0 0 -20.11475 0l-1.88574-.667a12.56185 12.56185 0 0 1 23.88525 0z"/><path d="m32 19a5.00588 5.00588 0 0 1 -5-5h2a3 3 0 0 0 6 0h2a5.00588 5.00588 0 0 1 -5 5z"/><path d="m16 19a5.00588 5.00588 0 0 1 -5-5h2a3 3 0 0 0 6 0h2a5.00588 5.00588 0 0 1 -5 5z"/></g></svg>