<svg id="Capa_1" enable-background="new 0 0 510.069 510.069" height="512" viewBox="0 0 510.069 510.069" width="512" xmlns="http://www.w3.org/2000/svg"><g><circle cx="255.034" cy="254.034" fill="#fee565" r="247.534"/><path d="m84.411 254.034c0-123.628 90.646-226.087 209.091-244.563-12.532-1.955-25.386-2.971-38.468-2.971-136.709 0-247.534 110.825-247.534 247.534s110.825 247.534 247.534 247.534c13.081 0 25.935-1.016 38.468-2.971-118.445-18.476-209.091-120.935-209.091-244.563z" fill="#fdd62f"/><g><path d="m470.054 377.963c-3.527-2.167-8.147-1.063-10.315 2.468-21.097 34.364-50.736 63.104-85.715 83.113-36.054 20.624-77.2 31.525-118.989 31.525-88.612 0-169.713-48.56-211.65-126.73-1.959-3.649-6.505-5.021-10.155-3.063-3.649 1.958-5.021 6.504-3.063 10.155 44.556 83.048 130.721 134.639 224.869 134.639 44.397 0 88.119-11.586 126.438-33.505 37.155-21.254 68.641-51.783 91.05-88.285 2.165-3.531 1.06-8.15-2.47-10.317z"/><path d="m30.532 340.114c-10.306-27.179-15.532-55.804-15.532-85.08 0-54.879 19.011-108.539 53.531-151.095 2.609-3.217 2.117-7.94-1.1-10.549-3.218-2.609-7.941-2.117-10.549 1.1-36.681 45.219-56.882 102.235-56.882 160.544 0 31.099 5.554 61.513 16.507 90.398 1.137 2.998 3.987 4.843 7.014 4.843.884 0 1.783-.157 2.658-.489 3.873-1.469 5.822-5.799 4.353-9.672z"/><path d="m435.37 74.698c-48.169-48.17-112.214-74.698-180.336-74.698-65.754 0-128.189 24.958-175.801 70.277-3 2.856-3.117 7.603-.262 10.604 2.857 3.001 7.603 3.118 10.604.262 44.81-42.653 103.572-66.143 165.459-66.143 64.115 0 124.394 24.968 169.729 70.304 45.337 45.337 70.305 105.615 70.305 169.73 0 34.11-7.014 67.073-20.848 97.972-1.692 3.78.001 8.217 3.781 9.91.995.446 2.036.657 3.061.657 2.865 0 5.603-1.652 6.85-4.438 14.702-32.84 22.156-67.865 22.156-104.101.001-68.122-26.528-132.167-74.698-180.336z"/><ellipse cx="156.733" cy="184.306" rx="23.944" ry="23.944" transform="matrix(.422 -.907 .907 .422 -76.495 248.638)"/><ellipse cx="353.336" cy="184.306" rx="23.944" ry="23.944" transform="matrix(.915 -.403 .403 .915 -44.306 157.93)"/><path d="m254.534 374.4c-36.94 0-70.478-23.233-83.45-57.813-1.455-3.878-5.775-5.843-9.657-4.388-3.878 1.455-5.843 5.778-4.388 9.657 7.367 19.635 20.354 36.428 37.557 48.564 17.602 12.417 38.327 18.98 59.938 18.98s42.337-6.563 59.938-18.98c17.203-12.136 30.189-28.929 37.557-48.564 1.455-3.878-.51-8.202-4.388-9.657-3.877-1.454-8.201.509-9.657 4.388-12.972 34.58-46.509 57.813-83.45 57.813z"/></g></g></svg>