<svg id="Capa_1" enable-background="new 0 0 512.009 512.009" viewBox="0 0 512.009 512.009" xmlns="http://www.w3.org/2000/svg"><g><g><g><path d="m368.596 341.589h-230.493c-15.397 0-27.879-12.482-27.879-27.879v-97.46h286.25v97.46c.001 15.397-12.481 27.879-27.878 27.879z" fill="#7c747f"/></g><g><path d="m431.557 450.594c-5.261-23.43-24.994-40.818-48.899-43.09l-84.548-8.035-45.867 4.868-45.867-4.868-84.548 8.035c-23.906 2.272-43.638 19.66-48.899 43.09l-8 35.627c-2.105 9.376 5.026 18.286 14.636 18.286h345.357c9.61 0 16.741-8.91 14.636-18.286z" fill="#be92ee"/></g><g><path d="m439.557 486.222-8-35.628c-4.026-17.929-16.531-32.311-32.89-39.098 1.206 2.91 2.183 5.946 2.89 9.096l8 35.628c2.105 9.376-5.026 18.286-14.636 18.286h-327.361l-2.631 11.716c-2.105 9.376 5.026 18.286 14.636 18.286h345.357c9.61 0 16.741-8.91 14.635-18.286z" fill="#b077ea"/></g><g><path d="m287.837 350.265 7.129-43.934h-44.344-44.344l7.129 43.934c2.367 14.584.612 29.54-5.066 43.181-6.811 16.36-2.106 35.251 11.583 46.505 17.838 14.666 43.559 14.666 61.396 0 13.688-11.255 18.393-30.145 11.583-46.505-5.678-13.641-7.433-28.596-5.066-43.181z" fill="#efc0ae"/></g><g><path d="m252.244 10.742c-100.785-22.212-187.388 73.801-154.934 171.769l11.177 33.74h143.757 143.757l11.177-33.74c32.453-97.968-54.149-193.981-154.934-171.769z" fill="#7c747f"/></g><g><circle cx="128.473" cy="240.642" fill="#efc0ae" r="30.461"/></g><g><circle cx="376.014" cy="240.642" fill="#efc0ae" r="30.461"/></g><g><path d="m368.455 133.986-116.212-59.92-116.212 59.92.433 43.671c-7.109 160.465 75.155 180.777 115.779 180.777s122.888-20.312 115.779-180.777z" fill="#f5d9cb"/></g><g><path d="m222.243 10.741c5.041-1.111 10.044-1.913 15-2.447-9.971-1.074-19.743-1.006-29.214.077 4.699.534 9.441 1.319 14.214 2.37z" fill="#68636d"/></g><g><path d="m266.457 8.371c79.954 9.145 138.285 90.928 110.72 174.14l-11.177 33.739h30l11.177-33.739c30.917-93.328-46.212-184.879-140.72-174.14z" fill="#68636d"/></g><g><path d="m368.182 161.543h-30l-.16 16.114c6.315 142.532-57.881 174.484-100.779 179.846 5.397.675 10.46.932 15 .932 40.624 0 122.888-20.312 115.779-180.777z" fill="#efc0ae"/></g><g><path d="m252.243 64.065-126.212 69.922s9.906 62.638 10.104 71.377c53.355-.047 89.61-36.391 106.055-57.3 5.122-6.512 14.984-6.512 20.106 0 16.445 20.909 52.7 57.253 106.055 57.3.198-8.74 10.104-72.377 10.104-72.377z" fill="#7c747f"/></g></g><g><path d="m190.955 243.964c-2.285 3.455-1.336 8.108 2.119 10.393 1.273.842 2.709 1.245 4.13 1.245 2.433 0 4.82-1.183 6.263-3.364 1.13-1.709 4.303-3.549 8.599-3.549s7.468 1.84 8.598 3.549c2.285 3.454 6.938 4.404 10.393 2.119 3.455-2.284 4.404-6.937 2.12-10.393-4.19-6.338-12.28-10.275-21.11-10.275-8.832-.001-16.922 3.937-21.112 10.275z"/><path d="m275.877 254.356c3.454 2.283 8.108 1.336 10.393-2.119 1.13-1.709 4.303-3.549 8.599-3.549s7.468 1.84 8.599 3.549c1.443 2.182 3.829 3.364 6.263 3.364 1.42 0 2.856-.403 4.13-1.245 3.455-2.284 4.404-6.938 2.119-10.393-4.191-6.338-12.28-10.275-21.11-10.275s-16.919 3.938-21.11 10.275c-2.286 3.456-1.338 8.109 2.117 10.393z"/><path d="m238.579 280.313c3.454 2.284 8.107 1.336 10.393-2.118.45-.681 2.143-1.64 4.495-1.64s4.044.959 4.495 1.64c1.443 2.182 3.829 3.363 6.262 3.363 1.42 0 2.857-.403 4.131-1.245 3.455-2.285 4.403-6.938 2.118-10.394-3.413-5.159-9.929-8.364-17.005-8.364s-13.593 3.205-17.005 8.364c-2.287 3.456-1.339 8.109 2.116 10.394z"/><path d="m293.341 300.407c-3.248 0-4.514-.532-6.613-1.414-2.742-1.152-6.153-2.586-12.424-2.586s-9.683 1.434-12.425 2.586c-2.099.882-3.365 1.414-6.613 1.414-3.249 0-4.516-.532-6.615-1.414-2.742-1.152-6.154-2.586-12.425-2.586s-9.684 1.434-12.425 2.586c-2.099.882-3.367 1.414-6.615 1.414-4.142 0-7.5 3.357-7.5 7.5s3.358 7.5 7.5 7.5c6.272 0 9.684-1.434 12.426-2.586 2.099-.882 3.366-1.414 6.615-1.414s4.516.532 6.615 1.414c2.742 1.152 6.154 2.586 12.426 2.586 6.271 0 9.683-1.434 12.424-2.586 2.099-.882 3.366-1.414 6.614-1.414s4.514.532 6.613 1.414c2.742 1.152 6.153 2.586 12.424 2.586 4.142 0 7.5-3.357 7.5-7.5s-3.36-7.5-7.502-7.5z"/><path d="m465.166 64.159c-6.274-2.614-13.402-5.204-21.277-7.743 6.306-6.194 8.759-12.199 7.523-18.17-1.968-9.505-12.614-15.352-32.546-17.875-15.156-1.918-39.864-1.7-64.879.093-29.975-18.427-65.894-24.876-101.744-17.393-34.184-7.136-68.344-1.708-97.58 14.94-.001 0-.013 0-.014 0-38.928.032-74.012 2.507-97.813 7.154-28.779 5.62-42.716 13.96-43.858 26.247-.858 9.226 5.962 17.68 20.85 25.848 9.569 5.249 22.509 10.43 38.56 15.452-16.333 9.959-23.133 19.142-21.218 28.395 1.939 9.367 12.214 15.216 31.744 17.813-.077 7.071.388 14.183 1.421 21.28.596 4.099 4.398 6.941 8.501 6.343 4.099-.596 6.938-4.402 6.342-8.501-.865-5.947-1.273-11.907-1.262-17.838 4.172.194 8.632.29 13.389.29 2.894 0 5.903-.036 9.017-.107 35.535-.811 80.936-6.399 128.855-15.815.894.085 1.786.172 2.681.255 37.896 3.524 74.603 5.306 107.785 5.306 16.432 0 31.991-.442 46.406-1.321 1.559 16.94-.365 34.352-5.992 51.34l-8.56 25.843c-4.732-2.123-9.969-3.314-15.482-3.314-.219 0-.438.021-.656.024-1.073-2.826-3.797-4.839-6.999-4.842-49.937-.044-84.192-34.125-100.167-54.437-3.873-4.924-9.686-7.748-15.948-7.748s-12.076 2.824-15.948 7.748c-15.975 20.312-50.231 54.393-100.167 54.437-3.201.003-5.924 2.014-6.998 4.838-.22-.004-.438-.021-.658-.021-5.513 0-10.751 1.191-15.482 3.314l-6.259-18.893c-1.303-3.932-5.543-6.067-9.478-4.761-3.932 1.302-6.063 5.546-4.761 9.478l7.77 23.455c-6.057 6.729-9.75 15.625-9.75 25.369 0 11.002 4.71 20.922 12.213 27.862v45.206c0 19.508 15.871 35.379 35.378 35.379h50.223c.651 0 1.279-.092 1.882-.248 5.474 3.432 11.015 6.198 16.49 8.425.902 11.337-.896 22.764-5.28 33.297-.265.636-.513 1.274-.749 1.915l-79.549 7.56c-27.212 2.586-49.519 22.243-55.508 48.913l-8 35.627c-1.505 6.704.094 13.626 4.387 18.99s10.696 8.44 17.566 8.44h283.378c4.142 0 7.5-3.357 7.5-7.5s-3.358-7.5-7.5-7.5h-283.38c-2.29 0-4.424-1.025-5.855-2.813s-1.964-4.096-1.462-6.33l8-35.627c4.562-20.32 21.558-35.297 42.291-37.267l75.185-7.146c-.363 14.333 5.785 28.339 17.437 37.919 10.274 8.447 22.867 12.671 35.461 12.671s25.188-4.224 35.462-12.672c11.736-9.648 17.894-23.787 17.433-38.227l78.431 7.454c20.732 1.97 37.728 16.946 42.291 37.267l8 35.627c.502 2.234-.031 4.542-1.462 6.33s-3.565 2.813-5.855 2.813h-27.977c-4.142 0-7.5 3.357-7.5 7.5s3.358 7.5 7.5 7.5h27.977c6.871 0 13.273-3.076 17.566-8.44s5.893-12.286 4.387-18.99l-8-35.627c-5.989-26.671-28.296-46.327-55.508-48.913l-82.914-7.88c-.2-.533-.406-1.064-.626-1.594-4.213-10.122-6.044-21.11-5.372-32.026 6.394-2.369 12.924-5.458 19.368-9.457.046.001.091.007.138.007h54.634c19.508 0 35.379-15.871 35.379-35.379v-46.525c0-.286-.019-.567-.051-.845 6.235-6.766 10.051-15.793 10.051-25.697 0-9.773-3.714-18.694-9.804-25.43.122-.261.246-.521.339-.801l9.786-29.542c6.266-18.915 8.43-38.298 6.737-57.164.11-.01.225-.018.334-.027 22.623-2.01 40.641-5.171 53.555-9.397 16.138-5.282 24.4-12.335 25.258-21.561 1.099-11.802-10.027-22.149-35.013-32.56zm-66.19 176.483c0 12.661-10.3 22.961-22.961 22.961-2.319 0-4.573-.344-6.74-1.009 3.025-13.225 5.131-28.121 6.087-44.888.218-.006.435-.024.652-.024 12.661-.001 22.962 10.299 22.962 22.96zm-150.891-87.941c1.383-1.759 3.199-2.021 4.158-2.021s2.775.263 4.158 2.021c16.831 21.4 52.186 56.607 104.204 59.89-2.688 52.928-17.491 93.411-43.802 115.848-21.802 18.593-47.142 22.496-64.56 22.496-10.069 0-22.672-1.301-35.693-5.908-.223-.094-.451-.176-.684-.248-10.029-3.634-20.283-9.243-29.798-17.751-25.691-22.971-39.863-61.457-42.187-114.437 52.017-3.283 87.372-38.49 104.204-59.89zm-118.964 65c.956 16.773 3.065 31.666 6.088 44.895-2.165.665-4.418 1.007-6.736 1.007-12.661 0-22.961-10.3-22.961-22.961s10.3-22.961 22.961-22.961c.216 0 .432.015.648.02zm8.982 116.388c-11.237 0-20.378-9.142-20.378-20.379v-36.666c3.41 1.009 7.015 1.559 10.748 1.559 3.639 0 7.188-.503 10.608-1.499 7.877 25.561 19.509 43.892 32.625 56.984h-33.603zm147.876 62.24c5.58 13.405 1.794 28.608-9.422 37.83-15.028 12.354-36.843 12.354-51.87-.001-11.216-9.222-15.002-24.424-9.421-37.83 4.507-10.828 6.755-22.438 6.658-34.097 11.572 2.9 22.176 3.705 30.319 3.705 7.325 0 16.733-.657 27.08-2.953.007 11.408 2.254 22.769 6.656 33.346zm82.617-62.24h-35.866c13.127-13.09 24.779-31.42 32.669-56.992 3.424.998 6.975 1.507 10.615 1.507 4.55 0 8.914-.807 12.96-2.281v37.387c.001 11.237-9.141 20.379-20.378 20.379zm68.082-292.817c-.208.684-1.646 4.097-10.214 9.951-13.932-3.857-29.547-7.547-46.526-10.967-.279-.056-.557-.092-.833-.117-2.058-2.021-4.169-3.965-6.323-5.841 46.671-2.14 61.992 4.126 63.896 6.974zm-41.5 17.578c4.243.961 8.376 1.938 12.388 2.928-2.429 1.164-5.059 2.373-7.909 3.627-1.422-2.219-2.924-4.4-4.479-6.555zm-144.549-40.784c1.063.234 2.165.234 3.229 0 44.662-9.847 89.615 4.556 120.248 38.517 4.214 4.672 8.017 9.582 11.43 14.678-34.172 13.411-79.714 26.327-128.448 36.417-2.895.599-5.782 1.184-8.663 1.755-51.202-4.951-99.37-12.632-138.565-22.035 6.793-14.392 16.357-27.617 28.416-38.833 30.529-28.389 71.481-39.508 112.353-30.499zm-222.715 34.736c.338-3.637 20.624-17.584 105.047-19.556-1.655 1.407-3.294 2.843-4.899 4.336-14.215 13.22-25.33 28.944-32.983 46.07-2.125-.568-4.229-1.14-6.288-1.719-59.303-16.673-60.888-29.014-60.877-29.131zm37.998 65.252c.313-1.01 2.962-6.964 22.825-17.324-2.26 7.562-3.874 15.309-4.822 23.162-13.956-1.982-17.425-5.173-18.003-5.838zm57.559 7.243c-9.738.306-17.851.235-24.609-.08 1.007-8.081 2.809-16.035 5.368-23.753 27.026 6.578 58.294 12.341 91.898 16.963-26.619 3.837-51.399 6.203-72.657 6.87zm176.312-11.921c35.388-8.741 67.622-18.729 93.44-29.025 4.79 9.438 8.312 19.367 10.536 29.576-30.378 1.786-65.947 1.587-103.976-.551zm185.462-18.045c-.011.117-3.845 11.955-65.205 17.406-.383.034-.775.065-1.161.098-2.387-11.845-6.337-23.367-11.794-34.312 8.504-3.784 15.747-7.453 21.775-11.036 11.712 3.422 21.976 6.952 30.535 10.518 21.581 8.992 26.002 15.688 25.85 17.326z"/><path d="m42.59 126.323c-2.929-2.928-7.678-2.928-10.606 0l-3.713 3.713-3.713-3.713c-2.928-2.928-7.677-2.928-10.606 0-2.929 2.93-2.929 7.678 0 10.607l3.713 3.713-3.713 3.713c-2.929 2.93-2.929 7.678 0 10.607 1.464 1.464 3.384 2.196 5.303 2.196s3.839-.732 5.303-2.196l3.713-3.713 3.713 3.713c1.464 1.464 3.384 2.196 5.303 2.196s3.839-.732 5.303-2.196c2.929-2.93 2.929-7.678 0-10.607l-3.713-3.713 3.713-3.713c2.929-2.929 2.929-7.677 0-10.607z"/><path d="m464.177 40.685c1.464 1.464 3.384 2.196 5.303 2.196s3.839-.732 5.303-2.196l3.713-3.713 3.713 3.713c1.464 1.464 3.384 2.196 5.303 2.196s3.839-.732 5.303-2.196c2.929-2.93 2.929-7.678 0-10.607l-3.713-3.713 3.713-3.713c2.929-2.93 2.929-7.678 0-10.607-2.929-2.928-7.678-2.928-10.606 0l-3.713 3.713-3.713-3.713c-2.928-2.928-7.677-2.928-10.606 0-2.929 2.93-2.929 7.678 0 10.607l3.713 3.713-3.713 3.713c-2.93 2.93-2.93 7.678 0 10.607z"/><path d="m191.53 226.97c12.677 0 23.083-5.333 29.572-10.355 4.012-3.104 4.192-9.099.408-12.478-3.1-2.768-7.787-2.753-10.87.034l-.987.893c-.24.262-5.763 6.353-17.824 6.452-3.902.032-7.403 2.74-7.947 6.604-.67 4.767 3.012 8.85 7.648 8.85z"/><path d="m282.906 216.615c6.489 5.022 16.895 10.355 29.572 10.355 4.636 0 8.318-4.083 7.647-8.85-.544-3.864-4.045-6.572-7.947-6.604-12.061-.1-17.583-6.19-17.824-6.452l-.987-.893c-3.082-2.787-7.77-2.802-10.87-.034-3.783 3.379-3.603 9.374.409 12.478z"/></g></g><g/><g/><g/><g/><g/><g/><g/><g/><g/><g/><g/><g/><g/><g/><g/></svg>