<svg height="512" viewBox="0 0 512 512" width="512" xmlns="http://www.w3.org/2000/svg"><g id="FILLED_OUTLINE"><path d="m168.00391 136v.00006a131.57506 131.57506 0 0 0 -22.89991 55.99994h221.79981a131.57517 131.57517 0 0 0 -22.8999-55.99994v-.00006l3.55029-9.46741a53.73317 53.73317 0 0 0 -35.55029-70.53259v-.00006a57.88865 57.88865 0 0 0 -51.7771-31.99994h-8.44581a57.88863 57.88863 0 0 0 -51.7771 31.99994v.00006a53.73318 53.73318 0 0 0 -35.5503 70.53259z" fill="#f4c36e"/><path d="m352 352v-72l-34.11572-14.62109a48.0005 48.0005 0 0 1 -27.65894-32.47724l-2.22534-8.90167v-8l-64 .94916v7.05084l-2.22534 8.90167a48.0005 48.0005 0 0 1 -27.65894 32.47724l-34.11572 14.62109v72z" fill="#ffcfde"/><path d="m352 280-34.11572-14.62109a47.98148 47.98148 0 0 1 -21.82544-18.7613l-19.573 16.31086a32 32 0 0 1 -40.97168 0l-19.573-16.31086a47.98148 47.98148 0 0 1 -21.82544 18.7613l-34.11572 14.62109v72h192z" fill="#689cda"/><path d="m89.46047 418.91312a37.496 37.496 0 0 1 1.835-36.79133l84.70844-134.12179-28.24356-39.541a32 32 0 0 1 -1.93356-34.1402l30.17712-54.3188 3.89017 3.89017a32 32 0 0 1 8.75117 28.90314l-4.64134 23.20669 35.38709 41.28491a32 32 0 0 1 5.415 32.70982l-66.34338 165.85849a37.496 37.496 0 0 1 -22.95689 21.64617l-.65053.21685a37.496 37.496 0 0 1 -45.39473-18.80312z" fill="#ffc7d3"/><path d="m422.54735 418.91312a37.496 37.496 0 0 0 -1.835-36.79133l-84.70844-134.12179 28.24356-39.541a32 32 0 0 0 1.93356-34.1402l-30.17712-54.3188-3.89018 3.89017a32 32 0 0 0 -8.75116 28.90314l4.64134 23.20669-35.38707 41.28491a32 32 0 0 0 -5.415 32.70982l66.3434 165.85849a37.496 37.496 0 0 0 22.95689 21.64617l.65053.21685a37.496 37.496 0 0 0 45.39469-18.80312z" fill="#ffc7d3"/><path d="m313.689 104a48 48 0 0 1 -39.93847-21.37439l-1.75053-2.62561-80 24v54.55725a80 80 0 0 0 44.2229 71.5542l19.7771 9.88855 19.7771-9.88855a80 80 0 0 0 44.2229-71.5542v-54.55725z" fill="#fcd6e0"/><path d="m224 118.111h16v35.777h-16z" fill="#eab0c3" transform="matrix(.447 -.894 .894 .447 6.604 282.686)"/><path d="m262.111 128h35.777v16h-35.777z" fill="#eab0c3" transform="matrix(.894 -.447 .447 .894 -31.26 139.595)"/><path d="m260.42188 191.15527a23.7909 23.7909 0 0 1 -9.15528-34.477l6.07715-9.11572 13.3125 8.875-6.07715 9.11572a7.793 7.793 0 0 0 2.999 11.29151z" fill="#eab0c3"/><path d="m266.34375 213.65723a14.64563 14.64563 0 0 0 -20.6875 0l-11.3125-11.31446a30.66282 30.66282 0 0 1 43.3125 0z" fill="#eab0c3"/><rect fill="#dfdfdf" height="192" rx="16" width="272" x="120" y="296"/><circle cx="256" cy="392" fill="#f4f4f4" r="32"/><rect fill="#5791d6" height="128" rx="16" width="80" x="24" y="152"/><path d="m56 240h16v16h-16z" fill="#abcdef"/><path d="m24 64v16a16 16 0 0 0 16 16h16l40 24v-96l-40 24h-16a16 16 0 0 0 -16 16z" fill="#31c292"/><path d="m56 96v-48h-16a16 16 0 0 0 -16 16v16a16 16 0 0 0 16 16z" fill="#00b378"/><path d="m125.99707 98.46045-11.99414-10.58887a24.001 24.001 0 0 0 0-31.74316l11.99414-10.58887a39.999 39.999 0 0 1 0 52.9209z" fill="#7fddbb"/><path d="m456 213.44965v-13.44971a16 16 0 0 0 -32 0v13.44971a16.00011 16.00011 0 0 0 9.69727 14.70629l6.30273 2.70118 6.30273-2.70118a16.00011 16.00011 0 0 0 9.69727-14.70629z" fill="#5791d6"/><path d="m482.87646 265.25928a32 32 0 0 0 -18.959-24.15186l-23.91746-10.2503-23.91748 10.2503a32 32 0 0 0 -18.959 24.15186l-5.12352 30.74072h96z" fill="#5791d6"/><path d="m397.58237 29.1284 10.49016 10.49015a16 16 0 0 1 2.99713 18.46913l-10.84266 21.68532 32 32 21.68533-10.84267a16 16 0 0 1 18.46913 2.99713l10.49015 10.49016a16 16 0 0 1 -2.01389 24.33344l-7.54261 5.38757a48 48 0 0 1 -61.84056-5.11808l-38.4951-38.4951a48 48 0 0 1 -5.11808-61.84056l5.38757-7.54261a16 16 0 0 1 24.33343-2.01388z" fill="#31c292"/><path d="m464.22656 79.773h-16a16.01833 16.01833 0 0 0 -16-16v-16a32.03635 32.03635 0 0 1 32 32z" fill="#7fddbb"/><path d="m478.0127 66.28174a47.81866 47.81866 0 0 0 -32.29493-32.29541l4.56446-15.335a63.76889 63.76889 0 0 1 43.0664 43.06689z" fill="#bdecdc"/><path d="m16 480h480v16h-480z" fill="#bebebe"/><g fill="#2c2c51"><path d="m224 118.111h16v35.777h-16z" transform="matrix(.447 -.894 .894 .447 6.604 282.686)"/><path d="m262.111 128h35.777v16h-35.777z" transform="matrix(.894 -.447 .447 .894 -31.26 139.595)"/><path d="m248.06738 175.98242a23.80238 23.80238 0 0 0 12.3545 15.17285l7.15624-14.31054a7.793 7.793 0 0 1 -2.999-11.29151l6.07715-9.11572-13.3125-8.875-6.07715 9.11572a23.80387 23.80387 0 0 0 -3.19924 19.3042z"/><path d="m234.34375 202.34277 11.3125 11.31446a14.64563 14.64563 0 0 1 20.6875 0l11.3125-11.31446a30.66282 30.66282 0 0 0 -43.3125 0z"/><path d="m256 352a40 40 0 1 0 40 40 40.04552 40.04552 0 0 0 -40-40zm0 64a24 24 0 1 1 24-24 24.0275 24.0275 0 0 1 -24 24z"/><path d="m40 288h48a24.02718 24.02718 0 0 0 24-24v-96a24.02718 24.02718 0 0 0 -24-24h-48a24.02718 24.02718 0 0 0 -24 24v96a24.02718 24.02718 0 0 0 24 24zm-8-120a8.00917 8.00917 0 0 1 8-8h48a8.00917 8.00917 0 0 1 8 8v96a8.00917 8.00917 0 0 1 -8 8h-48a8.00917 8.00917 0 0 1 -8-8z"/><path d="m56 240h16v16h-16z"/><path d="m40 104h13.78418l38.09961 22.85986a8.00028 8.00028 0 0 0 12.11621-6.85986v-96a8.00028 8.00028 0 0 0 -12.11621-6.85986l-38.09961 22.85986h-13.78418a24.02718 24.02718 0 0 0 -24 24v16a24.02718 24.02718 0 0 0 24 24zm48 1.87061-24-14.40015v-38.94092l24-14.40015zm-56-41.87061a8.00917 8.00917 0 0 1 8-8h8v32h-8a8.00917 8.00917 0 0 1 -8-8z"/><path d="m125.99707 98.46045a39.999 39.999 0 0 0 0-52.9209l-11.99414 10.58887a24.001 24.001 0 0 1 0 31.74316z"/><path d="m389.23242 263.94385 15.78125 2.63086a23.90055 23.90055 0 0 1 14.22071-18.11426l20.76562-8.8999 20.76562 8.90039a23.89583 23.89583 0 0 1 14.21973 18.11328l5.12305 30.74072 15.7832-2.62988-5.124-30.74121a39.82829 39.82829 0 0 0 -23.69922-30.18946l-9.417-4.03613a23.973 23.973 0 0 0 6.34862-16.26855v-13.44971a24 24 0 0 0 -48 0v13.44971a23.973 23.973 0 0 0 6.34863 16.26855l-9.417 4.03613a39.82829 39.82829 0 0 0 -23.69921 30.18946zm42.76758-63.94385a8 8 0 0 1 16 0v13.44971a7.99081 7.99081 0 0 1 -4.84863 7.353l-3.15137 1.35061-3.15137-1.35059a7.99081 7.99081 0 0 1 -4.84863-7.35302z"/><path d="m448.22656 79.773h16a32.03635 32.03635 0 0 0 -32-32v16a16.01833 16.01833 0 0 1 16 16z"/><path d="m478.0127 66.28174 15.33593-4.56348a63.76889 63.76889 0 0 0 -43.0664-43.06689l-4.56446 15.335a47.81866 47.81866 0 0 1 32.29493 32.29537z"/><path d="m398.62378 480a23.88238 23.88238 0 0 0 1.37622-8v-25.739a45.45667 45.45667 0 0 0 27.47168-68.41138l-27.47168-43.49757v-22.35205a24.0275 24.0275 0 0 0 -24-24h-5.27539l-25.08984-39.72559 25.11816-35.16552a40.18278 40.18278 0 0 0 2.417-42.6753l-20.02293-36.04181 1.89307-5.05a61.91384 61.91384 0 0 0 1.84985-37.53656 56.30349 56.30349 0 0 0 10.43238 14.37689l38.49511 38.49512a55.826 55.826 0 0 0 72.14844 5.97119l7.541-5.38721a24.00138 24.00138 0 0 0 3.02246-36.50049l-10.49122-10.49072a23.97331 23.97331 0 0 0 -27.70409-4.4951l-16.52734 8.26416-23.8457-23.8457 8.26367-16.52783a23.96869 23.96869 0 0 0 -4.49512-27.70362l-10.49025-10.49023a23.99991 23.99991 0 0 0 -36.5 3.02051l-5.3877 7.543a55.82911 55.82911 0 0 0 -8.752 46.34277c-.08106-.16455-.15186-.33313-.23438-.49707a61.922 61.922 0 0 0 -34.83881-30.51859 65.49551 65.49551 0 0 0 -57.30371-33.3623h-8.44532a65.49551 65.49551 0 0 0 -57.30371 33.3623 61.73209 61.73209 0 0 0 -37.51465 79.979l1.8938 5.05084-20.0227 36.04144a40.18278 40.18278 0 0 0 2.417 42.6753l25.11816 35.16552-25.08985 39.7256h-5.27539a24.0275 24.0275 0 0 0 -24 24v22.35205l-27.47168 43.49707a45.4579 45.4579 0 0 0 27.47168 68.41188v25.739a23.88238 23.88238 0 0 0 1.37622 8h-97.37622v16h480v-16zm-24.25269-436.665 5.3877-7.543a7.88243 7.88243 0 0 1 5.84961-3.32275q.34863-.02856.69238-.02881a7.86246 7.86246 0 0 1 5.624 2.34473l10.49122 10.49071a7.99027 7.99027 0 0 1 1.498 9.23437l-10.84271 21.68506a8 8 0 0 0 1.49805 9.23438l32 32a8.00193 8.00193 0 0 0 9.23535 1.49853l21.68457-10.84228a7.99228 7.99228 0 0 1 9.23535 1.498l10.49023 10.48975a8.00082 8.00082 0 0 1 -1.00781 12.16748l-7.541 5.3877a39.87432 39.87432 0 0 1 -51.53418-4.26514l-38.49513-38.49508a39.87435 39.87435 0 0 1 -4.26563-51.53365zm39.57325 343.059a29.45262 29.45262 0 0 1 -13.94434 43.0916v-65.17066zm-56.21094-182.585-28.24317 39.541a8.00068 8.00068 0 0 0 -.2539 8.92187l22.56494 35.72813h-40.7854l-16.38987-40.97656a23.91693 23.91693 0 0 1 1.22021-20.425 87.23889 87.23889 0 0 0 21.43067-25.7948l16.79736-19.59705a8.00033 8.00033 0 0 0 1.77051-6.77539l-4.64161-23.20605a23.95523 23.95523 0 0 1 3.248-17.53955l24.73242 44.51855a24.10929 24.10929 0 0 1 -1.45016 25.60493zm-157.7334-45.25187v-48.605l68.69629-20.60889a55.87112 55.87112 0 0 0 43.30371 22.63137v46.58252a72.03 72.03 0 0 1 -8.04419 33.202l-17.41675 20.31952a40.33716 40.33716 0 0 0 -2.769 3.66358 72.96884 72.96884 0 0 1 -11.5708 7.21386l-16.19926 8.09957-16.19922-8.09961a72.97041 72.97041 0 0 1 -11.57007-7.21344 40.36046 40.36046 0 0 0 -2.76977-3.66449l-17.417-20.31964a72.02751 72.02751 0 0 1 -8.04394-33.20135zm52.42188 88.59814a8.00049 8.00049 0 0 0 7.15624 0l17.33888-8.66937a39.95294 39.95294 0 0 0 1.96948 12.02887l-7.52124 6.26794a23.996 23.996 0 0 1 -30.73046-.00048l-7.521-6.26758a39.95875 39.95875 0 0 0 1.96922-12.02875zm-25.48388 19.04029 3.45361 2.87817a39.99148 39.99148 0 0 0 51.21582.00049l3.45459-2.87891 8.72167 21.80469h-75.56738zm-53.01515-179.11356a45.24738 45.24738 0 0 1 28.27539-23.38965 8.00179 8.00179 0 0 0 4.957-4.11474 49.616 49.616 0 0 1 44.6221-27.57761h8.44532a49.616 49.616 0 0 1 44.62207 27.57764 8.00179 8.00179 0 0 0 4.957 4.11474 45.75574 45.75574 0 0 1 32.56079 51.47321 7.98525 7.98525 0 0 0 -12.0188-.82282l-2.34372 2.34314v-12.68591a8.00008 8.00008 0 0 0 -8-8h-6.31055a39.91877 39.91877 0 0 1 -33.28222-17.81152l-1.75-2.62549a7.99655 7.99655 0 0 0 -8.95606-3.22559l-80 24a8.00017 8.00017 0 0 0 -5.70117 7.6626v12.68622l-2.34375-2.34345a7.98514 7.98514 0 0 0 -12.019.82325 45.19563 45.19563 0 0 1 4.2856-28.08402zm8.84082 165.19a8.00068 8.00068 0 0 0 -.2539-8.92187l-28.24317-39.541a24.10929 24.10929 0 0 1 -1.45019-25.605l24.73242-44.51855a23.94975 23.94975 0 0 1 3.248 17.53906l-4.64161 23.20654a8.00033 8.00033 0 0 0 1.77051 6.77539l16.79712 19.59638a87.24231 87.24231 0 0 0 21.43115 25.79565 23.91742 23.91742 0 0 1 1.22 20.42487l-16.38987 40.97653h-40.7854zm-86.15234 163.064a29.662 29.662 0 0 1 1.44433-28.94239l13.94434-22.07891v65.1709a29.65993 29.65993 0 0 1 -15.38867-14.14966zm39.38867 64.664a8.00917 8.00917 0 0 1 -8-8v-160a8.00917 8.00917 0 0 1 8-8h240a8.00917 8.00917 0 0 1 8 8v160a8.00917 8.00917 0 0 1 -8 8z"/></g></g></svg>