<svg id="Capa_1" enable-background="new 0 0 512.192 512.192" height="512" viewBox="0 0 512.192 512.192" width="512" xmlns="http://www.w3.org/2000/svg"><g><g><g id="XMLID_226_"><g><path d="m441.136 345.231-148.459 22.602-50.025-12.75-148.773-9.852-39.172 45.615c2.076 38.08 14.033 75.394 35.274 108.037 2.371 3.643 6.45 5.813 10.797 5.813h154.819 157.228c3.467 0 6.706-1.741 8.616-4.635 21.716-32.912 33.946-70.656 36.047-109.185z" fill="#ffe0d1"/><g><path d="m151.241 498.883c-21.242-32.643-33.199-69.957-35.274-108.037l35.876-41.777-57.964-3.839-39.172 45.615c2.076 38.08 14.033 75.394 35.274 108.037 2.371 3.643 6.45 5.813 10.797 5.813h61.26c-4.347.001-8.427-2.169-10.797-5.812z" fill="#ffd1c2"/></g><path d="m405.536 177.956c-15.05-48.17-18.86-99.15-11.13-149.01l1.677-10.803c.869-5.596-3.459-10.647-9.122-10.647h-261.73c-5.663 0-9.991 5.052-9.122 10.647l1.677 10.803c7.73 49.86 3.92 100.84-11.13 149.01l-35.69 114.23 36.371 77.919h297.216l36.584-78.199z" fill="#ffe0d1"/><path d="m405.536 177.956c-15.05-48.17-18.86-99.15-11.13-149.01l1.677-10.803c.869-5.596-3.459-10.647-9.122-10.647h-261.73c-5.663 0-9.991 5.052-9.122 10.647l1.677 10.803c7.73 49.86 3.92 100.84-11.13 149.01l-35.69 114.23 36.371 77.919h297.216l36.584-78.199z" fill="#ffe0d1"/><path d="m128.354 353.614 43.525-168.82c15.05-52.303 18.86-107.658 11.13-161.797 0 0-1.798-14.301-1.545-15.5h-56.233c-5.663 0-9.991 5.052-9.122 10.647l1.677 10.803c7.73 49.86 3.92 100.84-11.13 149.01l-35.69 114.23 36.371 77.919h39.326z" fill="#ffd1c2"/></g><path d="m248.096 418.642v86.054h7.5 7.5v-86.054z" fill="#ffd1c2"/><g><g id="XMLID_227_"><g><path d="m255.596 468.986c-6.84 0-13.68-2.93-18.43-8.78l-3.31-4.07c-33.56-41.31-83.95-65.29-137.18-65.29h-41.97c-1.42-25.92 1.74-52.19 9.68-77.59l6.58-21.07 4.26 1.65c116.05 44.92 244.69 44.92 360.74 0l4.26-1.65.91-.28 6.67 21.35c6.71 21.49 10.01 43.61 10.01 65.61 0 4.01-.11 8.02-.33 12.01l-.66-.03h-42.31c-53.23 0-103.62 23.98-137.18 65.29l-3.31 4.07c-4.75 5.85-11.59 8.78-18.43 8.78z" fill="#e17983"/></g></g></g><g><path d="m133.749 325.237 4.904-11.587c-21.351-5.153-42.734-11.805-63.427-19.815l-4.26-1.65-6.58 21.07c-7.94 25.4-11.1 51.67-9.68 77.59h41.97c6.9 0 12.577.278 19.351 1.07 2.495-22.702 9.16-45.064 17.722-66.678z" fill="#da606c"/></g></g><g fill="#fbe372"><path d="m483.902 93.176-114.888 39.597c-1.509.52-1.907 2.469-.722 3.539l14.903 13.461c.885.8.926 2.176.09 3.027l-65.313 66.41c-1.578 1.604.135 4.23 2.239 3.431l119.787-45.453c1.211-.459 1.72-1.896 1.069-3.015l-12.143-20.885c-.488-.839-.336-1.903.367-2.573l56.741-54.039c1.631-1.552 0-4.234-2.13-3.5z"/><path d="m28.29 93.176 114.888 39.597c1.509.52 1.907 2.469.722 3.539l-14.903 13.461c-.885.8-.926 2.176-.09 3.027l65.313 66.41c1.578 1.604-.135 4.23-2.239 3.431l-119.787-45.452c-1.211-.459-1.72-1.896-1.069-3.015l12.143-20.885c.488-.839.336-1.903-.367-2.573l-56.741-54.039c-1.631-1.553 0-4.235 2.13-3.501z"/></g></g><g><path d="m78.56 461.378c-1.608-3.817-6.005-5.607-9.824-4-3.817 1.608-5.608 6.006-4 9.824 6.199 14.713 13.94 28.77 23.009 41.778 1.458 2.091 3.789 3.211 6.159 3.211 1.48 0 2.976-.437 4.283-1.348 3.398-2.369 4.232-7.043 1.863-10.441-8.468-12.147-15.698-25.277-21.49-39.024z"/><path d="m110.372 30.091c3.226 20.805 4.408 42.042 3.512 63.118-.176 4.138 3.037 7.636 7.175 7.812.108.005.216.007.324.007 3.996 0 7.317-3.152 7.488-7.182.937-22.056-.299-44.279-3.675-66.053l-3.326-21.442c-.635-4.093-4.46-6.892-8.561-6.262-4.093.635-6.896 4.468-6.262 8.561z"/><path d="m425.093 215.412c-1.235-3.954-5.441-6.154-9.396-4.922-3.954 1.235-6.157 5.442-4.922 9.396l21.085 67.482c-81.6 31.304-170.266 40.325-256.529 26.067-4.082-.679-7.947 2.089-8.623 6.176-.676 4.086 2.089 7.947 6.176 8.623 27.413 4.531 55.058 6.782 82.656 6.782 61.579 0 122.908-11.215 180.802-33.301l4.305 13.778c6.833 21.868 10.046 44.914 9.583 67.855h-35.72c-5.352 0-10.832.246-16.287.729-4.126.366-7.174 4.008-6.808 8.134.346 3.9 3.62 6.837 7.462 6.837.222 0 .446-.01.672-.03 5.016-.445 10.049-.671 14.96-.671h34.896c-.394 4.318-.909 8.624-1.569 12.906-4.913 31.87-17.257 62.697-35.697 89.149-2.369 3.398-1.534 8.073 1.864 10.442 1.307.911 2.802 1.348 4.282 1.348 2.37 0 4.702-1.12 6.16-3.211 19.742-28.32 32.957-61.323 38.217-95.442s2.598-69.57-7.698-102.521z"/><path d="m390.809 101.027c.107 0 .215-.002.324-.007 4.138-.176 7.351-3.673 7.175-7.812-.896-21.077.286-42.313 3.512-63.118l3.325-21.442c.634-4.093-2.169-7.926-6.262-8.561-4.095-.63-7.926 2.169-8.561 6.262l-3.325 21.442c-3.376 21.773-4.612 43.997-3.675 66.053.17 4.032 3.492 7.183 7.487 7.183z"/><path d="m365.356 390.039c-37.123 10.279-69.573 31.501-93.842 61.371l-3.306 4.068c-3.1 3.815-7.697 6.003-12.612 6.003s-9.513-2.188-12.612-6.003l-3.306-4.068c-35.145-43.255-87.266-68.062-142.998-68.062h-34.746c-.49-22.888 2.717-45.797 9.61-67.855l4.202-13.448c21.136 8.016 42.981 14.685 65 19.805.572.133 1.143.196 1.705.196 3.409 0 6.494-2.34 7.299-5.803.938-4.035-1.572-8.066-5.606-9.004-21.659-5.036-43.144-11.614-63.917-19.536l21.19-67.818c1.235-3.954-.968-8.16-4.922-9.396-3.951-1.234-8.16.968-9.396 4.922l-29.873 95.606c-12.593 40.304-13.713 83.26-3.238 124.224.867 3.39 3.916 5.644 7.261 5.644.615 0 1.24-.077 1.863-.236 4.013-1.026 6.435-5.111 5.408-9.124-2.798-10.942-4.706-22.035-5.736-33.18h33.896c51.195 0 99.072 22.788 131.356 62.521l3.306 4.068c4.346 5.349 10.226 9.024 16.754 10.629v29.126c0 4.142 3.358 7.5 7.5 7.5s7.5-3.358 7.5-7.5v-29.126c6.528-1.604 12.408-5.28 16.754-10.629l3.306-4.068c22.292-27.437 52.101-46.931 86.203-56.374 3.992-1.105 6.332-5.238 5.227-9.229-1.106-3.989-5.241-6.331-9.23-5.224z"/><path d="m256.096 271.094c4.142 0 7.5-3.358 7.5-7.5v-7.499c0-4.142-3.358-7.5-7.5-7.5s-7.5 3.358-7.5 7.5v7.499c0 4.142 3.358 7.5 7.5 7.5z"/><path d="m492.784 90.171c-2.365-3.888-7.022-5.569-11.326-4.085l-114.89 39.598c-3.195 1.102-5.6 3.844-6.275 7.156s.464 6.775 2.971 9.039l10.72 9.682-61.361 62.392c-3.188 3.242-3.679 8.167-1.194 11.975 1.824 2.794 4.843 4.363 8 4.363 1.146 0 2.31-.207 3.441-.636l119.789-45.453c2.64-1.002 4.696-3.104 5.64-5.766s.671-5.589-.749-8.031l-10-17.198 53.654-51.099c3.297-3.14 3.946-8.049 1.58-11.937zm-68.665 55.114c-3.232 3.077-3.922 7.919-1.679 11.775l8.941 15.377-90.759 34.438 48.011-48.818c1.824-1.855 2.826-4.412 2.749-7.013s-1.229-5.092-3.16-6.837l-8.111-7.326 82.794-28.536z"/><path d="m64.641 170.405c-1.419 2.442-1.692 5.369-.749 8.031.944 2.662 3 4.764 5.641 5.766l119.788 45.453c1.132.43 2.295.636 3.441.636 3.158 0 6.177-1.569 8-4.363 2.485-3.808 1.995-8.732-1.194-11.975l-61.36-62.392 10.719-9.681c2.508-2.265 3.647-5.729 2.972-9.04-.675-3.312-3.08-6.054-6.276-7.157l-114.889-39.598c-4.303-1.482-8.961.197-11.326 4.085-2.366 3.889-1.716 8.797 1.58 11.938l53.653 51.098zm-15.355-62.06 82.794 28.536-8.112 7.327c-1.931 1.744-3.082 4.236-3.159 6.836-.077 2.601.925 5.157 2.75 7.015l48.009 48.816-90.758-34.438 8.94-15.376c2.244-3.857 1.554-8.7-1.677-11.776z"/></g></g></svg>