<svg id="Icons" height="512" viewBox="0 0 60 60" width="512" xmlns="http://www.w3.org/2000/svg"><path d="m26 48s-1 2-5 2-5-2-5-2a3.7 3.7 0 0 0 2-3v-3.15a13.168 13.168 0 0 0 2 .15h2a13.168 13.168 0 0 0 2-.15v3.15a3.7 3.7 0 0 0 2 3z" fill="#ffe0b2"/><path d="m19 42c.168 0 .333-.012.5-.019a12.943 12.943 0 0 1 -1.5-.131v.15z" fill="#dfc49c"/><path d="m24 45v-3.15a13.168 13.168 0 0 1 -2 .15h-1v3a3.7 3.7 0 0 0 2 3s-.746 1.477-3.5 1.891a10.046 10.046 0 0 0 1.5.109c4 0 5-2 5-2a3.7 3.7 0 0 1 -2-3z" fill="#dfc49c"/><path d="m35.94 57.89a1.006 1.006 0 0 1 -1 1.11h-27.88a1.006 1.006 0 0 1 -1-1.11c.69-6.21 7.1-8.94 9.94-9.89 0 0 1 2 5 2s5-2 5-2c2.84.95 9.25 3.68 9.94 9.89z" fill="#3f51b5"/><path d="m26 48a2.856 2.856 0 0 1 -.808.861c3.1 1.4 7.2 4.13 7.748 9.029a1.006 1.006 0 0 1 -1 1.11h3a1.006 1.006 0 0 0 1-1.11c-.69-6.21-7.1-8.94-9.94-9.89z" fill="#283593"/><path d="m35 20.38v8.62a13 13 0 0 1 -11 12.85 13.168 13.168 0 0 1 -2 .15h-2a13.168 13.168 0 0 1 -2-.15 13 13 0 0 1 -11-12.85v-8a1.993 1.993 0 0 1 1.82-1.99c3.79-.33 12.56-1.74 17.18-7.9 0 0 1.79 4.46 7.9 7.49a1.994 1.994 0 0 1 1.1 1.78z" fill="#ffe0b2"/><path d="m35 20.38v8.62a13 13 0 0 1 -11 12.85 13.168 13.168 0 0 1 -2 .15h-2a13.168 13.168 0 0 1 -2-.15 13 13 0 0 1 -11-12.85v-8a1.993 1.993 0 0 1 1.82-1.99c3.79-.33 12.56-1.74 17.18-7.9 0 0 1.79 4.46 7.9 7.49a1.994 1.994 0 0 1 1.1 1.78z" fill="#ffe0b2"/><path d="m33.9 18.6c-6.11-3.03-7.9-7.49-7.9-7.49a15.017 15.017 0 0 1 -1.811 2 18.184 18.184 0 0 0 6.711 5.49 1.994 1.994 0 0 1 1.1 1.78v8.62a12.868 12.868 0 0 1 -12.5 12.981c.167.007.332.019.5.019h2a13.168 13.168 0 0 0 2-.15 13 13 0 0 0 11-12.85v-8.62a1.994 1.994 0 0 0 -1.1-1.78z" fill="#dfc49c"/><path d="m40 17c0 5-1.03 7.93-2.16 9.64a2.977 2.977 0 0 0 -1.84-.64h-1v-5.62a1.994 1.994 0 0 0 -1.1-1.78c-6.11-3.03-7.9-7.49-7.9-7.49-4.62 6.16-13.39 7.57-17.18 7.9a1.993 1.993 0 0 0 -1.82 1.99v5h-1a2.952 2.952 0 0 0 -2.2.97c-1.87-2.64-2.8-7.24-2.8-9.97 0-11 8-16 16-16 7.5 0 16.68 1.69 20.8 8.01a3.783 3.783 0 0 0 -3.8 3.99 4.013 4.013 0 0 0 4.17 4z" fill="#a0522d"/><path d="m38.17 17a4.013 4.013 0 0 1 -4.17-4 3.783 3.783 0 0 1 3.8-3.99c-4.12-6.32-13.3-8.01-20.8-8.01-.361 0-.721.022-1.081.042 7.086.279 15.106 2.177 18.881 7.968a3.783 3.783 0 0 0 -3.8 3.99 4.013 4.013 0 0 0 4.17 4h1.83c0 4.429-.809 7.229-1.779 9h.779a2.977 2.977 0 0 1 1.84.64c1.13-1.71 2.16-4.64 2.16-9.64z" fill="#783e22"/><path d="m7.35 32h-1.35a3 3 0 0 1 -3-3 3.016 3.016 0 0 1 3-3h1v3a12.9 12.9 0 0 0 .35 3z" fill="#ffe0b2"/><path d="m39 29a3 3 0 0 1 -3 3h-1.35a12.9 12.9 0 0 0 .35-3v-3h1a2.977 2.977 0 0 1 1.84.64 2.942 2.942 0 0 1 1.16 2.36z" fill="#ffe0b2"/><path d="m59 11.97a5.035 5.035 0 0 1 -1.65 3.73 2.24 2.24 0 0 0 -1.2-.32 3.369 3.369 0 0 0 -.9.12c-.5-1.69-2.71-2.5-4.52-2.5a4.209 4.209 0 0 0 -4.23 3.75c-.13-.02-.04.05-.18.05a2.908 2.908 0 0 0 -1.07.2h-7.08a4.013 4.013 0 0 1 -4.17-4 3.783 3.783 0 0 1 3.8-3.99.487.487 0 0 1 .12-.01h.08c0-3 2.55-4.47 4.9-4.47a4.445 4.445 0 0 1 1.25.18 5.792 5.792 0 0 1 4.91-2.71 6.038 6.038 0 0 1 5.94 5 4.89 4.89 0 0 1 4 4.97z" fill="#f5f5f5"/><path d="m47.73 13a4.209 4.209 0 0 0 -4.23 3.75c-.13-.02-.04.05-.18.05a2.908 2.908 0 0 0 -1.07.2h3a2.908 2.908 0 0 1 1.07-.2c.14 0 .05-.07.18-.05a4.1 4.1 0 0 1 2.9-3.522 6.665 6.665 0 0 0 -1.67-.228z" fill="#cfd8dc"/><path d="m55 7a6.038 6.038 0 0 0 -5.94-5 5.813 5.813 0 0 0 -1.531.208 5.992 5.992 0 0 1 4.471 4.792 4.89 4.89 0 0 1 4 4.97 5.021 5.021 0 0 1 -.988 2.994 2.479 2.479 0 0 1 .238.536 3.369 3.369 0 0 1 .9-.12 2.24 2.24 0 0 1 1.2.32 5.035 5.035 0 0 0 1.65-3.73 4.89 4.89 0 0 0 -4-4.97z" fill="#cfd8dc"/><path d="m59 19.4a3.564 3.564 0 0 1 -3.53 3.6h-9.15a3.069 3.069 0 0 1 -3.03-3.1 3.11 3.11 0 0 1 1.96-2.9 2.908 2.908 0 0 1 1.07-.2c.14 0 .05-.07.18-.05a4.209 4.209 0 0 1 4.23-3.75c1.81 0 4.02.81 4.52 2.5a3.369 3.369 0 0 1 .9-.12 2.24 2.24 0 0 1 1.2.32 4.217 4.217 0 0 1 1.65 3.7z" fill="#9e9e9e"/><path d="m57.35 15.7a2.24 2.24 0 0 0 -1.2-.32 3.369 3.369 0 0 0 -.9.12c-.5-1.69-2.71-2.5-4.52-2.5a4.27 4.27 0 0 0 -1.33.228 3.764 3.764 0 0 1 2.85 2.272 3.369 3.369 0 0 1 .9-.12 2.24 2.24 0 0 1 1.2.32 4.217 4.217 0 0 1 1.65 3.7 3.564 3.564 0 0 1 -3.53 3.6h3a3.564 3.564 0 0 0 3.53-3.6 4.217 4.217 0 0 0 -1.65-3.7z" fill="#707070"/><g fill="#02a9f4"><path d="m47.778 27s-4 7 0 7 0-7 0-7z"/><path d="m54.778 31s-4 7 0 7 0-7 0-7z"/><path d="m41.222 35s-4 7 0 7 0-7 0-7z"/><path d="m48.222 39s-4 7 0 7 0-7 0-7z"/></g><path d="m24 34a4.385 4.385 0 0 0 -1.947.6 3.034 3.034 0 0 1 -1.053.4c-.622 0-1.743-1-3-1a4.4 4.4 0 0 0 -2.707 1.293 1 1 0 0 0 1.407 1.417 2.486 2.486 0 0 1 1.3-.71c.622 0 1.743 1 3 1a4.385 4.385 0 0 0 1.947-.6 3.034 3.034 0 0 1 1.053-.4 2.489 2.489 0 0 1 1.3.709 1 1 0 0 0 1.412-1.416 4.4 4.4 0 0 0 -2.712-1.293z"/><path d="m20 33h2a1 1 0 0 0 0-2h-2a1 1 0 0 0 0 2z"/><path d="m55.849 6.171a6.967 6.967 0 0 0 -12.133-2.579 5.905 5.905 0 0 0 -6.3 3.289c-5.23-5.932-14.86-6.881-20.416-6.881-8.462 0-17 5.256-17 17a21.6 21.6 0 0 0 2.593 9.913 4 4 0 0 0 3.407 6.087h.59a14.04 14.04 0 0 0 10.41 9.668v2.332a2.662 2.662 0 0 1 -1.409 2.084c-3.665 1.237-9.806 4.251-10.524 10.693a2.008 2.008 0 0 0 1.994 2.223h27.878a2.008 2.008 0 0 0 1.994-2.223c-.718-6.441-6.857-9.455-10.523-10.693a2.657 2.657 0 0 1 -1.41-2.084v-2.332a14.04 14.04 0 0 0 10.41-9.668h.59a4.006 4.006 0 0 0 3.1-6.531 18.862 18.862 0 0 0 1.877-8.469h1.782a4.089 4.089 0 0 0 3.565 6h9.15a4.568 4.568 0 0 0 4.526-4.6 5.724 5.724 0 0 0 -1.234-3.783 6.077 6.077 0 0 0 -2.917-9.446zm-12.949-.641a3.476 3.476 0 0 1 .969.139 1 1 0 0 0 1.131-.427c2.436-3.874 8.366-2.361 9.014 1.908a1 1 0 0 0 .826.837 4.026 4.026 0 0 1 2.235 6.529 3.436 3.436 0 0 0 -1.227-.124c-.992-1.637-3.227-2.392-5.115-2.392a5.282 5.282 0 0 0 -5.1 3.857c-1.089.191 1.334.143-7.463.143-4.12 0-4.277-6-.17-6a1 1 0 0 0 1-1c0-2.384 2.021-3.47 3.9-3.47zm-38.9 23.47a2.008 2.008 0 0 1 2-2 23.511 23.511 0 0 0 .16 4 2 2 0 0 1 -2.16-2zm22.347 20.182c3.239 1.19 8.037 3.784 8.592 8.817h-27.884c.561-5.032 5.359-7.627 8.6-8.817 2.345 2.436 8.333 2.451 10.692 0zm-1.857-1.04a7.49 7.49 0 0 1 -6.982 0 4.217 4.217 0 0 0 1.492-3.142v-2.051a33.57 33.57 0 0 0 4 0v2.051a4.217 4.217 0 0 0 1.49 3.142zm-2.49-7.142h-2a12.013 12.013 0 0 1 -12-12v-8a.988.988 0 0 1 .9-1c3.514-.3 11.858-1.6 16.92-7.123a18.627 18.627 0 0 0 7.628 6.612.993.993 0 0 1 .548.887v8.624a12.013 12.013 0 0 1 -11.996 12zm15.413-10.587a2.024 2.024 0 0 1 -1.573.587 23.05 23.05 0 0 0 .16-4 2 2 0 0 1 1.413 3.413zm.053-5.118a3.97 3.97 0 0 0 -1.466-.295v-4.619a3.009 3.009 0 0 0 -1.661-2.68c-5.652-2.8-7.395-6.928-7.41-6.966a1 1 0 0 0 -1.729-.229c-4.408 5.876-12.984 7.207-16.467 7.507a2.976 2.976 0 0 0 -2.733 2.987v4a3.98 3.98 0 0 0 -1.921.514 20.071 20.071 0 0 1 -2.079-8.514c0-10.362 7.534-15 15-15 5.251 0 14.385.86 19.053 6.345a4.805 4.805 0 0 0 -3.053 4.655 5.033 5.033 0 0 0 5.17 5h.808a17.677 17.677 0 0 1 -1.512 7.3zm18.008-3.295h-9.15a2.1 2.1 0 0 1 0-4.2 1.108 1.108 0 0 0 1.174-.983 3.227 3.227 0 0 1 3.235-2.817c1.49 0 3.228.667 3.558 1.783a1 1 0 0 0 1.219.683 2.43 2.43 0 0 1 .636-.084c1.467 0 1.854 1.974 1.854 3.018a2.566 2.566 0 0 1 -2.526 2.6z"/><path d="m16 30c1.909 0 .975-4-2-4s-3.919 4-2 4a1 1 0 0 0 1-1 1 1 0 0 1 2 0 1 1 0 0 0 1 1z"/><path d="m28 26c-2.97 0-3.919 4-2 4a1 1 0 0 0 1-1 1 1 0 0 1 2 0 1 1 0 0 0 1 1c1.909 0 .975-4-2-4z"/><path d="m11.316 24.949 3-1a1 1 0 1 0 -.632-1.9l-3 1a1 1 0 0 0 .632 1.9z"/><path d="m31.316 23.051-3-1a1 1 0 0 0 -.632 1.9l3 1a1 1 0 1 0 .632-1.9z"/><path d="m46.91 26.5c-.477.834-2.79 5.1-1.528 7.278a2.966 2.966 0 0 0 4.792 0c1.262-2.174-1.051-6.444-1.528-7.278a1.04 1.04 0 0 0 -1.736 0zm1.534 6.274c-.032.055-.129.222-.666.222s-.634-.167-.666-.222c-.318-.546.036-2.013.665-3.51.598 1.429 1.005 2.936.667 3.514z"/><path d="m54.778 39a2.554 2.554 0 0 0 2.4-1.218c1.262-2.174-1.051-6.444-1.528-7.278a1.04 1.04 0 0 0 -1.736 0c-.477.834-2.79 5.1-1.528 7.278a2.553 2.553 0 0 0 2.392 1.218zm0-5.732c.6 1.425 1 2.929.667 3.51-.032.055-.129.222-.666.222s-.634-.167-.666-.222c-.319-.546.035-2.013.664-3.51z"/><path d="m41.222 43a2.553 2.553 0 0 0 2.4-1.218c1.262-2.174-1.051-6.444-1.528-7.278a1.04 1.04 0 0 0 -1.736 0c-.477.834-2.79 5.1-1.528 7.278a2.554 2.554 0 0 0 2.392 1.218zm0-5.732c.6 1.425 1.005 2.929.668 3.51-.033.055-.129.222-.667.222s-.634-.167-.666-.222c-.319-.546.036-2.013.664-3.51z"/><path d="m47.354 38.5c-.477.834-2.79 5.1-1.528 7.278a2.966 2.966 0 0 0 4.792 0c1.262-2.174-1.051-6.444-1.528-7.278a1.04 1.04 0 0 0 -1.736 0zm1.535 6.274c-.033.055-.129.222-.667.222s-.634-.167-.666-.222c-.318-.546.037-2.013.665-3.51.599 1.429 1.005 2.936.668 3.514z"/></svg>