<svg id="Capa_1" enable-background="new 0 0 512 512" height="512" viewBox="0 0 512 512" width="512" xmlns="http://www.w3.org/2000/svg"><g><g><g><path d="m173.772 44.886h37.966c80.702 0 146.123 65.422 146.123 146.123v254.057h-330.212v-254.057c0-80.701 65.422-146.123 146.123-146.123z" fill="#544f57"/><path d="m185.382 44.883c-31.365 0-56.782 65.424-56.782 146.129v254.051h-100.948v-254.05c0-80.705 65.424-146.129 146.119-146.129h11.611z" fill="#454045"/><path d="m314.881 503.077h-244.231l5.958-29.016c4.9-23.892 23.516-42.05 46.615-46.941 4.057-.864 8.256-1.312 12.546-1.312h113.992c4.28 0 8.479.447 12.536 1.312 23.099 4.89 41.725 23.048 46.626 46.941z" fill="#dd636e"/><path d="m158.905 425.808c-2.542 0-5.033.447-7.442 1.312-13.725 4.89-24.777 23.048-27.695 46.941l-3.538 29.016h-49.584l5.958-29.016c4.9-23.892 23.516-42.05 46.615-46.941 4.057-.864 8.256-1.312 12.546-1.312z" fill="#da4a54"/><path d="m226.55 369.381v56.427c0 18.656-15.128 33.785-33.785 33.785-18.667 0-33.795-15.128-33.795-33.785v-56.427z" fill="#ffcbbe"/><g fill="#eaac9d"><path d="m203.799 457.75c-3.457 1.19-7.168 1.84-11.031 1.84-18.667 0-33.795-15.128-33.795-33.785v-56.427h22.062v56.427c0 14.804 9.517 27.381 22.764 31.945z"/><path d="m51.61 322.396c-24.361 0-44.11-19.749-44.11-44.11 0-3.353.374-6.618 1.083-9.757 5.722-25.343 43.027-21.186 43.027 4.795h282.305c0-25.981 37.305-30.137 43.027-4.795.709 3.139 1.083 6.404 1.083 9.757 0 24.361-19.749 44.11-44.11 44.11"/><path d="m158.971 369.381h67.58v51.984h-67.58z"/></g><path d="m333.908 223.069v77.533c0 56.813-46.056 102.879-102.879 102.879h-76.547c-56.813 0-102.879-46.056-102.879-102.879v-76.649c17.518-.508 41.623-3.497 67.59-8.774 53.214-10.818 114.297-31.263 142.713-59.68 0 0 28.111 57.444 72.002 67.57z" fill="#ffcbbe"/><path d="m222.072 403.481h-67.59c-56.813 0-102.879-46.056-102.879-102.879v-76.649c17.518-.508 41.623-3.497 67.59-8.774v85.423c0 56.813 46.056 102.879 102.879 102.879z" fill="#eaac9d"/><g fill="#e490b7"><ellipse cx="275.909" cy="307.913" rx="23.106" ry="14.05"/><ellipse cx="109.617" cy="307.913" rx="23.106" ry="14.05"/></g></g><g fill="#f4dd45"><path d="m420.634 8.924 83.866 49.497-86.233 47.064 31.272 18.456-124.009 57.63 49.419-72.508-24.165-14.262z"/><path d="m304.274 20.442-68.266-.648 34.729 59.472-25.455-.241 53.583 79.492-3.418-61.42 19.67.187z"/></g></g><g><path d="m163.073 343.969c3.816 1.608 8.216-.181 9.824-3.998 3.376-8.009 11.171-13.185 19.858-13.185s16.481 5.175 19.858 13.185c1.208 2.866 3.988 4.588 6.914 4.588.972 0 1.959-.19 2.911-.591 3.816-1.609 5.606-6.008 3.997-9.824-5.727-13.582-18.947-22.358-33.681-22.358-14.735 0-27.955 8.776-33.681 22.358-1.606 3.818.183 8.216 4 9.825z"/><path d="m179.018 292.059h27.49c4.143 0 7.5-3.358 7.5-7.5s-3.357-7.5-7.5-7.5h-27.49c-4.143 0-7.5 3.358-7.5 7.5s3.357 7.5 7.5 7.5z"/><path d="m233.149 274.392 34.271 25.49c1.344 1 2.914 1.482 4.47 1.482 2.29 0 4.552-1.045 6.023-3.024 2.473-3.324 1.782-8.022-1.542-10.494l-20.752-15.435 29.225-5.867c4.061-.815 6.692-4.769 5.877-8.83-.816-4.062-4.769-6.691-8.83-5.877l-45.743 9.183c-2.904.583-5.193 2.821-5.842 5.712-.648 2.89.466 5.892 2.843 7.66z"/><path d="m100.666 266.544 29.225 5.867-20.752 15.435c-3.324 2.472-4.015 7.17-1.542 10.494 1.472 1.979 3.732 3.024 6.023 3.024 1.556 0 3.126-.482 4.47-1.482l34.271-25.49c2.377-1.768 3.491-4.77 2.843-7.66-.648-2.891-2.938-5.128-5.842-5.712l-45.743-9.183c-4.069-.813-8.014 1.817-8.83 5.877-.815 4.062 1.816 8.015 5.877 8.83z"/><path d="m508.312 51.961-83.87-49.5c-3.196-1.886-7.29-1.152-9.631 1.727l-21.479 26.41c-2.614 3.214-2.127 7.938 1.086 10.551 3.216 2.614 7.938 2.126 10.551-1.086l17.407-21.403 66.936 39.505-74.635 40.732c-2.369 1.293-3.86 3.759-3.906 6.457-.045 2.698 1.362 5.213 3.687 6.585l18.989 11.21-86.383 40.144 34.084-50.008c1.168-1.714 1.574-3.835 1.122-5.859s-1.722-3.771-3.508-4.825l-16.662-9.831 23.938-29.427c2.613-3.213 2.128-7.937-1.086-10.551-3.213-2.615-7.938-2.127-10.551 1.085l-29.439 36.19c-1.378 1.695-1.949 3.906-1.563 6.057.385 2.15 1.689 4.026 3.57 5.136l17.275 10.192-11.942 17.521c-7.602-17.157-18.378-32.928-31.671-46.291l-8.93-63.289c-.519-3.674-3.646-6.417-7.355-6.452l-68.267-.647c-.024 0-.048 0-.071 0-2.672 0-5.144 1.422-6.486 3.735-1.355 2.334-1.352 5.216.01 7.547l9.482 16.238c-8.963-1.607-18.085-2.433-27.28-2.433h-37.963c-84.706 0-153.62 68.918-153.62 153.629v54.498c-9.349 3.087-16.5 10.813-18.883 21.368-.841 3.724-1.268 7.562-1.268 11.41 0 16.624 7.908 31.427 20.151 40.873v125.903c0 4.142 3.357 7.5 7.5 7.5h49.134c-3.504 6.153-6.069 12.874-7.534 19.992l-5.949 29.02c-.452 2.208.112 4.501 1.536 6.248 1.425 1.746 3.559 2.759 5.812 2.759h244.23c2.254 0 4.388-1.014 5.812-2.76 1.424-1.747 1.987-4.041 1.534-6.249l-5.96-29.02c-1.473-7.17-4.076-13.885-7.582-19.99h49.178c4.143 0 7.5-3.358 7.5-7.5v-125.895c12.249-9.445 20.162-24.252 20.162-40.881 0-3.848-.427-7.687-1.268-11.409-2.384-10.56-9.541-18.289-18.895-21.373v-54.493c0-6.391-.402-12.801-1.19-19.128l88.528-41.141c2.525-1.174 4.193-3.651 4.33-6.433s-1.28-5.411-3.679-6.827l-19.896-11.746 74.637-40.732c2.369-1.293 3.86-3.759 3.906-6.458.047-2.698-1.36-5.213-3.685-6.585zm-210.562-24.081 8.723 61.821-10.954-.104c-.024 0-.048 0-.071 0-2.048 0-4.009.838-5.424 2.32-1.433 1.5-2.18 3.526-2.064 5.596l1.904 34.231-30.39-45.085 11.192.106h.071c2.672 0 5.144-1.422 6.486-3.735 1.355-2.334 1.352-5.216-.01-7.547l-28.068-48.065zm-282.75 250.406c0-2.738.303-5.464.898-8.105 2.078-9.199 9.646-11.703 15.515-11.047 5.471.61 11.795 4.237 12.606 12.396-6.125-2.754-12.562-2.982-18.583-.552-3.842 1.55-5.699 5.92-4.149 9.761 1.549 3.841 5.92 5.699 9.761 4.15 5.437-2.194 10.652 2.436 13.055 5.071v10.643c0 4.63.291 9.194.847 13.676-17.017-3.143-29.95-18.081-29.95-35.993zm44.103-5.322v-41.844c53.239-3.216 154.289-25.471 200.785-63.704 9.557 16.255 33.067 50.562 66.521 61.352v71.833c0 52.592-42.787 95.379-95.379 95.379h-76.547c-52.593 0-95.38-42.787-95.38-95.379v-13.197c.002-.118.004-.235 0-.353v-13.728h.008c-.001-.12-.007-.239-.008-.359zm107.37 138.017h52.58v14.771c0 .02-.003.039-.003.058 0 .012.002.025.002.037-.023 14.477-11.807 26.248-26.289 26.248-14.496 0-26.29-11.793-26.29-26.29zm-86.629 84.599 4.102-20.009c2.788-13.551 10.618-25.305 22.048-33.094 3.423-2.333 4.307-6.999 1.974-10.421-2.331-3.422-6.998-4.307-10.421-1.974-3.292 2.243-6.336 4.755-9.141 7.479h-53.255v-110.371c4.086 1.379 8.398 2.259 12.867 2.568 12.566 45.833 54.002 79.851 103.454 81.181v7.372h-15.702c-2.17 0-4.351.102-6.483.303-4.124.389-7.151 4.047-6.763 8.171.366 3.885 3.633 6.796 7.458 6.796.235 0 .474-.011.713-.034 1.667-.157 3.374-.237 5.075-.237h16.399c3.541 19.195 20.39 33.785 40.594 33.785s37.053-14.59 40.594-33.785h16.403c24.993 0 46.784 17.772 51.813 42.259l4.109 20.011zm270.519-58.018h-53.342c-12.359-11.982-29.154-19.251-47.261-19.251h-15.707v-7.372c49.446-1.337 90.875-35.351 103.439-81.18 4.47-.308 8.783-1.187 12.871-2.565zm20.162-159.276c0 17.917-12.94 32.858-29.964 35.995.557-4.483.847-9.047.847-13.679v-10.635c2.379-2.62 7.604-7.286 13.069-5.079 3.841 1.549 8.212-.31 9.761-4.15 1.55-3.841-.308-8.211-4.149-9.761-6.022-2.429-12.458-2.201-18.583.553.811-8.159 7.135-11.786 12.606-12.396 5.859-.648 13.438 1.848 15.515 11.048.596 2.64.898 5.366.898 8.104zm-20.162-87.275v53.524c-3.238.574-6.243 1.617-8.955 3.062v-24.528c0-3.493-2.411-6.523-5.814-7.308-39.836-9.19-66.687-63.021-66.951-63.558-1.064-2.175-3.114-3.703-5.503-4.101-2.397-.398-4.825.383-6.537 2.095-17.713 17.713-52.424 34.618-97.739 47.601-36.694 10.513-78.881 17.837-107.477 18.659-4.057.117-7.284 3.439-7.284 7.497v23.635c-2.711-1.442-5.715-2.484-8.952-3.056v-53.522c0-76.44 62.185-138.629 138.62-138.629h37.963c12.812 0 25.461 1.764 37.656 5.201l8.21 14.06-12.246-.116c-.024 0-.048 0-.071 0-2.758 0-5.296 1.515-6.604 3.947-1.32 2.453-1.172 5.436.386 7.745l53.582 79.492c1.423 2.111 3.776 3.309 6.22 3.309.797 0 1.603-.127 2.389-.392 3.199-1.076 5.286-4.156 5.099-7.525l-2.973-53.428 11.666.11h.071c1.487 0 2.919-.45 4.136-1.256 9.827 12.075 17.607 25.764 22.89 40.351l-22.81 33.468c-1.901 2.789-1.705 6.504.479 9.078 1.46 1.72 3.568 2.647 5.721 2.647 1.066 0 2.144-.228 3.158-.699l21.11-9.81c.367 4.133.56 8.294.56 12.447z"/></g></g></svg>