<svg id="Capa_1" enable-background="new 0 0 512 512" height="512" viewBox="0 0 512 512" width="512" xmlns="http://www.w3.org/2000/svg"><g><path d="m256 7.5v497c137.243 0 248.5-111.257 248.5-248.5s-111.257-248.5-248.5-248.5z" fill="#ff5d34"/><path d="m474.5 256c0-137.243-97.826-248.5-218.5-248.5-137.243 0-248.5 111.257-248.5 248.5s111.257 248.5 248.5 248.5c120.674 0 218.5-111.257 218.5-248.5z" fill="#ff7a41"/><circle cx="98.5" cy="293.5" fill="#ff5d34" r="37.5"/><circle cx="413.5" cy="293.5" fill="#ff5d34" r="37.5"/><path d="m181 151v120c24.853 0 45-20.147 45-45v-30c0-24.853-20.147-45-45-45z" fill="#e3f1f4"/><path d="m196 226-15-15 15-15c0-24.853-6.716-45-15-45-24.853 0-45 20.147-45 45v30c0 24.853 20.147 45 45 45 8.284 0 15-20.147 15-45z" fill="#fff"/><path d="m181 181c-8.284 0-15 6.716-15 15v30h30v-30c0-8.284-6.716-15-15-15z" fill="#524cb2"/><circle cx="181" cy="226" fill="#636da4" r="15"/><path d="m331 151v120c24.853 0 45-20.147 45-45v-30c0-24.853-20.147-45-45-45z" fill="#e3f1f4"/><path d="m346 226-15-15 15-15c0-24.853-6.716-45-15-45-24.853 0-45 20.147-45 45v30c0 24.853 20.147 45 45 45 8.284 0 15-20.147 15-45z" fill="#fff"/><path d="m331 181c-8.284 0-15 6.716-15 15v30h30v-30c0-8.284-6.716-15-15-15z" fill="#524cb2"/><circle cx="331" cy="226" fill="#636da4" r="15"/><circle cx="256" cy="436" fill="#ffb35c" r="15"/><path d="m323.212 340.518c-.519-.745-1.046-1.484-1.581-2.216-4.075-5.583-8.434-10.533-13.009-14.862h-126.293c-6.405 4.329-12.508 9.28-18.213 14.862-.748.732-1.486 1.471-2.213 2.216-28.877 29.602 4.56 77.018 42.594 60.798 15.816-6.746 33.224-10.316 51.503-10.316 18.28 0 35.687 3.57 51.503 10.316 1.434.612 2.861 1.122 4.279 1.557 17.287-7.786 26.935-40.102 11.43-62.355z" fill="#a93455"/><path d="m350.097 340.518c-.727-.745-1.465-1.484-2.213-2.216-5.706-5.583-11.808-10.533-18.213-14.862h-21.049l3.161 79.434c36.186 11.1 66.101-33.87 38.314-62.356z" fill="#853665"/><path d="m286 324.5-30 150c33.137 0 60-26.863 60-60v-90z" fill="#a93455"/><path d="m286 414.5v-90h-60l30 150c16.569 0 30-26.863 30-60z" fill="#cc3245"/><path d="m196 324.5v90c0 33.137 26.863 60 60 60v-150z" fill="#ff3e3a"/><path d="m258.531 301.052 57.665 30.37c4.657-2.403 9.162-5.06 13.474-7.982-21.402-14.467-46.214-21.915-71.139-22.388z" fill="#fff3da"/><path d="m258.531 301.052c-26.612-.506-53.351 6.942-76.202 22.388 21.017 14.24 46.372 22.56 73.671 22.56 21.697 0 42.157-5.271 60.197-14.578-16.643-19.481-37.079-29.604-57.666-30.37z" fill="#fff"/><path d="m475.985 244.774-8.663-15.006h-47.644l-8.662 15.007c-3.185 5.511-5.016 11.902-5.016 18.725 0 20.711 16.789 37.5 37.5 37.5s37.5-16.789 37.5-37.5c0-6.823-1.831-13.214-5.015-18.726z" fill="#8ae7ff"/><path d="m471 243.5c0-5.003-1.343-9.691-3.678-13.732l-23.822-41.268-23.822 41.268c-2.335 4.042-3.678 8.729-3.678 13.732 0 15.188 12.312 27.5 27.5 27.5s27.5-12.312 27.5-27.5z" fill="#c4f3ff"/><path d="m100.985 409.774-8.663-15.006h-47.644l-8.662 15.007c-3.185 5.511-5.016 11.902-5.016 18.725 0 20.711 16.789 37.5 37.5 37.5s37.5-16.789 37.5-37.5c0-6.823-1.831-13.214-5.015-18.726z" fill="#8ae7ff"/><path d="m96 408.5c0-5.003-1.343-9.691-3.678-13.732l-23.822-41.268-23.822 41.268c-2.335 4.041-3.678 8.729-3.678 13.732 0 15.188 12.312 27.5 27.5 27.5s27.5-12.312 27.5-27.5z" fill="#c4f3ff"/><path d="m475.985 102.274-8.663-15.006h-47.644l-8.662 15.007c-3.185 5.511-5.016 11.902-5.016 18.725 0 20.711 16.789 37.5 37.5 37.5s37.5-16.789 37.5-37.5c0-6.823-1.831-13.214-5.015-18.726z" fill="#8ae7ff"/><path d="m471 101c0-5.003-1.343-9.691-3.678-13.732l-23.822-41.268-23.822 41.268c-2.335 4.041-3.678 8.729-3.678 13.732 0 15.188 12.312 27.5 27.5 27.5s27.5-12.312 27.5-27.5z" fill="#c4f3ff"/><path d="m484.264 140.031c2.711-5.784 4.236-12.232 4.236-19.031 0-7.888-2.083-15.661-6.02-22.476l-32.484-56.273c-1.34-2.321-3.816-3.751-6.496-3.751s-5.156 1.43-6.496 3.751l-12.271 21.258c-46.728-41.016-106.27-63.509-168.733-63.509-62.629 0-122.916 22.87-169.754 64.396-3.1 2.748-3.384 7.488-.636 10.588 2.747 3.1 7.487 3.385 10.587.637 44.092-39.092 100.844-60.621 159.803-60.621 59.801 0 116.769 21.887 161.085 61.758l-12.564 21.764c-3.939 6.817-6.021 14.591-6.021 22.478 0 24.813 20.187 45 45 45 11.891 0 22.711-4.644 30.765-12.203 14.886 31.798 22.735 66.886 22.735 102.203 0 132.888-108.112 241-241 241-52.928 0-104.737-17.627-146.611-49.744 2.632-5.714 4.111-12.063 4.111-18.756 0-7.888-2.083-15.661-6.02-22.476l-32.484-56.273c-1.34-2.321-3.816-3.751-6.496-3.751s-5.156 1.43-6.496 3.751l-15.095 26.15c-20.909-36.387-31.909-77.579-31.909-119.901 0-58.958 21.529-115.711 60.621-159.803 2.748-3.1 2.463-7.84-.636-10.588-3.1-2.748-7.84-2.463-10.587.637-41.528 46.839-64.398 107.125-64.398 169.754 0 47.85 13.236 94.346 38.321 134.778l-8.799 15.243c-3.939 6.817-6.022 14.591-6.022 22.479 0 24.813 20.187 45 45 45 12.727 0 24.228-5.32 32.422-13.842 44.367 33.798 99.134 52.342 155.078 52.342 68.38 0 132.667-26.629 181.02-74.98 48.351-48.353 74.98-112.64 74.98-181.02 0-40.267-9.58-80.274-27.736-115.969zm-40.764 10.969c-16.542 0-30-13.458-30-30 0-5.256 1.387-10.434 4.01-14.974.001-.002 25.99-45.024 25.99-45.024l25.991 45.025c2.623 4.538 4.009 9.716 4.009 14.973 0 16.542-13.458 30-30 30zm-375 307.5c-16.542 0-30-13.458-30-30 0-5.257 1.386-10.435 4.009-14.973.002-.003 25.991-45.025 25.991-45.025l25.991 45.025c2.623 4.538 4.009 9.716 4.009 14.973 0 16.542-13.458 30-30 30z"/><path d="m128.5 196v30c0 28.948 23.551 52.5 52.5 52.5s52.5-23.552 52.5-52.5v-30c0-28.948-23.551-52.5-52.5-52.5s-52.5 23.552-52.5 52.5zm52.5-37.5c20.678 0 37.5 16.822 37.5 37.5v30c0 20.678-16.822 37.5-37.5 37.5s-37.5-16.822-37.5-37.5v-30c0-20.678 16.822-37.5 37.5-37.5z"/><path d="m181 248.5c12.407 0 22.5-10.094 22.5-22.5v-30c0-12.406-10.093-22.5-22.5-22.5s-22.5 10.094-22.5 22.5v30c0 12.406 10.093 22.5 22.5 22.5zm-7.5-52.5c0-4.136 3.364-7.5 7.5-7.5s7.5 3.364 7.5 7.5v30c0 4.136-3.364 7.5-7.5 7.5s-7.5-3.364-7.5-7.5z"/><path d="m278.5 226c0 28.948 23.551 52.5 52.5 52.5s52.5-23.552 52.5-52.5v-30c0-28.948-23.551-52.5-52.5-52.5s-52.5 23.552-52.5 52.5zm15-30c0-20.678 16.822-37.5 37.5-37.5s37.5 16.822 37.5 37.5v30c0 20.678-16.822 37.5-37.5 37.5s-37.5-16.822-37.5-37.5z"/><path d="m331 248.5c12.407 0 22.5-10.094 22.5-22.5v-30c0-12.406-10.093-22.5-22.5-22.5s-22.5 10.094-22.5 22.5v30c0 12.406 10.093 22.5 22.5 22.5zm-7.5-52.5c0-4.136 3.364-7.5 7.5-7.5s7.5 3.364 7.5 7.5v30c0 4.136-3.364 7.5-7.5 7.5s-7.5-3.364-7.5-7.5z"/><path d="m158.869 332.942c-.789.772-1.567 1.552-2.334 2.338-14.185 14.541-17.076 34.58-7.545 52.296 8.141 15.135 23.319 24.271 39.511 24.488v2.436c0 37.22 30.28 67.5 67.5 67.5s67.5-30.28 67.5-67.5v-2.436c16.189-.219 31.37-9.355 39.51-24.487 9.531-17.717 6.64-37.756-7.544-52.296-.767-.787-1.546-1.566-2.337-2.34-25.996-25.434-60.49-39.441-97.13-39.441s-71.134 14.007-97.131 39.442zm3.33 47.529c-6.408-11.913-4.512-24.891 5.072-34.715.687-.705 1.385-1.402 2.09-2.094 4.168-4.078 8.568-7.792 13.152-11.158 1.967 1.228 3.969 2.385 5.986 3.508v61.077c-12.046-.203-21.648-7.971-26.3-16.618zm93.801 86.529c-28.949 0-52.5-23.552-52.5-52.5v-71.28c14.263 5.824 29.432 9.229 45 10.057v61.223c0 4.143 3.358 7.5 7.5 7.5s7.5-3.357 7.5-7.5v-61.223c15.568-.829 30.737-4.233 45-10.057v71.28c0 28.948-23.551 52.5-52.5 52.5zm88.728-121.245c9.584 9.825 11.481 22.804 5.072 34.717-4.651 8.646-14.256 16.414-26.3 16.618v-61.077c2.018-1.124 4.02-2.281 5.987-3.508 4.584 3.366 8.984 7.08 13.152 11.158.706.691 1.402 1.388 2.089 2.092zm-29.53-22.293c-18.095 9.857-38.331 15.038-59.198 15.038s-41.103-5.181-59.197-15.038c36.713-19.8 81.682-19.8 118.395 0z"/><path d="m230.504 111.997c3.312-2.488 3.98-7.189 1.492-10.502s-7.189-3.98-10.501-1.492c-11.754 8.829-25.757 13.496-40.496 13.496-4.142 0-7.5 3.357-7.5 7.5s3.358 7.5 7.5 7.5c18.015 0 35.133-5.706 49.505-16.502z"/><path d="m331 128.499c4.142 0 7.5-3.357 7.5-7.5s-3.358-7.5-7.5-7.5c-14.739 0-28.742-4.667-40.496-13.496-3.312-2.486-8.013-1.817-10.501 1.492-2.488 3.313-1.82 8.014 1.492 10.502 14.373 10.796 31.491 16.502 49.505 16.502z"/><path d="m488.5 263.5c0-7.887-2.082-15.659-6.02-22.476l-32.484-56.273c-1.34-2.321-3.816-3.751-6.496-3.751s-5.156 1.43-6.496 3.751l-32.483 56.271c-3.939 6.819-6.021 14.592-6.021 22.478 0 24.813 20.187 45 45 45s45-20.187 45-45zm-75 0c0-5.255 1.387-10.433 4.01-14.974.001-.002 25.99-45.024 25.99-45.024l25.99 45.024c2.623 4.54 4.01 9.718 4.01 14.974 0 16.542-13.458 30-30 30s-30-13.458-30-30z"/></g></svg>