<svg id="Capa_1" enable-background="new 0 0 512 512" height="512" viewBox="0 0 512 512" width="512" xmlns="http://www.w3.org/2000/svg"><g><path d="m504.5 7.5-235.017 44.007c-57.664 10.798-99.456 61.141-99.456 119.808 0 6.235.478 12.46 1.431 18.621l48.627 314.564h115.044s50.241-106.392 41.048-170.717c-9.193-64.326-28.283-77.783-28.283-77.783l156.606-10.101z" fill="#fed2a4"/><path d="m504.5 7.5-30.305 5.675v166.953c0 21.01-16.314 38.411-37.281 39.763l-90.97 5.868c-12.823.827-23.731 9.651-27.217 22.018-3.219 11.417.532 23.562 9.39 31.186 1.68 2.109 11.972 16.502 18.061 59.107 5.403 37.81-18.069 124.794-38.75 166.43h27.702s50.241-106.392 41.048-170.717c-9.194-64.326-28.284-77.783-28.284-77.783l156.606-10.101z" fill="#ffbd86"/><g fill="#ffd15b"><path d="m7.5 162.394h44.791v37.141l79.63-37.141h-44.792v-37.141z"/><path d="m35.181 7.499 31.672 31.673-26.262 26.262 82.569 30.044-31.673-31.672 26.263-26.263z"/><path d="m30.743 300.31 39.213-21.648 17.95 32.515 51.762-71-39.213 21.648-17.95-32.516z"/></g><circle cx="221.936" cy="152.676" fill="#fe646f" r="22.386"/><g><path d="m504.017 238.416-47.05 3.029c-4.134.266-7.27 3.833-7.003 7.966.256 3.97 3.555 7.019 7.478 7.019.161 0 .325-.005.488-.016l47.05-3.029c4.134-.266 7.27-3.833 7.003-7.966-.266-4.133-3.84-7.277-7.966-7.003z"/><path d="m422.047 243.706-74.64 4.81c-3.249.209-6.162 2.377-6.96 5.533-.789 3.123.337 6.285 3.033 8.025.6.518 4.544 4.151 9.347 13.932 4.836 9.847 11.524 28.046 15.928 58.835 8.764 61.342-39.914 165.412-40.407 166.456-1.768 3.746-.165 8.216 3.581 9.984 1.034.488 2.124.719 3.196.719 2.811 0 5.507-1.588 6.787-4.299 2.09-4.427 51.093-109.18 41.692-174.983-5.35-37.401-14.074-58.569-21.002-70.151l60.41-3.893c4.134-.267 7.269-3.833 7.002-7.967-.266-4.132-3.798-7.268-7.967-7.001z"/><path d="m178.873 188.799c-.892-5.784-1.343-11.669-1.343-17.489 0-55.025 39.251-102.307 93.329-112.427l15.56-2.91c4.071-.762 6.755-4.68 5.993-8.751-.761-4.072-4.691-6.758-8.751-5.993l-15.56 2.91c-61.172 11.447-105.57 64.93-105.57 127.171 0 6.582.511 13.234 1.518 19.776l48.63 314.558c.573 3.706 3.767 6.355 7.403 6.355.38 0 .767-.029 1.154-.089 4.094-.633 6.899-4.465 6.267-8.558z"/><path d="m511.87 6.12c-.763-4.07-4.68-6.751-8.753-5.991l-185.059 34.66c-4.071.763-6.754 4.682-5.991 8.753.676 3.604 3.824 6.12 7.363 6.12.458 0 .923-.042 1.39-.129l185.059-34.66c4.072-.762 6.754-4.681 5.991-8.753z"/><path d="m44.792 199.535c0 2.563 1.309 4.948 3.471 6.325 1.223.779 2.623 1.175 4.029 1.175 1.079 0 2.162-.232 3.17-.703l79.63-37.141c3.187-1.486 4.913-4.987 4.152-8.421-.762-3.433-3.806-5.876-7.322-5.876h-37.292v-29.64c0-2.563-1.309-4.948-3.471-6.325-2.16-1.377-4.878-1.556-7.199-.472l-79.63 37.14c-3.187 1.486-4.913 4.987-4.152 8.421.762 3.433 3.806 5.876 7.322 5.876h37.292zm-3.468-44.641 38.306-17.867v25.367c0 4.143 3.357 7.5 7.5 7.5h10.97l-38.307 17.867v-25.367c0-4.143-3.357-7.5-7.5-7.5z"/><path d="m56.248 39.173-20.96 20.959c-1.812 1.812-2.573 4.425-2.019 6.928.555 2.502 2.35 4.548 4.758 5.424l82.569 30.044c.841.306 1.707.453 2.562.453 2.506 0 4.919-1.261 6.327-3.472 1.89-2.966 1.465-6.846-1.021-9.333l-26.37-26.369 20.96-20.959c1.812-1.812 2.573-4.425 2.019-6.928-.555-2.502-2.35-4.548-4.758-5.424l-82.569-30.044c-3.304-1.201-7.001.053-8.89 3.019-1.89 2.966-1.465 6.846 1.021 9.333zm47.873 1.393-17.937 17.937c-2.929 2.93-2.929 7.678 0 10.607l7.757 7.756-39.721-14.453 17.937-17.936c2.929-2.93 2.929-7.678 0-10.607l-7.757-7.756z"/><path d="m136.045 233.613-32.643 18.024-14.325-25.953c-1.239-2.244-3.537-3.7-6.096-3.861-2.541-.16-5.02.995-6.531 3.066l-51.769 71c-2.071 2.842-1.891 6.741.435 9.379 2.325 2.637 6.175 3.305 9.25 1.606l32.654-18.025 14.325 25.953c1.239 2.244 3.538 3.7 6.096 3.861.158.01.314.015.472.015 2.387 0 4.643-1.139 6.06-3.082l8.66-11.88c2.44-3.347 1.705-8.038-1.643-10.478-3.346-2.439-8.038-1.706-10.478 1.643l-1.724 2.364-12.26-22.21c-.962-1.742-2.575-3.03-4.486-3.582-1.911-.549-3.963-.322-5.704.64l-9.607 5.303 24.904-34.154 12.261 22.212c.962 1.742 2.575 3.03 4.486 3.582 1.913.551 3.964.32 5.705-.641l9.591-5.295-2.546 3.49c-2.44 3.347-1.705 8.039 1.642 10.479 3.347 2.438 8.037 1.706 10.479-1.642l22.479-30.83c2.071-2.842 1.891-6.741-.436-9.379-2.327-2.639-6.174-3.306-9.251-1.605z"/><path d="m276.767 85.083c-2.929 2.931-2.927 7.679.003 10.606 14.934 14.923 23.157 34.775 23.157 55.901 0 43.605-35.475 79.081-79.081 79.081-4.143 0-7.5 3.357-7.5 7.5s3.357 7.5 7.5 7.5c51.876 0 94.081-42.205 94.081-94.081 0-25.134-9.785-48.755-27.554-66.51-2.93-2.929-7.679-2.927-10.606.003z"/><path d="m220.846 213.396c34.086 0 61.816-27.725 61.816-61.805 0-16.504-6.431-32.023-18.106-43.7-2.93-2.928-7.678-2.928-10.607 0-2.929 2.93-2.929 7.678 0 10.607 8.844 8.843 13.714 20.596 13.714 33.093 0 25.808-21.002 46.805-46.816 46.805-4.143 0-7.5 3.357-7.5 7.5-.001 4.142 3.357 7.5 7.499 7.5z"/><path d="m251.823 152.676c0-16.479-13.407-29.886-29.887-29.886s-29.887 13.406-29.887 29.886 13.407 29.887 29.887 29.887 29.887-13.407 29.887-29.887zm-44.773 0c0-8.208 6.678-14.886 14.887-14.886s14.887 6.678 14.887 14.886c0 8.209-6.678 14.887-14.887 14.887-8.21 0-14.887-6.678-14.887-14.887z"/></g></g></svg>