<?xml version="1.0" encoding="UTF-8"?>
<svg xmlns="http://www.w3.org/2000/svg" xmlns:xlink="http://www.w3.org/1999/xlink" version="1.1" id="Layer_1" x="0px" y="0px" viewBox="0 0 512.703 512.703" style="enable-background:new 0 0 512.703 512.703;" xml:space="preserve" width="512" height="512">
<g>
	<path style="fill:#FFD15B;" d="M502.605,325.811l-171.184,49.906c-2.466,0.719-3.648,3.522-2.442,5.79l17.962,33.769&#10;&#9;&#9;c1.106,2.079,0.421,4.66-1.57,5.917l-126.582,79.92c-1.932,1.22-0.674,4.206,1.548,3.676l228.588-54.498&#10;&#9;&#9;c2.72-0.648,3.98-3.793,2.461-6.14l-25.52-39.43c-1.204-1.86-0.874-4.321,0.777-5.798l77.876-69.664&#10;&#9;&#9;C506.123,327.824,504.671,325.209,502.605,325.811z"/>
	<path style="fill:#FDB441;" d="M504.518,329.259c1.604-1.435,0.153-4.05-1.914-3.448l-35.947,10.48l-70.015,62.632&#10;&#9;&#9;c-1.652,1.478-1.981,3.938-0.777,5.798l25.52,39.43c1.519,2.347,0.259,5.491-2.461,6.14l-192.229,45.83l-7.907,4.992&#10;&#9;&#9;c-1.932,1.22-0.674,4.206,1.548,3.676l228.588-54.498c2.72-0.648,3.98-3.793,2.461-6.14l-25.52-39.43&#10;&#9;&#9;c-1.204-1.86-0.874-4.321,0.777-5.798L504.518,329.259z"/>
	<path style="fill:#FFD15B;" d="M396.969,7.852H210.617c-3.877,0-7.265,2.625-8.239,6.385l-55.037,212.438&#10;&#9;&#9;c-1.396,5.39,1.648,10.935,6.94,12.639l84.725,27.281c2.814,0.906,4.403,3.886,3.59,6.734l-64.487,225.809&#10;&#9;&#9;c-1.32,4.622,4.586,7.78,7.684,4.107l241.02-285.786c4.313-5.114,1.961-12.982-4.447-14.879L320.24,172.345&#10;&#9;&#9;c-4.823-1.428-6.949-7.079-4.265-11.341L404.168,20.93C407.743,15.251,403.67,7.852,396.969,7.852z"/>
	<path style="fill:#FDB441;" d="M422.364,202.579L320.24,172.345c-4.823-1.428-6.949-7.079-4.265-11.341l88.193-140.074&#10;&#9;&#9;c3.575-5.679-0.498-13.078-7.199-13.078h-30c6.701,0,10.775,7.399,7.199,13.078l-88.193,140.074&#10;&#9;&#9;c-2.683,4.262-0.558,9.913,4.265,11.341l102.124,30.235c6.409,1.897,8.76,9.765,4.447,14.879L187.76,465.338l-9.653,33.8&#10;&#9;&#9;c-1.32,4.622,4.586,7.78,7.684,4.107l241.02-285.786C431.124,212.345,428.772,204.477,422.364,202.579z"/>
	<path style="fill:#FFD15B;" d="M7.523,198.108l25.47,176.482c0.367,2.542,2.977,4.105,5.391,3.228l35.95-13.062&#10;&#9;&#9;c2.214-0.804,4.673,0.235,5.64,2.383l61.428,136.516c0.938,2.084,4.07,1.256,3.857-1.019l-21.988-233.964&#10;&#9;&#9;c-0.262-2.784-3.199-4.471-5.735-3.295l-42.612,19.754c-2.011,0.932-4.4,0.261-5.632-1.581l-58.086-86.855&#10;&#9;&#9;C10.008,194.906,7.216,195.977,7.523,198.108z"/>
	<g>
		<path style="fill:#FDB441;" d="M14.506,246.49l24.785,37.06c1.232,1.842,4.438,5.301,13.185,3.701l16.815-3.701l-58.086-86.855&#10;&#9;&#9;&#9;c-1.197-1.789-3.989-0.718-3.682,1.413L14.506,246.49z"/>
		<path style="fill:#FDB441;" d="M145.258,502.636l-21.988-233.964c-0.262-2.784-3.199-4.471-5.735-3.295l-23.548,10.917&#10;&#9;&#9;&#9;l30.317,189.363l17.098,37.999C142.339,505.739,145.472,504.911,145.258,502.636z"/>
		<path style="fill:#FDB441;" d="M49.974,367.138c-0.966-2.148-3.426-3.187-5.64-2.383l-12.125,4.405l0.783,5.429&#10;&#9;&#9;&#9;c0.367,2.542,2.977,4.105,5.391,3.228l14.091-5.12L49.974,367.138z"/>
	</g>
	<g>
		<path style="fill:none;stroke:#000000;stroke-width:15;stroke-linecap:round;stroke-linejoin:round;stroke-miterlimit:10;" d="&#10;&#9;&#9;&#9;M235.34,7.852h-24.724c-3.877,0-7.265,2.625-8.239,6.385l-55.037,212.438c-1.396,5.39,1.648,10.935,6.94,12.639l84.725,27.281&#10;&#9;&#9;&#9;c2.814,0.906,4.403,3.886,3.59,6.734l-64.487,225.809c-1.32,4.622,4.586,7.78,7.684,4.107l241.02-285.786&#10;&#9;&#9;&#9;c4.313-5.114,1.961-12.982-4.447-14.879L320.24,172.345c-4.823-1.428-6.949-7.079-4.265-11.341L404.168,20.93&#10;&#9;&#9;&#9;c3.575-5.679-0.498-13.078-7.199-13.078H272.673"/>
		<path style="fill:none;stroke:#000000;stroke-width:15;stroke-linecap:round;stroke-linejoin:round;stroke-miterlimit:10;" d="&#10;&#9;&#9;&#9;M420.69,457.022l28.235-6.732c2.72-0.648,3.98-3.793,2.461-6.14l-25.52-39.43c-1.204-1.86-0.874-4.321,0.777-5.798l77.876-69.664&#10;&#9;&#9;&#9;c1.604-1.435,0.153-4.05-1.914-3.448l-171.184,49.906c-2.466,0.719-3.648,3.522-2.442,5.79l17.962,33.769&#10;&#9;&#9;&#9;c1.106,2.079,0.421,4.66-1.57,5.917l-126.582,79.92c-1.932,1.22-0.674,4.206,1.548,3.676l167.046-39.826"/>
		<path style="fill:none;stroke:#000000;stroke-width:15;stroke-linecap:round;stroke-linejoin:round;stroke-miterlimit:10;" d="&#10;&#9;&#9;&#9;M7.523,198.108l25.47,176.482c0.367,2.542,2.977,4.105,5.391,3.228l35.95-13.062c2.214-0.804,4.673,0.235,5.64,2.383&#10;&#9;&#9;&#9;l61.428,136.516c0.938,2.084,4.07,1.256,3.857-1.019l-21.988-233.964c-0.262-2.784-3.199-4.471-5.735-3.295l-42.612,19.754&#10;&#9;&#9;&#9;c-2.011,0.932-4.4,0.261-5.632-1.581l-58.086-86.855C10.008,194.906,7.216,195.977,7.523,198.108z"/>
	</g>
</g>















</svg>
