<svg id="Layer_1" viewBox="0 0 512 512" xmlns="http://www.w3.org/2000/svg" data-name="Layer 1"><path d="m122.663 345.114a14.009 14.009 0 0 1 -11.632-6.215 13.822 13.822 0 0 1 -1.288-12.948l39.432-96.872-26.605-14.785a13.9 13.9 0 0 1 -3.347-21.694l105.741-111.824a13.729 13.729 0 0 1 10.048-4.376 14.009 14.009 0 0 1 11.632 6.214 13.827 13.827 0 0 1 1.289 12.949l-39.433 96.872 26.6 14.784a13.9 13.9 0 0 1 3.347 21.695l-105.736 111.823a13.723 13.723 0 0 1 -10.047 4.377z" fill="#fed049"/><path d="m235.012 86.4a3.91 3.91 0 0 1 3.658 5.392l-41.47 101.882a3.9 3.9 0 0 0 1.716 4.874l31.333 17.412a3.9 3.9 0 0 1 .939 6.083l-105.743 111.824a3.78 3.78 0 0 1 -2.782 1.247 3.911 3.911 0 0 1 -3.658-5.393l41.472-101.882a3.9 3.9 0 0 0 -1.716-4.874l-31.333-17.412a3.9 3.9 0 0 1 -.939-6.083l105.741-111.823a3.778 3.778 0 0 1 2.782-1.247m0-20a23.63 23.63 0 0 0 -17.312 7.506l-105.742 111.823a23.9 23.9 0 0 0 5.754 37.3l18.861 10.481-36.092 88.666a23.888 23.888 0 0 0 39.5 25.427l105.737-111.819a23.9 23.9 0 0 0 -5.755-37.3l-18.863-10.484 36.092-88.665a23.9 23.9 0 0 0 -22.18-32.935z" fill="#00243a"/><path d="m276.986 435.6a14.01 14.01 0 0 1 -11.63-6.215 13.825 13.825 0 0 1 -1.289-12.948l39.433-96.872-26.6-14.784a13.9 13.9 0 0 1 -3.347-21.695l105.736-111.823a13.723 13.723 0 0 1 10.048-4.377 14.006 14.006 0 0 1 11.631 6.214 13.821 13.821 0 0 1 1.289 12.949l-39.432 96.872 26.605 14.785a13.9 13.9 0 0 1 3.347 21.694l-105.741 111.824a13.727 13.727 0 0 1 -10.048 4.377z" fill="#fed049"/><path d="m389.337 176.886a3.911 3.911 0 0 1 3.663 5.393l-41.477 101.882a3.9 3.9 0 0 0 1.716 4.874l31.333 17.412a3.9 3.9 0 0 1 .939 6.083l-105.741 111.823a3.778 3.778 0 0 1 -2.782 1.247 3.91 3.91 0 0 1 -3.658-5.392l41.47-101.882a3.9 3.9 0 0 0 -1.716-4.874l-31.331-17.412a3.9 3.9 0 0 1 -.939-6.083l105.741-111.824a3.78 3.78 0 0 1 2.782-1.247m0-20a23.634 23.634 0 0 0 -17.314 7.506l-105.741 111.824a23.9 23.9 0 0 0 5.755 37.305l18.863 10.479-36.092 88.665a23.888 23.888 0 0 0 39.5 25.427l105.74-111.823a23.9 23.9 0 0 0 -5.754-37.305l-18.861-10.481 36.092-88.666a23.906 23.906 0 0 0 -22.182-32.933z" fill="#00243a"/></svg>